<svg xmlns="http://www.w3.org/2000/svg" viewBox="0 0 49.32 55.24"><defs><style>.cls-1{fill:#f5f5f5;stroke:#ccc;stroke-miterlimit:10;stroke-width:0.25px;}</style></defs><title>chernigov</title><g id="Слой_2" data-name="Слой 2"><g id="Layer_1" data-name="Layer 1"><path class="cls-1" d="M42.39,49.24v.1l-.77,1.6-.92.22-.33.79-2.23,2.12-1.8.14L36,53.68h-.48v.69L33,54.24l-.24-1.3H31.06l-.61-.46-1.17,1L28,55.06l-.63-.51-.73.37-1.62,0,1.17-1.84h-1l-1.22-2L26.12,50l-.61-.61-1.73-.28-.19-1.31L22,47.22l-1.18,1-.16.53-1.93.1-.38.38-.29.33-.75-.32-.95-.1-1,.14-1-.13-1.12.1H12.1l-.86-.93-.4.14-.35.13-.08-.36-.19-.38,0-.36.64-.09.37-.12.1-.47-.22-.92L10.93,45l-.22-.13-.18-.12.17-.33-.07-.29-.47-.38-.51-.41,0-.32-.23-.27-.32,0L8.19,43,7,43.33l-1.29.15-.69,0-.52-.34-.05-.43-.23-.09-.56.1-.57-.23-1-.14.59-1.1.61.41.28-.15,0-1.19-.23-.76H2.46l-.39-.24-.68-1.8L1.53,36l-.3-.2H.38a6.93,6.93,0,0,1,.22-.72,8.2,8.2,0,0,0,.33-.83,3.93,3.93,0,0,0,0-1,10,10,0,0,1-.44-1.39,4.47,4.47,0,0,1,.22-.59,2,2,0,0,0,0-.61,2,2,0,0,0-.42-.81L.2,29.85l.15-.63,0,0c.11-.08.07-.44.19-.51s.39.06.52,0a.92.92,0,0,0,.38-.16.93.93,0,0,0,.25-.51c0-.14-.3-.35-.29-.5s.3-.33.35-.46a1.69,1.69,0,0,0,0-.55,5,5,0,0,0-.22-1c-.07-.21-.31-.58-.39-.78a2.88,2.88,0,0,1-.16-.57c0-.22.06-.65.06-.87a3.41,3.41,0,0,0-.07-.9c-.08-.21-.44-.51-.54-.71a2.71,2.71,0,0,1-.2-.65,10,10,0,0,1,0-1.76,3.82,3.82,0,0,0,.13-.78c0-.15-.28-.39-.32-.54a1.43,1.43,0,0,1,0-.64A1,1,0,0,1,.47,17,1.26,1.26,0,0,1,1,16.87c.12,0,.35.15.46.13a.73.73,0,0,0,.33-.19A2,2,0,0,0,2,16.16c.07-.27.07-.84.13-1.12a9.78,9.78,0,0,1,.41-1.18A7.45,7.45,0,0,1,3.2,12.6c.24-.31.89-.75,1.16-1s.57-.73.8-.93.92-.53,1.16-.78a3.3,3.3,0,0,0,.42-.74A3.5,3.5,0,0,0,7,8.32c0-.15-.12-.45-.07-.6a.73.73,0,0,1,.28-.33c.15-.07.49,0,.65,0s.84-.17,1.12-.2a7.1,7.1,0,0,1,1-.06,2.7,2.7,0,0,1,.76.16,4,4,0,0,1,.51.44c.17.13.47.48.68.52a1.3,1.3,0,0,0,.65-.15A2.41,2.41,0,0,0,13,7.69c.16-.17.46-.55.62-.73a4,4,0,0,1,.76-.77,3.3,3.3,0,0,1,1.06-.13,10.41,10.41,0,0,1,1.42.13c.14,0,.42.11.57.15.53.12,1.61.33,2.15.44s1.52.3,2,.36c.33,0,1,0,1.34.09a7.17,7.17,0,0,1,.74.17c.13,0,.43.07.49.19s-.08.31-.07.42a1.26,1.26,0,0,0,.19.52,1.29,1.29,0,0,0,.46.26,1.85,1.85,0,0,0,.54.06c.15,0,.43-.15.58-.17a2.8,2.8,0,0,1,.48,0c.12,0,.35.07.47.09a1.39,1.39,0,0,0,.45.07c.06,0,.16-.13.2-.17s.45-.53.61-.7.83-.64,1-.91a6.27,6.27,0,0,0,.38-.76c.08-.15.18-.51.32-.59s.38,0,.49,0,.25-.16.28-.25-.13-.39-.19-.51A3.83,3.83,0,0,1,30,4.28a2.17,2.17,0,0,1,.13-.78c.07-.21.36-.58.42-.8a3.09,3.09,0,0,0,0-.41c0-.18,0-.58.1-.73a1.22,1.22,0,0,1,.57-.25,5.36,5.36,0,0,1,.89,0,5.89,5.89,0,0,1,1.08,0,5.84,5.84,0,0,1,1.08.58c.28.17.8.59,1.09.74a4.38,4.38,0,0,0,.92.36A3.11,3.11,0,0,0,37,3c.22,0,.65-.13.87-.16a9.59,9.59,0,0,1,1.21-.07c.16,0,.48.09.64.1a2.89,2.89,0,0,0,.61,0,4.56,4.56,0,0,0,.93-.41c.3-.16.87-.54,1.15-.73s.66-.46.87-.62a8.41,8.41,0,0,1,.84-.8A2.93,2.93,0,0,1,45,.13a9.24,9.24,0,0,1,1.07.09L47.24.3l.3,0-.27.78-.34.73-.13.87-.08.8-.49.69L46,4.92l.13.68.53.5.62.47.66.26.34.35.08.47.25.34.28,0,.33.51,0,.38-.48.18h-.44l-.37.13L47.48,9l-.16-.32-.48.13-.6.11-.42.14.19.38.59.63.53.25.23.38.33.71-.26.7-.17.45-.46-.2-.37-.09-.21.2-.46,0-.33-.16-.37,0-.12.16.16.33L45,13.1l-.34.11-.36-.32-.14-.17-.5.38-.2.34,0,.34,0,.52-.26.46-.4.69-.3,1.14v.86l.55.49.42.54.09.6.08.81.3.28.34.57.29.76.07.44-.22.12-.52,0-.36.16.25.44.25.41.22.33-.08.41-.47.29-.52.25-.2.25.05.65.22.41.23.4.38.51,0,.37-.27.51-.33.22-.5-.1-.45-.44-.1-.48-.1-.44-.13-.25-.27-.09-.25.09-.21.31,0,.33.25.39.35.75.27.23.27.36,0,.94.08.56-.26.62-.29.42,0,.46v.35l-.38.22L41,32l-.25.29v.38l.17.46-.06.36-.3.42,0,.54v.28h.28l.26-.19.31.13,3.51,3.68L45,40.18l-.23.31h-.67l.13,1.75-.53.65L44,44l1.3.76,0,.47-1.35,0-.23.76-.52.62.21.56-.44.76-.56.95Z"/></g></g></svg>