<svg xmlns="http://www.w3.org/2000/svg" viewBox="0 0 30.7 56.13"><defs><style>.cls-1{fill:#f5f5f5;stroke:#ccc;stroke-miterlimit:10;stroke-width:0.25px;}</style></defs><title>khmelnickyi</title><g id="Слой_2" data-name="Слой 2"><g id="Layer_1" data-name="Layer 1"><path class="cls-1" d="M30.53,38.52l-.39.81-1-.34-.75,1.13-1.24-.61-1.11-.29L25,39.07l0,.46h-.28l-1.42.63a1.5,1.5,0,0,0-.1.35c0,.12.16.34.16.46s-.13.34-.14.46.1.4,0,.51-.24.12-.24.12l-1.6,1.57s-.15,1.73-.13,2.31a17.42,17.42,0,0,0,.25,2.3c.08.41.49,1.58.49,1.58l-.74.48.17,1.22s0,.55,0,.73a6.7,6.7,0,0,0,0,.83,6.07,6.07,0,0,0,.32.85l.24.63a1.48,1.48,0,0,1-.29,0,2.57,2.57,0,0,1-.52-.28,4.75,4.75,0,0,0-.79-.36,1.14,1.14,0,0,0-.45,0c-.08,0-.19.18-.28.2s-.41-.13-.54-.07-.18.26-.23.35-.1.27-.17.34a.82.82,0,0,1-.45.13c-.18,0-.47-.32-.65-.36a2.71,2.71,0,0,0-.6,0,3,3,0,0,0-.65.06,3.23,3.23,0,0,0-.49.33,1.41,1.41,0,0,1-.29.2.71.71,0,0,1-.49,0c-.08-.07,0-.36-.07-.44s-.36-.1-.48-.1-.36.09-.48.06-.27-.29-.39-.35a1.41,1.41,0,0,0-.67-.15c-.13,0-.33.25-.45.32a2.6,2.6,0,0,1-.46.17,1.87,1.87,0,0,1-.68.06,1.16,1.16,0,0,1-.39-.31c-.09-.11-.13-.42-.25-.51a2,2,0,0,0-.86-.16,2.65,2.65,0,0,0-.8.1,4,4,0,0,0-.33.25,2.51,2.51,0,0,1-.36.16c-.2.06-.66,0-.81.17s-.12.32-.16.42a4,4,0,0,1-.3.65A2.08,2.08,0,0,1,6.5,56a1.36,1.36,0,0,1-.67,0,3.26,3.26,0,0,1-.7-.54,7,7,0,0,0-.77-.67,2.45,2.45,0,0,0-.71-.19H3.5L3,53.91a9.57,9.57,0,0,1-.83-1,5.29,5.29,0,0,1-.24-.77,3.76,3.76,0,0,0-.22-.72c-.05-.08-.25-.17-.29-.26s0-.47,0-.61a3.21,3.21,0,0,0-.3-.41,4.8,4.8,0,0,1-.5-1,7.51,7.51,0,0,1,0-1.44c0-.31,0-.92,0-1.22a8.14,8.14,0,0,1-.08-1.19c0-.14.23-.39.25-.53a1.42,1.42,0,0,0-.13-.65C.55,44,.3,43.93.24,43.83A2.17,2.17,0,0,1,.13,43a3.13,3.13,0,0,1,.23-.86,5.46,5.46,0,0,1,.47-.63A2.8,2.8,0,0,0,1.21,41a3,3,0,0,0,0-.66c0-.37.08-1.09.05-1.46s-.19-1.06-.22-1.42a4.41,4.41,0,0,1,0-1.27,2.09,2.09,0,0,1,.38-.52c.1-.11.34-.28.44-.39a1.87,1.87,0,0,0,.32-.44,2.59,2.59,0,0,0,.07-1c0-.25-.31-.71-.37-1a6.42,6.42,0,0,1-.1-1.15c0-.29.12-.85.12-1.13s-.05-.86-.09-1.14-.09-.6-.13-.79-.19-.75-.23-1a1.9,1.9,0,0,1-.05-.73c.05-.13.3-.29.41-.37s.36-.12.42-.22,0-.35,0-.47a2.6,2.6,0,0,1,.31-.65c.08-.1.31-.24.37-.35a1.45,1.45,0,0,0,.13-.52,3.56,3.56,0,0,0-.17-.88c0-.14-.2-.4-.25-.53a5.35,5.35,0,0,1-.28-1.1c0-.22.11-.67.12-.89a3.45,3.45,0,0,0-.05-.82,4.1,4.1,0,0,0-.39-.7c-.11-.19-.38-.53-.48-.73a3.11,3.11,0,0,1-.2-.59c0-.18,0-.55,0-.73a1.45,1.45,0,0,1,0-.39c0-.16.34-.36.41-.5A2.69,2.69,0,0,0,1.89,16c0-.17.13-.68.13-.68l1.21,0,.19-.75.15-.63L3,13.51l.29-1.12.89-.22L4,11.61l-.89-.29,0-.38a6.17,6.17,0,0,0,1.13-.32,6.2,6.2,0,0,0,1-.83c.24-.23.66-.75.9-1a2.74,2.74,0,0,1,.58-.46,2.82,2.82,0,0,1,.52,0,4.63,4.63,0,0,0,.86-.15,5.46,5.46,0,0,0,1-.68,4.86,4.86,0,0,0,.74-.73c.1-.15.18-.52.29-.67a5.37,5.37,0,0,1,.73-.62A5.13,5.13,0,0,1,12,4.59c.1,0,.32.06.41,0s.15-.26.19-.35a7.79,7.79,0,0,0,.29-.94A4,4,0,0,1,13,2.6a1.3,1.3,0,0,1,.44-.42,2.31,2.31,0,0,1,.77-.1c.12,0,.37.14.46.07s.15-.49.15-.49l1-.57,1.21.75.58-.6,1.06,0L19,.48l.86-.32.44,1.18.87,0,.06,0,0,.07.62.69.51.08.21.33-.08.58L21.17,5.58l1.63.69,0,.63.27,0,1.22,1.27v.9l1.39.63.13.64.86,0,.07-.72h.51l.42,1.49.45.71.39.05-.11.83-1-.15-.14,2,1.07.64-1.06,1-1-.27-.68.22.83,1.43-1,2.33.78.4,0,.71,2.32,2,.1,1.49L30,24.12l.23.94-.82.4-.16,1.1,1,.4-.14.38-.7,0-1.24,1.86.86.44L29,31l-.88.49.46.88,1.22.15.36.82-1,.68.62,1.12-.2,1,0,1.92Z"/></g></g></svg>