<svg xmlns="http://www.w3.org/2000/svg" viewBox="0 0 40.8 45.6"><defs><style>.cls-1{fill:#f5f5f5;stroke:#ccc;stroke-miterlimit:10;stroke-width:0.25px;}</style></defs><title>lutsk</title><g id="Слой_2" data-name="Слой 2"><g id="Layer_1" data-name="Layer 1"><path class="cls-1" d="M40.66,26.82a3.67,3.67,0,0,1,0,.64,1.5,1.5,0,0,1-.12.51c-.19.28-.83.58-1.1.79a2.38,2.38,0,0,0-.48.4,2.47,2.47,0,0,0-.17.76,2.32,2.32,0,0,0,0,.68A1.67,1.67,0,0,0,39,31c.09.12.36.3.41.44a.82.82,0,0,1,0,.39.62.62,0,0,1-.17.28c-.11.06-.37,0-.49,0l-1,.1a3.26,3.26,0,0,0-.73.12,1.39,1.39,0,0,0-.47.41,3.56,3.56,0,0,0-.12.83c0,.25-.14.74-.2,1s-.24.69-.32.91-.21.49-.25.66,0,.3,0,.4,0,.39-.07.52,0,.34-.13.38-.26-.08-.34-.13a.78.78,0,0,1-.23-.2c-.06-.11,0-.38-.05-.49a.88.88,0,0,0-.28-.37,1.33,1.33,0,0,0-.44,0c-.14,0-.45.07-.57,0s-.18-.32-.22-.44,0-.34,0-.44a1.39,1.39,0,0,0-.32-.37,4.71,4.71,0,0,0-.59-.31c-.14-.08-.41-.33-.57-.3s-.13.12-.15.17a4.44,4.44,0,0,0-.06.46,1.1,1.1,0,0,1-.18.39,1.49,1.49,0,0,1-.57.22,6,6,0,0,1-.84,0l-1.07,0a3.49,3.49,0,0,0-.78,0,1.52,1.52,0,0,0-.58.38,3.48,3.48,0,0,0-.21.65c0,.09-.07.31-.16.35s-.32-.14-.44-.15a1,1,0,0,0-.52.05,1,1,0,0,0-.19.47c0,.16,0,.48,0,.63a1.51,1.51,0,0,1-.18.47.92.92,0,0,1-.31.24,1.24,1.24,0,0,1-.54,0,4.69,4.69,0,0,1-.64-.39,2.62,2.62,0,0,0-.5-.22,1.58,1.58,0,0,0-.73,0,.77.77,0,0,0-.33.39,1.12,1.12,0,0,0,.19.51c.08.14.33.37.4.51a1.83,1.83,0,0,1,.16.56,2.92,2.92,0,0,1-.12.56,5.32,5.32,0,0,0-.21.76,1.38,1.38,0,0,0,.12.59c.08.12.36.23.46.34a1.18,1.18,0,0,1,.24.39.53.53,0,0,1,0,.33.49.49,0,0,1-.27.12c-.07,0-.21-.09-.28-.09a1,1,0,0,0-.22.06l.29.91-1.06.27v1.06l-.89-.19-.13-1.31a1.52,1.52,0,0,0-.16-.4,1.6,1.6,0,0,0-.4-.17l-.58-.26a2.27,2.27,0,0,0-.35-.17,2,2,0,0,0-.53,0c-.17,0-.49.16-.65.19a3.34,3.34,0,0,0-.37,0,4,4,0,0,0-.48.28,1.51,1.51,0,0,1-.34.13,3.74,3.74,0,0,1-1.64-.16.7.7,0,0,1-.26-.29,1.91,1.91,0,0,1,0-.43c0-.13,0-.53,0-.53l-1.24-.71L13.55,41a1.79,1.79,0,0,1-.14-.36,4,4,0,0,1,.13-.7,5.22,5.22,0,0,0,.09-.86,1,1,0,0,0-.11-.41c-.05-.07-.25-.1-.3-.16s-.14-.59-.21-.77a1,1,0,0,0-.16-.34,2.57,2.57,0,0,0-.75-.23c-.22-.06-.66-.15-.87-.24a1.48,1.48,0,0,1-.4-.25,1.42,1.42,0,0,1-.24-.51c0-.07,0-.21,0-.27s-.26-.27-.35-.36-.23-.28-.34-.28-.39.24-.51.34S9.1,35.93,9,36s-.23.35-.35.35-.18-.22-.25-.29c-.46-.47-1.49-1.3-2-1.73-.25-.22-.79-.64-1-.88A2.9,2.9,0,0,1,5,32.9c-.09-.21-.1-.68-.17-.89a4.74,4.74,0,0,0-.25-.51A2.07,2.07,0,0,0,4.47,31c0-.15-.26-.39-.33-.53a2.88,2.88,0,0,1-.21-.66A1.82,1.82,0,0,1,4,29.07a1.7,1.7,0,0,1,.47-.49A2.78,2.78,0,0,1,5,28.39a7,7,0,0,1,1-.29c.21,0,.64.06.84,0s.31-.1.35-.2-.17-.56-.27-.72a4.39,4.39,0,0,0-.73-.69c-.21-.17-.69-.43-.89-.61A5.26,5.26,0,0,1,4.49,25a5.34,5.34,0,0,1-.32-.75,7.59,7.59,0,0,1-.27-.89c0-.26,0-.8-.08-1.06a5.07,5.07,0,0,0-.32-.59,7.84,7.84,0,0,1-.4-.89C3,20.57,3,20,2.92,19.69a7.62,7.62,0,0,0-.32-1.31,6.87,6.87,0,0,0-.83-1.16c-.2-.24-.69-.64-.89-.88a4.88,4.88,0,0,1-.61-.84,2,2,0,0,1-.15-.69,2.85,2.85,0,0,1,.37-1c.13-.21.55-.49.7-.69a2,2,0,0,0,.27-.49,2.31,2.31,0,0,0,0-.79c0-.2-.29-.56-.36-.75a3.65,3.65,0,0,1-.1-.42c0-.2-.06-.59-.09-.78s-.15-.36-.1-.47.33-.11.41-.19a1.2,1.2,0,0,0,.28-.41,2.46,2.46,0,0,0,0-.69c0-.24-.13-.71-.15-.95a2.53,2.53,0,0,1,0-.75A1.5,1.5,0,0,1,1.7,6a2.81,2.81,0,0,1,.65-.36,1.56,1.56,0,0,1,.48-.1,1.52,1.52,0,0,1,.59.21c.11.08.23.34.34.42a1.82,1.82,0,0,0,.45.22c.12,0,.38,0,.5.1a3.35,3.35,0,0,1,.72.47,2.17,2.17,0,0,1,.4.49c0,.11,0,.38.09.46a.84.84,0,0,0,.63,0c.2-.08.42-.49.58-.63a3.87,3.87,0,0,1,.64-.48c.22-.11.73-.13.94-.25a3,3,0,0,0,.61-.61c.07-.09.14-.34.24-.4s.74-.05,1-.11a5.36,5.36,0,0,0,1-.35,4.07,4.07,0,0,0,.88-.64,4,4,0,0,0,.5-.93c.11-.28.19-.88.27-1.17a5.7,5.7,0,0,1,.23-.74A1.89,1.89,0,0,1,13.84,1,3.48,3.48,0,0,1,15.08.75a12.5,12.5,0,0,1,1.48,0c.29,0,.85.16,1.14.16s.59-.13.79-.12.66.18.88.21c.53.06,1.61,0,2.15,0s1.56,0,2.08,0A18.44,18.44,0,0,0,25.72.81C26,.75,26.65.51,27,.41a8.55,8.55,0,0,1,1-.27,2.75,2.75,0,0,1,.57,0,2.08,2.08,0,0,1,.59.16c.16.09.37.42.52.53a4.38,4.38,0,0,0,1.12.59,5.35,5.35,0,0,0,.74,0c.39,0,1.17.14,1.56.16h.84a1.78,1.78,0,0,0,.17.58,1.58,1.58,0,0,0,.43.38,1.67,1.67,0,0,0,.41.13,4.11,4.11,0,0,0,.83,0c.16,0,.51-.26.63-.15s0,.32,0,.42a1.28,1.28,0,0,1-.31.44c-.11.09-.42.12-.53.21a1.27,1.27,0,0,0-.32.41c0,.1,0,.34,0,.44s-.23.43-.28.59-.14.35-.09.46.17.09.23.12a.92.92,0,0,1,.23.11,1.22,1.22,0,0,1,.17.45,2.59,2.59,0,0,1,0,.75,3.59,3.59,0,0,1-.32.69c-.07.14-.26.39-.33.53a4.24,4.24,0,0,0-.17.46c0,.1-.07.32-.11.41a1.89,1.89,0,0,1-.25.39,1.32,1.32,0,0,1-.38.3,1,1,0,0,1-.37,0c-.1,0-.27-.18-.37-.16a.23.23,0,0,0-.14.13c0,.12.16.32.21.42s.37.58.46.79a1.6,1.6,0,0,1,.16.62,1.14,1.14,0,0,1-.2.32,1.19,1.19,0,0,0-.16.22,1.8,1.8,0,0,0,0,.54,1.36,1.36,0,0,0,.09.47c.06.09.28.14.36.22a1.17,1.17,0,0,1,.19.3,2.12,2.12,0,0,1,.09.44,5.26,5.26,0,0,1,0,.75,2.17,2.17,0,0,0-.09.45c0,.14.24.34.31.46s.22.32.28.43.12.34.21.4a.54.54,0,0,0,.31,0c.1,0,.25-.18.35-.2a.66.66,0,0,1,.31,0c.09,0,.21.21.28.28s.16.22.24.2.13-.24.18-.31a1.68,1.68,0,0,1,.38-.44.63.63,0,0,1,.41,0,.38.38,0,0,1,.12.2,2.76,2.76,0,0,1,0,.54,6.91,6.91,0,0,0,0,1,2.17,2.17,0,0,0,.19.47,6.84,6.84,0,0,0,.51.72c.13.16.43.44.54.61a2.69,2.69,0,0,1,.26.62,5.38,5.38,0,0,1,0,.6,1.48,1.48,0,0,0,0,.41c.07.13.33.3.43.41a10.94,10.94,0,0,1,.67.88,2.39,2.39,0,0,1,.2.33,1.32,1.32,0,0,1,.13.54c0,.1-.18.26-.25.34a3.43,3.43,0,0,1-.34.38,1.24,1.24,0,0,1-.43.26c-.09,0-.27-.1-.36-.11a1.15,1.15,0,0,0-.41,0,.47.47,0,0,0-.18.16,1.31,1.31,0,0,0,0,.44,1.39,1.39,0,0,0,0,.54,1.11,1.11,0,0,0,.39.29,3,3,0,0,0,.64.19c.12,0,.37,0,.49,0a1.3,1.3,0,0,1,.55.29A1.53,1.53,0,0,1,40.66,26.82Z"/></g></g></svg>