<svg xmlns="http://www.w3.org/2000/svg" viewBox="0 0 49.81 53.94"><defs><style>.cls-1{fill:#f5f5f5;stroke:#ccc;stroke-miterlimit:10;stroke-width:0.25px;}</style></defs><title>lviv</title><g id="Слой_2" data-name="Слой 2"><g id="Layer_1" data-name="Layer 1"><path class="cls-1" d="M45.63,14.45l1.1.23,0,.65-1,.52.06,2.73,3.29,3.91.16-.17.43,1.1-.79,2.66-1,.86s-.27.15-.36.13-.27-.22-.32-.32,0-.42-.07-.52a.35.35,0,0,0-.22-.06,2.08,2.08,0,0,0-.52.19,2.33,2.33,0,0,1-.42.2c-.12,0-.36-.1-.48-.1a6.11,6.11,0,0,0-.9.22,3.37,3.37,0,0,0-1,.2,1,1,0,0,0-.29.51,2.4,2.4,0,0,0,.17.78c0,.15.25.57.25.57l-.54,1.15L42.1,30,41,31.5l-1.71,1.26-2.76.91.32,1.44,0,.31L34.1,34.34l-.94.27-.36-.19-.16-1-1.13.12L30.87,35l.31.55-.91,1,.38.83-.08,1-.56.93-.9-.45-.6.89.65.57.07.88,2,.3.16.33-.31,1.6-.84.08L30,42.78h-.79l-.76.43-1.31.52L25.94,44l-1-.26-.89-.4-.56.39-1.85-.07-1.06.21-1.39-.57-1.7,1v.61l-1.87,1.62-.69,2,.47.87v.76l-.85.24-.36,1.54-.43,1.34-.19.59-2.24-.44-.79-1.17-1.19-.65-1.18,0L6.55,49.53,4.5,50l-.59-1.9L3,47l-.25-1.14,1.18-.62L2.1,43.26a1.24,1.24,0,0,0,.37,0,1,1,0,0,0,.48-.35,1.67,1.67,0,0,0-.09-.93,4.16,4.16,0,0,0-.61-.85c-.11-.14-.42-.35-.5-.51A3,3,0,0,1,1.68,40a1.77,1.77,0,0,0-.14-.49,1.81,1.81,0,0,0-.39-.32c-.09-.06-.31-.14-.37-.23a1.16,1.16,0,0,1-.11-.52,3,3,0,0,1,.19-.74c.07-.18.31-.5.37-.69a4.36,4.36,0,0,0,.13-.76c0-.52,0-1.56,0-2.08s0-1.41.05-1.87c0-.31,0-.93,0-1.24s.08-.59,0-.75-.25-.16-.35-.2a2.32,2.32,0,0,0-.48-.1c-.11,0-.37.11-.45,0s.06-.31.09-.41a4.15,4.15,0,0,1,.37-1A10,10,0,0,1,2,27.59c.26-.22.77-.69,1-.93s1-1.06,1.37-1.43c.61-.67,1.79-2.07,2.38-2.75.33-.38,1-1.14,1.32-1.5.67-.7,2.14-2,2.82-2.66.35-.36,1-1.14,1.36-1.5s.88-.88,1.19-1.15.78-.63,1-.84c.42-.33,1.23-1,1.67-1.32.62-.44,2-1.21,2.59-1.63.37-.25,1.09-.77,1.47-1a3,3,0,0,0,.61-.35A3,3,0,0,0,21,9.85a4.9,4.9,0,0,1,.4-1,1.81,1.81,0,0,1,.45-.34,2.08,2.08,0,0,1,.57-.21,5,5,0,0,1,.83.11,10.34,10.34,0,0,0,1.32.13,2.64,2.64,0,0,0,.56-.12c.2-.07.56-.29.75-.38a7.7,7.7,0,0,0,1-.45,1.75,1.75,0,0,0,.29-.34,10.44,10.44,0,0,0,.49-1,5.53,5.53,0,0,0,.42-.93,5.57,5.57,0,0,0,0-1A13.84,13.84,0,0,0,28,3c-.06-.3-.32-.87-.37-1.18a3.52,3.52,0,0,1,0-.66c0-.14.1-.41.11-.54s0,0,0-.08A4.74,4.74,0,0,1,28,1c.08.22.08.69.17.89a2.9,2.9,0,0,0,.44.57c.23.25.77.66,1,.88.5.43,1.53,1.26,2,1.73.07.07.15.29.25.29s.26-.26.35-.35.28-.3.39-.39.36-.35.51-.34.26.21.34.28.31.24.35.36,0,.21,0,.27a1.42,1.42,0,0,0,.24.51,1.48,1.48,0,0,0,.4.25c.21.09.65.18.87.24a2.57,2.57,0,0,1,.75.23,1,1,0,0,1,.16.34c.07.19.08.62.21.77s.25.1.3.16a1,1,0,0,1,.11.41,5.22,5.22,0,0,1-.09.86,4,4,0,0,0-.13.7,1.79,1.79,0,0,0,.14.36l.86.38,1.24.71s0,.4,0,.53a1.91,1.91,0,0,0,0,.43.7.7,0,0,0,.26.29,3.74,3.74,0,0,0,1.64.16,1.51,1.51,0,0,0,.34-.13,4,4,0,0,1,.48-.28,3.34,3.34,0,0,1,.37,0c.17,0,.49-.16.65-.19a2,2,0,0,1,.53,0,2.27,2.27,0,0,1,.35.17l.58.26a1.6,1.6,0,0,1,.4.17,1.52,1.52,0,0,1,.16.4l.13,1.31Z"/></g></g></svg>