<svg xmlns="http://www.w3.org/2000/svg" viewBox="0 0 53.48 43.93"><defs><style>.cls-1{fill:#f5f5f5;stroke:#ccc;stroke-miterlimit:10;stroke-width:0.25px;}</style></defs><title>nikolaev</title><g id="Слой_2" data-name="Слой 2"><g id="Layer_1" data-name="Layer 1"><path class="cls-1" d="M43.17,12.36s.91-2.92.91-2.92l-.33-.35s.13-.28.22-.33a1.55,1.55,0,0,1,.62,0c.17,0,.51.08.69.07s.34,0,.4-.12a.35.35,0,0,0,0-.21.65.65,0,0,0-.15-.34c-.1-.06-.34,0-.46,0h-.71c-.12,0-.43.09-.48,0s.18-.25.25-.33a.89.89,0,0,1,.2-.19,3.11,3.11,0,0,1,.55-.07,4.72,4.72,0,0,0,.79-.23c.09,0,.23-.21.33-.22a.57.57,0,0,1,.33.17c.07.08,0,.34.13.41s.29,0,.39,0a2.44,2.44,0,0,0,.7,0,.64.64,0,0,0,.27-.22,1.36,1.36,0,0,0,0-.56c0-.21-.19-.6-.2-.81a.89.89,0,0,1,.08-.38A.9.9,0,0,1,48,5.59c.14-.07.44-.18.59-.24s.45-.13.59-.2.31-.26.44-.25.15.12.19.16.15.28.23.35a3.48,3.48,0,0,0,.58.37,1.51,1.51,0,0,0,.27.15l-.23,1,.17,2.16h.26a.73.73,0,0,1,.28.09.38.38,0,0,1,.11.24c0,.06-.15.17-.15.17l.64,1v.52l-.49.24.36,1.67-1.57,1.2.14,1.85.46,1.67.47.16.41.1.89,1.72.7,2.55-1.23,0-.78-1.55-.63.37.83,2.11,1,.07.37,1.15-.61.59.05,1.16.58,1.38-1.1.71-1.73.07-1.06,2,1.07,1.35,2,1.31-1,1.26-1.15-.51-.49.79,1,.41,0,.73-2.66.88,0,.44,1.63,0,.62.75-4.77,1-.45-1.34-1.06.46L43,37.24l-1.32,0,.31,1-1.18.17-.58-.61H39l.06,1.43-1.74-1.11-.87.75-.6.63-.05.71-1.19.84L34,40.21l-1.89.36,1,1.74-.34.24c-.1-.13-.21-.28-.28-.37a7.67,7.67,0,0,1-.6-.9,5.67,5.67,0,0,1-.46-1.43,4.27,4.27,0,0,1,.15-1.23,6.91,6.91,0,0,1,.5-1,9.7,9.7,0,0,0,.63-1,3.92,3.92,0,0,0,.13-1,2.17,2.17,0,0,0-.09-.59,1.2,1.2,0,0,0-.27-.39,1.26,1.26,0,0,0-.42-.15c-.06,0-.19,0-.24,0s-.07-.31-.06-.41a1,1,0,0,1,.11-.33c0-.07.22-.17.23-.26s-.13-.35-.21-.45a1,1,0,0,0-.35-.29,1.87,1.87,0,0,0-.53.07,1.58,1.58,0,0,1-.38,0,.53.53,0,0,1-.23-.14.89.89,0,0,1-.12-.44,1.56,1.56,0,0,1,.21-.46,4.73,4.73,0,0,0,.33-.47,1.83,1.83,0,0,0,.08-.69,1,1,0,0,0-.16-.37,3.93,3.93,0,0,0-.36-.25,2,2,0,0,1-.4-.46c0-.07,0-.24,0-.28s-.19,0-.25,0a.55.55,0,0,0-.25.22.91.91,0,0,0,.05.55c.06.11.32.22.39.33a2,2,0,0,1,.21.76,2.44,2.44,0,0,1-.11.59c0,.15-.17.43-.23.58a1.71,1.71,0,0,0-.17.41.82.82,0,0,0,.15.42,1.3,1.3,0,0,0,.5.25,3.88,3.88,0,0,0,.41,0c.12,0,.41,0,.48.08s0,.29,0,.38a3.12,3.12,0,0,1-.12.35c0,.11-.19.32-.19.44A1,1,0,0,0,31,35a.85.85,0,0,0,.29.24,1.66,1.66,0,0,0,.36,0c.09,0,.28,0,.35,0a.73.73,0,0,1,.13.41,1.88,1.88,0,0,1-.13.65,3,3,0,0,1-.46.6c-.25.26-.88.64-1.12.9a2.31,2.31,0,0,0-.48.72,2.38,2.38,0,0,0,.13,1c.05.14.26.38.33.52a2.23,2.23,0,0,1,.21.65c0,.18-.17.5-.2.68s.08.74,0,1a1.8,1.8,0,0,1-.29.6,1.64,1.64,0,0,1-.52.36,3.21,3.21,0,0,1-1,.05,3.71,3.71,0,0,1-.72-.17c-.24-.09-.66-.38-.89-.47a3.19,3.19,0,0,0-.75-.15,3.57,3.57,0,0,0-1,.17c-.22.09-.59.42-.81.51a3,3,0,0,1-.59.15,1.66,1.66,0,0,1-.5,0,.71.71,0,0,1-.32-.2.83.83,0,0,1-.09-.5c0-.16.37-.34.42-.49s-.06-.57,0-.75.4-.45.49-.62a7,7,0,0,0,.25-.74,3.8,3.8,0,0,1,.24-.61c.12-.18.48-.42.61-.59a2,2,0,0,0,.42-.69c0-.1,0-.34-.12-.39s-.27,0-.35.1a1.73,1.73,0,0,0-.38.45c-.07.11-.13.37-.18.48a3.12,3.12,0,0,1-.35.53,1.59,1.59,0,0,1-.42.32,1.82,1.82,0,0,1-.65.05c-.12,0-.32-.15-.44-.15a.65.65,0,0,0-.35.1.49.49,0,0,0-.12.33c0,.08.17.2.24.25s.29.1.36.17a1.12,1.12,0,0,1,.17.53,2,2,0,0,1-.19.67,6.06,6.06,0,0,1-.65.87,6.52,6.52,0,0,1-.7.75,2.75,2.75,0,0,1-.78.45,2.49,2.49,0,0,1-.81,0c-.24-.05-.68-.28-.92-.36a5.87,5.87,0,0,0-.79-.26c-.13,0-.42.07-.53,0s-.1-.21-.12-.28a3.88,3.88,0,0,1-.13-.68A4.78,4.78,0,0,1,17.24,41c0-.15.26-.4.29-.55a1.77,1.77,0,0,0,0-.68,3.09,3.09,0,0,0-.33-.51c-.06-.09-.22-.24-.23-.35s.14-.34.14-.46a1.38,1.38,0,0,0-.14-.67c-.08-.11-.39-.18-.49-.28a2.2,2.2,0,0,1-.3-.44c-.07-.13-.15-.41-.23-.54a4.71,4.71,0,0,0-.61-.62,4,4,0,0,1-.58-.45,2.49,2.49,0,0,1-.23-.73l.68-.73a2.17,2.17,0,0,1,.39-.07.71.71,0,0,1,.24.08c.09.06.2.28.3.32s.25-.06.34-.08a4.91,4.91,0,0,1,.52-.12c.13,0,.42.12.53,0s.07-.33.13-.42a.86.86,0,0,1,.27-.24,1.71,1.71,0,0,1,.46-.07c.16,0,.49,0,.65,0a.72.72,0,0,0,.31-.05.84.84,0,0,0,.14-.37,4.35,4.35,0,0,0,0-.69c0-.39-.07-1.18-.1-1.57s-.09-1.11-.15-1.47c0-.2,0-.69-.18-.77s-.29.17-.4.19a5.38,5.38,0,0,1-1.22-.22v.51l-1.45.3-.2-.76,1.29-1a1.87,1.87,0,0,0,.1-.26,1.26,1.26,0,0,0,0-.51.66.66,0,0,0-.25-.26,1.5,1.5,0,0,0-.64,0,1.42,1.42,0,0,0-.5.2,2.32,2.32,0,0,0-.23.34c0,.06-.12.2-.19.21s-.35-.21-.47-.26l-.36-.12a2.28,2.28,0,0,1-.58-.3,1,1,0,0,1-.17-.35c0-.11.06-.34,0-.45a.71.71,0,0,0-.24-.3.63.63,0,0,0-.32,0,3.33,3.33,0,0,0-.45.23,1.53,1.53,0,0,1-.49.15.72.72,0,0,1-.38-.17,3,3,0,0,1-.25-.94c-.05-.21-.17-.63-.21-.85a1.45,1.45,0,0,1,0-.54c0-.07.18-.16.23-.22a1,1,0,0,0,.22-.29,1,1,0,0,0-.08-.51,1,1,0,0,0-.28-.29c-.12-.07-.42,0-.52-.13a.85.85,0,0,1-.16-.33,1,1,0,0,1-.06-.49c0-.06.16-.14.22-.17s.23-.06.28-.11a1.11,1.11,0,0,0,.17-.36c0-.08,0-.26.08-.32s.27,0,.34-.05a.71.71,0,0,0,.21-.38.82.82,0,0,0-.13-.45c-.06-.08-.28-.12-.36-.19a1.2,1.2,0,0,1-.27-.33,2.69,2.69,0,0,1,0-.28c0-.08,0-.25-.11-.29s-.31,0-.41,0-.33.13-.45.1a.78.78,0,0,1-.3-.25,2.73,2.73,0,0,1-.21-.49c0-.11-.19-.32-.15-.42s.14-.08.18-.11a1.47,1.47,0,0,0,.28-.16.63.63,0,0,0,.15-.32A.66.66,0,0,0,10,16a1.48,1.48,0,0,0-.85,0,1.38,1.38,0,0,0-.52.33,2.23,2.23,0,0,0-.15.44,1.52,1.52,0,0,1-.15.35.86.86,0,0,1-.38.24.49.49,0,0,1-.29-.09,1,1,0,0,1-.16-.41c0-.11,0-.35,0-.45a.86.86,0,0,0-.39-.25,4.4,4.4,0,0,0-1.06,0c-.31,0-.92.06-1.23.1s-.66.16-.88.17a1.34,1.34,0,0,1-.5-.05A.94.94,0,0,1,3.12,16,4.15,4.15,0,0,1,3,15.19c-.06-.3-.18-.91-.22-1.22a1.7,1.7,0,0,1-.05-.61c0-.12.27-.26.37-.34s.4-.26.51-.37a1.23,1.23,0,0,0,.24-.36,2.08,2.08,0,0,0,0-.73c0-.13-.08-.42-.2-.49s-.68.17-.9.15a2.57,2.57,0,0,1-.41-.12L1.46,7.85l-1-.48L.21,6l.67-.41L.13,4.32s0-.39.08-.46S.66,4,.82,4a1.23,1.23,0,0,0,.34,0c.1,0,.28-.16.38-.18a2,2,0,0,1,.32,0c.14,0,.45.07.55,0s.07-.28.1-.37a1.31,1.31,0,0,0,.09-.3c0-.1-.18-.27-.15-.37a.24.24,0,0,1,.08-.1h0a2.39,2.39,0,0,1,.31-.19,2.31,2.31,0,0,1,.48-.24,4.27,4.27,0,0,1,1,0,3.27,3.27,0,0,1,.84.14,3.89,3.89,0,0,1,.67.53l.32.29.39-.88.75-.05,1.08-.48,3.37,0,.66.46,2-1a1.5,1.5,0,0,1,.11-.58s.16,0,.21-.07,0-.15.09-.17.55,0,.73,0,.14-.18.21-.16.29.6.29.6L17.38.58,18,1.3l-.27.52L18.7,3l2.77-.15-.24.48.5.41,1.45-.1,0,.41-.39.82.81,0,1-.55V3.91l.52-.34.58.54.47-.16.59.49.83-.05.7,1.08-1.07.42.42,1.58,1,.89.51-.13.09.53.66,1-.13.28.38.3-.6.34-.1,1.2-.51.62,1.91,0,.24-.28,0-.62,2.43-.38.66,1.33-.05.62.28.35,1-.22.62-.94.88-.63.83-.1L38.3,13l2.6-1.12,1.21.51Z"/></g></g></svg>