<svg xmlns="http://www.w3.org/2000/svg" viewBox="0 0 43.64 35.13"><defs><style>.cls-1{fill:#f5f5f5;stroke:#ccc;stroke-miterlimit:10;stroke-width:0.25px;}</style></defs><title>uzhgorod</title><g id="Слой_2" data-name="Слой 2"><g id="Layer_1" data-name="Layer 1"><path class="cls-1" d="M43.32,30.9a1.45,1.45,0,0,1,.19.6,1.89,1.89,0,0,1-.25.61c-.09.16-.38.41-.44.58a3.56,3.56,0,0,0,0,.77c0,.17,0,.59,0,.83a6.23,6.23,0,0,0-1-.22l-1-.19a3.13,3.13,0,0,0-.61-.13,1.49,1.49,0,0,0-.42.16c-.2.1-.55.38-.74.49a6.12,6.12,0,0,1-.87.48,3.34,3.34,0,0,1-.75.12,10.8,10.8,0,0,1-1.25-.15,7.94,7.94,0,0,1-1-.16,2,2,0,0,1-.55-.26c-.13-.12-.26-.48-.39-.6A5.12,5.12,0,0,0,33,33.3,10.82,10.82,0,0,0,32,33a4.77,4.77,0,0,0-1-.17c-.3,0-.85.31-1.15.32a2.72,2.72,0,0,1-.86-.17,5.72,5.72,0,0,1-.61-.42,9.06,9.06,0,0,0-.89-.57,7.62,7.62,0,0,0-.91-.28c-.26-.07-.79-.16-1-.25s-.77-.4-1-.48a2.81,2.81,0,0,0-.75-.12c-.18,0-.51.19-.68.22a3,3,0,0,1-.87,0,3.45,3.45,0,0,1-.7-.35,6.69,6.69,0,0,1-.93-.57,3.86,3.86,0,0,1-.52-.67,4.58,4.58,0,0,1-.36-.79c-.05-.17,0-.52-.12-.68a1.7,1.7,0,0,0-.45-.54,3.34,3.34,0,0,0-1-.29,2.78,2.78,0,0,0-.73,0,1.93,1.93,0,0,0-.6.28,4.6,4.6,0,0,0-.52.7,7.91,7.91,0,0,1-.6.8,2.44,2.44,0,0,1-.57.38,3.72,3.72,0,0,1-.7.12,2.55,2.55,0,0,1-.78.06c-.13,0-.28-.29-.41-.33a.82.82,0,0,0-.46,0,1.15,1.15,0,0,0-.32.39,1.29,1.29,0,0,0-.12.32c0,.12,0,.36,0,.48a1.47,1.47,0,0,1-.26.36c-.09.1-.25.35-.38.36s-.19-.09-.23-.14a2.89,2.89,0,0,1-.17-.62c-.06-.17-.29-.49-.28-.67s.25-.4.35-.52.38-.41.48-.57a1.93,1.93,0,0,0,.28-.67,1.66,1.66,0,0,0-.19-.55,2.81,2.81,0,0,0-.36-.58,2.56,2.56,0,0,0-.65-.44,5.39,5.39,0,0,0-.94-.19,9.76,9.76,0,0,0-1.09-.12,6,6,0,0,0-.8.09c-.15,0-.45.2-.59.16S7.1,26,7,25.92a2.28,2.28,0,0,1-.17-.58c0-.24,0-.73-.09-1a8.18,8.18,0,0,0-.22-.81,5,5,0,0,0-.28-.73,1.63,1.63,0,0,0-.35-.44,2.25,2.25,0,0,0-.65-.2c-.23,0-.69,0-.91-.07A2.8,2.8,0,0,1,3.73,22a1.4,1.4,0,0,1-.38-.3,1.12,1.12,0,0,1-.16-.33c-.05-.23,0-.71,0-.94A3.33,3.33,0,0,0,3,19.68a2.59,2.59,0,0,0-.31-.44c-.07-.08-.28-.19-.33-.29a1.85,1.85,0,0,1,0-.43A2.78,2.78,0,0,0,2.18,18a2.32,2.32,0,0,0-.31-.47,3.92,3.92,0,0,0-.41-.35,1.71,1.71,0,0,0-.34-.25c-.12,0-.39,0-.5,0a1.08,1.08,0,0,1-.42-.37A1.28,1.28,0,0,1,.13,16a4.74,4.74,0,0,1,.24-.78c.08-.23.26-.68.34-.9s.27-1.07.42-1.41a10.15,10.15,0,0,1,1-1.45,12.27,12.27,0,0,1,1.1-1.16c.26-.23.87-.56,1.11-.81a9.21,9.21,0,0,0,.88-1.34,6.44,6.44,0,0,0,.54-1.06,7.86,7.86,0,0,0,.1-1.19,5.83,5.83,0,0,1,.07-1.06,2.88,2.88,0,0,1,.39-.6c.2-.26.65-.76.88-1s.63-.6.86-.79S8.62,2.1,8.8,2s.5-.32.58-.49a1.44,1.44,0,0,0,0-.72c0-.08-.15-.22-.17-.31s0-.22,0-.27.33,0,.45,0a2,2,0,0,1,.47.06,4.86,4.86,0,0,1,.61.41c.21.13.63.4.85.51a4.44,4.44,0,0,0,.83.33c.2,0,.61,0,.81,0a4.55,4.55,0,0,1,.62.33,2.86,2.86,0,0,0,.49.23l.24,0L16.34,4l-1.18.62.25,1.14.94,1.13.59,1.9,2-.46,1.58,2.06,1.18,0,1.19.65.79,1.17L26,12.6l.19-.59.39.3c.12.1.35.33.47.44a2.91,2.91,0,0,1,.32.32c.1.15.18.51.26.67a5.77,5.77,0,0,0,.45.68,1.09,1.09,0,0,0,.26.28,2,2,0,0,0,.6,0c.18,0,.53,0,.71,0s.51-.05.61.06,0,.32,0,.42,0,.39,0,.52,0,.53,0,.71a2.26,2.26,0,0,0,0,.51,1.15,1.15,0,0,0,.23.38,3.69,3.69,0,0,0,.74.41c.17.08.52.2.68.29s.34.19.39.3a1,1,0,0,1,0,.44c0,.13-.11.39-.13.52a2.15,2.15,0,0,0-.07.87.54.54,0,0,0,.3.25.7.7,0,0,0,.36-.17,2.68,2.68,0,0,0,.32-.45c.05-.08.13-.25.2-.31a.74.74,0,0,1,.29-.06,4.4,4.4,0,0,0,.52.06,4.4,4.4,0,0,0,.58-.35,3.4,3.4,0,0,1,.55-.17,1.76,1.76,0,0,1,.52,0,.93.93,0,0,1,.44.23c.09.13.07.46.1.61a2.88,2.88,0,0,1,.14.47,1.37,1.37,0,0,1-.14.46c-.07.14-.34.36-.39.51a1.06,1.06,0,0,0,0,.39,4.94,4.94,0,0,0,.2.58,3.91,3.91,0,0,0,.28.78,3,3,0,0,0,.84.64,2.37,2.37,0,0,0,.74.2.93.93,0,0,0,.45-.1c.08-.06.1-.28.17-.35A2.11,2.11,0,0,1,39.1,23c.08,0,.25-.12.33-.09s.19.35.26.46.28.41.38.54.41.5.52.68a6.25,6.25,0,0,1,.36.68c.12.28.3.86.39,1.15s.17.53.22.71a2.17,2.17,0,0,1,.13.64,2.3,2.3,0,0,1-.29.52c-.07.13-.23.4-.29.54s-.12.25-.09.33.21.17.29.22.47.17.61.26a8.54,8.54,0,0,1,.9.74A3.23,3.23,0,0,1,43.32,30.9Z"/></g></g></svg>