<svg xmlns="http://www.w3.org/2000/svg" viewBox="0 0 54.85 51.49"><defs><style>.cls-1{fill:#f5f5f5;stroke:#ccc;stroke-miterlimit:10;stroke-width:0.25px;}</style></defs><title>zaporozhye</title><g id="Слой_2" data-name="Слой 2"><g id="Layer_1" data-name="Layer 1"><path class="cls-1" d="M54.69,16.64a1,1,0,0,1,0,.47,7.28,7.28,0,0,1-.21.88,6,6,0,0,0-.26.88c0,.12.1.35.09.47a1.06,1.06,0,0,1-.18.47c-.07.08-.28.23-.38.18s-.09-.27-.13-.36a2.22,2.22,0,0,0-.34-.47A.89.89,0,0,0,53,19a.54.54,0,0,0-.35.1c-.09.11-.08.42-.08.57s.11.58.12.77a1.14,1.14,0,0,1,0,.39,1,1,0,0,1-.32.32,4,4,0,0,1-1,.26,1.89,1.89,0,0,1-.66.08c-.07,0-.15-.16-.22-.19a3.7,3.7,0,0,0-.49,0,1.33,1.33,0,0,1-.3-.1c-.12-.06-.28-.32-.41-.35a.72.72,0,0,0-.53.19.79.79,0,0,0,0,.53c0,.08.16.18.2.25s.2.57.28.76.34.75.46,1c0,.09.16.25.16.35a.47.47,0,0,1-.14.3c-.21.13-.87-.23-1,0s.1.26.15.34a4.06,4.06,0,0,0,.55.69c.16.14.54.33.71.46a3.2,3.2,0,0,1,.67.53,1.74,1.74,0,0,1,.22.77,2,2,0,0,1-.16.45l.67.7.88-.27L53,27.4l.57.57.21,1.38,0,.93-.92.53-.85-.36-.83,1L52,32.71a8.76,8.76,0,0,0-1.22.5,7,7,0,0,0-1.35,1.12,7.32,7.32,0,0,0-.8,1.43A6.09,6.09,0,0,0,48.27,37c0,.24.07.73.05,1a1.74,1.74,0,0,1-.14.63,2.09,2.09,0,0,1-.54.38c-.13.08-.39.29-.54.28s-.23-.07-.23-.14.43-.26.56-.37a2.47,2.47,0,0,0,.42-.52,2.4,2.4,0,0,0,.17-.65,2.52,2.52,0,0,0,0-.75,2.63,2.63,0,0,0-.5-.86,3.1,3.1,0,0,0-1-.52,4,4,0,0,0-1.06-.05,9.61,9.61,0,0,0-1.51.34c-.47.14-1.36.54-1.81.73s-.93.37-1.23.51a5.24,5.24,0,0,0-1,.53,3.93,3.93,0,0,0-.58.83,10.67,10.67,0,0,0-.48,1.19c-.06.16-.15.48-.2.64s-.23.77-.32,1a7,7,0,0,1-.36,1,4.44,4.44,0,0,1-.77.86,5.87,5.87,0,0,1-1,.62,1.26,1.26,0,0,1-.52.15.4.4,0,0,1-.22-.17.64.64,0,0,1,.05-.35,1.48,1.48,0,0,1,.35-.43,3.58,3.58,0,0,1,.6-.24,4.85,4.85,0,0,0,.5-.22,4.75,4.75,0,0,0,.66-.53,3.9,3.9,0,0,0,.52-.65,4.07,4.07,0,0,0,.23-.7c0-.15.09-.45.12-.6s.1-.33.11-.45,0-.18,0-.2-.15.13-.2.19a3.43,3.43,0,0,1-.25.38.5.5,0,0,1-.27.12c-.08,0-.21-.15-.26-.22s-.14-.39-.22-.5a1.63,1.63,0,0,0-.41-.37,1.73,1.73,0,0,0-.55-.13,4.92,4.92,0,0,0-.85.12L34.9,39c-.18,0-.53.18-.71.22s-.84.05-1.12.09-.79.14-1.06.17-.77,0-1,.09a3.37,3.37,0,0,0-.77.31,4.89,4.89,0,0,0-.53.5l-.54.54c-.39.37-1.22,1.07-1.61,1.44s-1.45,1.42-2,1.86c-.21.17-.64.49-.86.65a4.82,4.82,0,0,1-.51.38,1,1,0,0,1-.46.14.55.55,0,0,1-.33-.24c0-.11.08-.35.13-.46s.22-.21.21-.29a.34.34,0,0,0-.26-.19c-.12,0-.29.21-.37.3s-.1.29-.19.34a.55.55,0,0,1-.37,0,2.09,2.09,0,0,1-.59-.65,3.37,3.37,0,0,1-.38-.94c0-.19.09-.57.05-.75a5.22,5.22,0,0,0-.26-.52,2.09,2.09,0,0,1-.09-.37,7,7,0,0,0,0-.74,3.54,3.54,0,0,0-.23-.39c0-.11-.09-.35-.14-.46a1.47,1.47,0,0,0-.23-.33c-.05,0-.18-.16-.25-.14s-.2.22-.24.32a2,2,0,0,0-.05.68c0,.16.14.46.15.62s-.11.56-.11.75a5.58,5.58,0,0,0,.14.95c.06.28.29.8.35,1.08s0,.77.07,1a8.45,8.45,0,0,0,.34.94,2.84,2.84,0,0,0,.26.67.72.72,0,0,0,.3.18.77.77,0,0,0,.41-.08c.07,0,.13-.2.17-.26s.17-.24.24-.32.12-.17.18-.19a.26.26,0,0,1,.21.1c0,.1-.11.3-.16.39s-.22.26-.29.35a7.72,7.72,0,0,0-.51.71c-.15.26-.34.83-.47,1.1s-.37.79-.52,1-.27.38-.35.51-.22.42-.28.57-.15.41-.21.54l0,0-.33-.2a3.14,3.14,0,0,0,.3-.31,4.23,4.23,0,0,0,.29-.52c.08-.17.21-.53.29-.7s.24-.43.33-.57a1.94,1.94,0,0,0,.23-.37.55.55,0,0,0,0-.34.48.48,0,0,0-.25-.1c-.11,0-.34.06-.46,0a1.06,1.06,0,0,1-.47-.16.81.81,0,0,1-.16-.4,1.74,1.74,0,0,1,.14-.54c0-.11.2-.3.23-.41a1.32,1.32,0,0,0,0-.58.74.74,0,0,0-.27-.32c-.07,0-.23,0-.3,0a1.15,1.15,0,0,1-.43-.12,1.6,1.6,0,0,1-.21-.39,2.2,2.2,0,0,0-.23-.42.58.58,0,0,0-.28-.15.73.73,0,0,0-.4.21.83.83,0,0,0-.15.51c0,.12.26.28.35.37a2.69,2.69,0,0,1,.45.52,1.61,1.61,0,0,1,0,.65,1.91,1.91,0,0,1-.21.51,2.2,2.2,0,0,1-.51.56.69.69,0,0,1-.35.09.83.83,0,0,1-.42-.32,1.42,1.42,0,0,1,0-.52,2.23,2.23,0,0,0,.05-.54.49.49,0,0,0-.22-.26.39.39,0,0,0-.27.11,1.34,1.34,0,0,0-.15.55,10.4,10.4,0,0,0,0,1c0,.15-.12.51,0,.6s.2-.07.26-.1.18-.15.24-.12,0,.22,0,.3a2.55,2.55,0,0,1-.08.52,2.13,2.13,0,0,1-.3.53l-.19.16a1.72,1.72,0,0,1-.49-.15,1.68,1.68,0,0,1-.33-.47,2.29,2.29,0,0,1-.24-.6.91.91,0,0,1,.08-.45c.06-.09.33-.14.37-.24s-.12-.59-.16-.78-.19-1-.28-1.27a2.64,2.64,0,0,0-.2-.49,2.71,2.71,0,0,0-.52-.54,3.88,3.88,0,0,0-.73-.35c-.19-.07-.61-.11-.8-.21a1.07,1.07,0,0,1-.32-.27,8.27,8.27,0,0,1-.2-.82c0-.1-.13-.3-.23-.35a.79.79,0,0,0-.4,0c-.17,0-.47.27-.64.32a1,1,0,0,1-.44,0c-.11,0-.26-.26-.34-.36s-.26-.39-.36-.5-.25-.34-.37-.33-.09.18-.14.22a.45.45,0,0,1-.29.05c-.08,0-.17-.2-.21-.28A.89.89,0,0,1,9.33,42a.6.6,0,0,1,.09-.2c.06-.08.23-.19.29-.26a1.12,1.12,0,0,0,.23-.29,1.7,1.7,0,0,0,0-.55,2,2,0,0,0-.09-.37.65.65,0,0,0-.15-.24A1.15,1.15,0,0,0,9.24,40c-.1,0-.32.07-.41,0s-.13-.16-.17-.21,0-.16-.09-.19-.25,0-.33,0-.15.11-.2.09-.07-.18-.09-.25a2.26,2.26,0,0,1,0-.36c0-.08,0-.25,0-.31s.28-.08.37-.1l.54-.12c.12,0,.38-.06.5-.1s.25-.07.29-.13,0-.16,0-.21-.16-.26-.11-.33.25,0,.34,0,.22,0,.25-.06,0-.21,0-.28-.12-.29-.14-.38,0-.28,0-.37-.14-.31-.1-.4.16-.13.22-.16a2.24,2.24,0,0,1,.31-.08c.09,0,.33,0,.37-.1s-.07-.2-.1-.26a3.77,3.77,0,0,0-.27-.43c-.07-.09-.23-.23-.29-.32s-.15-.21-.1-.26.28.06.35,0a.17.17,0,0,0,0-.13c0-.12-.25-.28-.33-.37s-.3-.34-.4-.46-.23-.35-.31-.46S9.15,33,9.07,33s-.3,0-.4,0a1.18,1.18,0,0,1-.3-.07,4.35,4.35,0,0,1-.58-.49c-.13-.11-.42-.32-.54-.45A2.34,2.34,0,0,1,7,31.65c0-.09-.1-.29-.16-.37s-.21-.15-.25-.22a3,3,0,0,1-.28-.65c-.07-.21-.15-.63-.21-.84a1.82,1.82,0,0,0-.2-.57c-.08-.09-.35-.12-.45-.19a2.14,2.14,0,0,1-.26-.42L4.55,25l.83-.25,0-.68-.83-.19,0-1.07-.75,0-.13,1-2.16.12L.29,21.59l.57-.7-.61-.71a2.62,2.62,0,0,0,.52-.09,3,3,0,0,0,.86-.49,5.19,5.19,0,0,0,.44-.7,2.8,2.8,0,0,1,.41-.58A1.72,1.72,0,0,1,3,18.14a3.52,3.52,0,0,1,.51,0c.14,0,.41,0,.55,0a2.44,2.44,0,0,0,.6-.09,4.94,4.94,0,0,0,.64-.44,8.4,8.4,0,0,1,.8-.51,3.61,3.61,0,0,1,.9-.28,1.66,1.66,0,0,1,.7.1c.12.06.25.31.35.41a1.88,1.88,0,0,0,.35.28,3.74,3.74,0,0,0,.48.1,2.62,2.62,0,0,1,.6.2,6.29,6.29,0,0,1,.49.58,3.15,3.15,0,0,0,.54.41c.16.08.52.12.68.2a2.74,2.74,0,0,1,.48.36c.14.14.35.49.51.62a2,2,0,0,0,.63.35,1.47,1.47,0,0,0,.54,0,3.21,3.21,0,0,0,.67-.36c.19-.13.49-.5.7-.61a3.6,3.6,0,0,1,.92-.26c.24,0,.72,0,1,0a5.62,5.62,0,0,0,1.09-.1,4,4,0,0,0,1-.58,3.05,3.05,0,0,0,.73-.86,2.31,2.31,0,0,0,0-.73,3.89,3.89,0,0,0-.15-1c-.08-.21-.43-.52-.52-.73a3,3,0,0,1-.15-.57,2.39,2.39,0,0,1-.06-.65,1.25,1.25,0,0,1,.19-.35c.07-.1.28-.26.35-.36a.9.9,0,0,0,.16-.3.41.41,0,0,0-.09-.28.47.47,0,0,0-.34,0c-.07,0-.15.16-.2.22s-.18.22-.26.26a.74.74,0,0,1-.35,0,1.2,1.2,0,0,1-.51-.29.83.83,0,0,1-.09-.3c0-.17.11-.55,0-.68a.53.53,0,0,0-.36-.07,1.11,1.11,0,0,0-.38.19,1.68,1.68,0,0,0-.35.38,4.68,4.68,0,0,0-.22.7,4,4,0,0,1-.2.58,3.39,3.39,0,0,1-.38.44c-.09.1-.29.28-.38.38s-.39.61-.57.77a7,7,0,0,1-.93.55,8.37,8.37,0,0,1-.75.45l-.43-.24a2.09,2.09,0,0,1-.51-.33.9.9,0,0,1-.12-.48c0-.17.26-.43.32-.58a2.44,2.44,0,0,0,.14-.71,3.12,3.12,0,0,0-.16-.51c0-.09-.12-.26-.1-.35a.51.51,0,0,1,.18-.22c.09-.06.33-.05.42-.12a.75.75,0,0,0,.2-.33,2.36,2.36,0,0,0-.09-.74,1.74,1.74,0,0,0-.22-.67c-.09-.09-.37-.09-.48-.15a1,1,0,0,1-.28-.26,1.69,1.69,0,0,1-.09-.52,1.54,1.54,0,0,1,0-.65c0-.06.18-.11.24-.15s.18-.15.2-.22A.79.79,0,0,0,12,8.61a1.79,1.79,0,0,0-.65-.39,1,1,0,0,0-.33,0c-.12,0-.33.2-.46.2a1,1,0,0,1-.46-.2A1.6,1.6,0,0,1,10,7.91l0-2.39,1.46.56a2.15,2.15,0,0,0,.1-.33,1.56,1.56,0,0,0,0-.59c-.06-.13-.33-.31-.38-.44s0-.41,0-.54-.21-.23-.28-.31a1.83,1.83,0,0,1-.26-.3,2.92,2.92,0,0,1-.1-.62L10.37.61l.54-.09L11.52,2l2.09-.44a6.42,6.42,0,0,0,.22.72,6.14,6.14,0,0,0,.54,1.13c.14.2.6.45.7.68a1.8,1.8,0,0,1,0,.68c0,.23-.21.68-.22.92A4.15,4.15,0,0,0,15,6.88a7.36,7.36,0,0,0,.41.63c.06.11.09.4.2.46A.38.38,0,0,0,16,7.9c.11-.12.08-.49.07-.65s-.19-.57-.22-.76a2.09,2.09,0,0,1,0-.61c0-.13.23-.33.26-.46A3.13,3.13,0,0,0,16,4.29c-.06-.22-.35-.59-.41-.81a8.9,8.9,0,0,0-.11-.89c-.07-.16-.39-.35-.48-.5a1,1,0,0,1-.15-.57c.07-.21.5-.43.7-.54a4.42,4.42,0,0,1,1-.41,4.92,4.92,0,0,1,1,0c.18,0,.52.13.7.13a1.21,1.21,0,0,0,.59-.13A.6.6,0,0,0,19,.38l2.43.95,1.29.93L25.84.19l.46,1.25,1.44-.35.09.9L30,1.64l.25,1.1,2-.77.26,1.13-.61.45,1.45.94.7.9-.57,1.25-1-.06.29,1.18,4-.13V8.4l.48-.09.34-.74,3,.1.11-.56h1.83l.65.34-1.23.39,1.74,1,.72,1.09v1.5l1.47-.07-.09.34-.82.22.54,1.41,1.65-.47,1,1.5s.15.35.26.39a.39.39,0,0,0,.25-.08c.07-.05.14-.23.21-.28a.68.68,0,0,1,.33-.12.86.86,0,0,1,.31.16c.1.07.27.24.36.32a3,3,0,0,0,.42.3,1.08,1.08,0,0,0,.36.1c.09,0,.24-.11.33-.1a.59.59,0,0,1,.21.15c.12.12.31.42.42.54s.66.66.89.87.36.43.53.43.18-.1.23-.15.14-.28.23-.33a1.34,1.34,0,0,1,.44,0,2.62,2.62,0,0,1,.5,0A.61.61,0,0,1,54.69,16.64Z"/></g></g></svg>