<svg xmlns="http://www.w3.org/2000/svg" viewBox="0 0 58.4 48.4"><defs><style>.cls-1{fill:#f2c90c;stroke:#f2c90c;stroke-miterlimit:10;stroke-width:0.25px;}</style></defs><title>cherkassy</title><g id="Слой_2" data-name="Слой 2"><g id="Layer_1" data-name="Layer 1"><path class="cls-1" d="M47.62,3.06l-.25,0-.18,1.65.38.48,1.28.06.38.56-.11,1.81.73.29L50,9.37l-.82.68,1.78,2.46.43-.24,1.27,1.07,0,.62-.17.31.24.54.94.27,1.38.28-.06.82-.05,0a.57.57,0,0,0-.35,0,1.28,1.28,0,0,0-.38.39,2.63,2.63,0,0,0-.29.6,1.66,1.66,0,0,0-.09.75c0,.12.3.24.36.35a2.21,2.21,0,0,1,.2.64,3,3,0,0,1,0,.83c0,.14-.19.38-.23.52a3.93,3.93,0,0,0-.1.83,2.86,2.86,0,0,0,.13.88,3.08,3.08,0,0,0,.52.6c.13.13.49.32.55.49a.89.89,0,0,1-.07.45,1,1,0,0,1-.22.33,2,2,0,0,1-.74.22,2.3,2.3,0,0,1-.8,0,6,6,0,0,1-.83-.64c-.3-.2-1-.52-1.26-.73s-1.05-.91-1.41-1.21-.7-.6-.94-.78A4.78,4.78,0,0,0,48,20,5.87,5.87,0,0,0,47,19.94a6,6,0,0,1-.91-.07,3.81,3.81,0,0,1-.91-.46c-.21-.16-.53-.61-.74-.77a13.38,13.38,0,0,0-1.32-.68c-.38-.21-1.13-.65-1.53-.84a9.33,9.33,0,0,0-1.25-.55,6.43,6.43,0,0,0-1.16-.15,6,6,0,0,0-.86.06c-.14,0-.49,0-.57.15s.05.37.1.48a2.25,2.25,0,0,0,.44.61,5.55,5.55,0,0,0,1,.49l.75.32c.25.12.75.36,1,.49s.85.52,1.12.71a15.21,15.21,0,0,1,1.21,1c.21.2.6.64.79.86s.76,1,1,1.32a11,11,0,0,0,1,1,9.73,9.73,0,0,0,1.23.77c.36.18,1.13.46,1.51.61s.84.3,1.12.42,1.11.52,1.47.73,1.13.72,1.5,1,.69.48.91.65a15.28,15.28,0,0,1,1.37,1.21,10.87,10.87,0,0,1,.86,1.16c.1.16.21.56.36.68a1.08,1.08,0,0,0,.52.15,1.76,1.76,0,0,0,.38-.12l-.2,1.57,1,1.45-3,.27-.59-.79-.38.58-1.17-.09-.32-1-.38.53-.9.72-.85-2.46-.73.63-1-.72,0-.73-2.46.51L45.71,34l-1.1.48.25.27c.07.07.26.16.28.25s-.11.26-.16.34a.65.65,0,0,1-.17.21.79.79,0,0,1-.39,0c-.14,0-.37-.24-.51-.29a2.25,2.25,0,0,0-.56-.14,1.84,1.84,0,0,0-.66.1c-.11,0-.25.26-.36.32s-.3,0-.39.08a1.82,1.82,0,0,0-.45.3c-.09.1-.19.36-.28.46s-.25.27-.36.28-.19-.08-.24-.12a.49.49,0,0,1-.14-.17c0-.08.07-.24.08-.33a.72.72,0,0,0,0-.29c0-.08-.19-.17-.26-.22l-.45-.32L39.47,35c-.08-.06-.2-.21-.29-.24a1.18,1.18,0,0,0-.48,0,2.93,2.93,0,0,0-.48.22c-.17.1-.49.34-.67.44a2.27,2.27,0,0,1-.42.22.72.72,0,0,1-.36,0c-.08,0-.14-.25-.22-.3a1.32,1.32,0,0,0-.53,0,5.24,5.24,0,0,1-.58.12,1.57,1.57,0,0,1-.32-.11,1.43,1.43,0,0,0-.32-.12,1.49,1.49,0,0,0-.44.14,1.09,1.09,0,0,0-.3.15.81.81,0,0,0-.15.35,1.49,1.49,0,0,0,.09.41c0,.14.15.4.2.53s.15.46.18.62a5.14,5.14,0,0,1,.06.61,1.17,1.17,0,0,1,0,.36,1.39,1.39,0,0,1-.4.41,1.7,1.7,0,0,1-.42.19c-.16,0-.48,0-.64,0a1.71,1.71,0,0,0-.55.1.8.8,0,0,0-.2.28c0,.1,0,.34-.09.44a3.57,3.57,0,0,1-.85.62.62.62,0,0,1-.28-.07c-.12-.07-.29-.32-.41-.39a2.9,2.9,0,0,0-.77-.29,6.1,6.1,0,0,0-1.23,0c-.31,0-.93.16-1.24.23a8.34,8.34,0,0,1-.86.21,4.35,4.35,0,0,1-.5-.06,3.93,3.93,0,0,1-.48,0c-.2-.05-.56-.28-.76-.34a4.77,4.77,0,0,0-.87-.13c-.21,0-.63,0-.84.06a7.33,7.33,0,0,1-1.15.1,2.14,2.14,0,0,1-.45-.16c-.17-.08-.48-.31-.66-.37a3.73,3.73,0,0,0-1-.12,4.61,4.61,0,0,0-.85.17,5,5,0,0,0-.9.37c-.1.06-.32.2-.36.32a1.49,1.49,0,0,0,.08.62c0,.18.19.52.23.7a1.36,1.36,0,0,1,.07.58.45.45,0,0,1-.25.21c-.06,0-.16-.06-.22-.09a1.56,1.56,0,0,0-.26-.13.5.5,0,0,0-.28,0c-.12.09-.21.4-.27.53a1.64,1.64,0,0,0-.18.53,1.82,1.82,0,0,0,.33.62c.11.15.41.39.49.55a.54.54,0,0,1,.05.33c-.05.11-.31.21-.42.25a2.28,2.28,0,0,1-.71.08,2.82,2.82,0,0,1-.68-.22,6.94,6.94,0,0,1-.61-.4l-3.72,2.88L10,46.34,8.56,48.12l-.33-1.49-.3-.18-1.36.46-.07-.57.64-.51-.38-1.31v-1l-.41-.23L6,42.63,6,42,4.24,40.62l.84-.8L2.52,37.15,2.42,35,2,34.88l-1.34.77L.16,34.49l1.5-1-.28-1.1-.79.06V30.62l.86-.45,1-1.06-.83-2.19.68-.11.75,1.08,1.71.3.54-.54.13-1.25.39-.31.23-1.26,1.38-.65,1,.1.9-.22H11l-.05,1.6,2.61.61.25.49h1l.08-.33-.49-1.37.84-.48-.45-.87.48-.23,1.08,1.1.14-.22-.35-.56,1.82-.73.28,0,.46.37h.28l0-.2.35.05,1.13,1,1.61-.41L23.81,23,23.38,22l0-.5,1.55.07.15-.35-.32-.58,2-1.91.81-1.12L27.26,17l1.51-2.13-.23-.79,0-1.49-.35-.52L28.47,10l.45-.47L31,9l.11-1.68c.14-.12.32-.37.45-.46A1,1,0,0,1,32,6.67a1.1,1.1,0,0,1,.54.28A3,3,0,0,1,33,8.09a7.25,7.25,0,0,1-.09,1.57c0,.26-.14.78-.17,1a2.37,2.37,0,0,0-.09.72,1.08,1.08,0,0,0,.46.57,1.15,1.15,0,0,0,.81-.22,2.52,2.52,0,0,0,.35-.91,9.93,9.93,0,0,0,.26-1l.17-.14c.11-.11.27-.38.39-.48S35.4,9,35.51,9s.29.22.35.33a1.41,1.41,0,0,1,.05.47c0,.12-.09.36-.06.47a1.14,1.14,0,0,0,.2.26l1.86,0s.12-.31.15-.42,0-.31.07-.38.21-.06.28-.09.27-.08.31-.15-.07-.24-.07-.32a2.07,2.07,0,0,1,.15-.48,3.66,3.66,0,0,1,.27-.54,4.56,4.56,0,0,1,.33-.36l.56.05.34-1.58,1.93-.94-.43-.12L41,4.48l.08-.58.58-.57L42.82.68l.84.63.7-1.15.26.13v0l1.24,1.91,1.77.42Z"/></g></g></svg>