<svg xmlns="http://www.w3.org/2000/svg" viewBox="0 0 48.65 24.77"><defs><style>.cls-1{fill:#f2c90c;stroke:#f2c90c;stroke-miterlimit:10;stroke-width:0.25px;}</style></defs><title>chernovtsy</title><g id="Слой_2" data-name="Слой 2"><g id="Layer_1" data-name="Layer 1"><path class="cls-1" d="M28.82,5H29a2.45,2.45,0,0,1,.71.19,7,7,0,0,1,.77.67,3.26,3.26,0,0,0,.7.54,1.36,1.36,0,0,0,.67,0,2.08,2.08,0,0,0,.62-.55,4,4,0,0,0,.3-.65c0-.1.08-.35.16-.42s.62-.11.81-.17a2.51,2.51,0,0,0,.36-.16,4,4,0,0,1,.33-.25,2.65,2.65,0,0,1,.8-.1,2,2,0,0,1,.86.16c.11.08.16.4.25.51a1.16,1.16,0,0,0,.39.31A1.87,1.87,0,0,0,37.39,5a2.6,2.6,0,0,0,.46-.17c.12-.07.32-.29.45-.32a1.41,1.41,0,0,1,.67.15c.12.06.27.31.39.35s.36-.06.48-.06.39,0,.48.1,0,.36.07.44a.71.71,0,0,0,.49,0,1.41,1.41,0,0,0,.29-.2A3.23,3.23,0,0,1,41.68,5a3,3,0,0,1,.65-.06,2.71,2.71,0,0,1,.6,0c.18,0,.47.34.65.36A.82.82,0,0,0,44,5.15c.07-.06.13-.25.17-.33s.14-.31.23-.35.41.11.54.07.19-.18.28-.2a1.14,1.14,0,0,1,.45,0,4.75,4.75,0,0,1,.79.36A2.57,2.57,0,0,0,47,5a1.48,1.48,0,0,0,.29,0l0,.09a4.53,4.53,0,0,1,.22.57c0,.25-.07.77,0,1a4.27,4.27,0,0,0,.49,1c.08.13.31.4.45.56l0,0a10.16,10.16,0,0,1-.93.52,5.87,5.87,0,0,1-.62.31.79.79,0,0,1-.38.07c-.12,0-.22-.3-.31-.39a2.85,2.85,0,0,0-.42-.39,1.66,1.66,0,0,0-.61-.22,1.38,1.38,0,0,0-.51.17c-.16.09-.41.37-.55.48s-.63.4-.84.52a6.12,6.12,0,0,1-.87.46,1.77,1.77,0,0,1-.84.1c-.25-.09-.5-.61-.7-.79s-.51-.61-.73-.54S40,9,40,9.12a1.31,1.31,0,0,1-.16.42,1.57,1.57,0,0,1-.58.2c-.2,0-.62.05-.83.09s-.64.27-.84.19-.22-.33-.29-.44a3.35,3.35,0,0,0-.41-.65,2.68,2.68,0,0,0-.7-.26c-.19-.06-.58-.15-.77-.2s-.51-.24-.68-.22a.64.64,0,0,0-.3.2,1.18,1.18,0,0,0-.13.45,1.24,1.24,0,0,0,.06.52c.07.13.34.27.45.36s.44.36.58.49.3.21.3.32-.16.23-.23.29a1.16,1.16,0,0,1-.52.26A.75.75,0,0,1,34.6,11c-.16-.13-.37-.52-.55-.62a.74.74,0,0,0-.44-.09c-.13,0-.26.31-.35.41s-.34.21-.35.33.26.25.28.36a.81.81,0,0,1-.15.39,2.28,2.28,0,0,1-.45.42c-.13.09-.42.21-.55.29a7,7,0,0,0-.64.41,4.91,4.91,0,0,0-.42.42,2.62,2.62,0,0,1-.31.38,1,1,0,0,1-.45.15,2.12,2.12,0,0,1-.44-.2,2.31,2.31,0,0,0-.49-.16,1.21,1.21,0,0,0-.42.07,1.35,1.35,0,0,0-.3.23c-.07.07-.16.27-.25.33s-.6.14-.77.25a7.26,7.26,0,0,0-.57.58c-.14.12-.46.31-.59.44a11,11,0,0,0-1,1.09c-.19.25-.51.8-.7,1.06a5.5,5.5,0,0,1-.49.67,8.07,8.07,0,0,1-1,.67,4.08,4.08,0,0,1-.67.39,1.87,1.87,0,0,1-.62,0,4.82,4.82,0,0,1-.65-.25,4.48,4.48,0,0,0-.81-.26,5.46,5.46,0,0,0-1.2.17,10.24,10.24,0,0,1-1.15.33c-.24,0-.7-.19-.93-.16a7.23,7.23,0,0,0-.83.36,5.69,5.69,0,0,1-.87.16,6.56,6.56,0,0,1-1.09,0c-.19,0-.54-.19-.73-.2a4.85,4.85,0,0,0-.87.07c-.22,0-.64.16-.86.17a9.9,9.9,0,0,1-1.35-.06c-.3,0-.9-.17-1.21-.19a8.29,8.29,0,0,0-1.09,0,3.44,3.44,0,0,0-.64.13c-.15.06-.4.25-.54.32s-.39.17-.52.22-.37.08-.48.13a6.37,6.37,0,0,0-1,.77,7,7,0,0,0-.93.94,6.74,6.74,0,0,0-.48,1.12,4.82,4.82,0,0,0-.23.76c0,.12,0,.36,0,.48s0,.27,0,.32-.25,0-.33,0-.54-.18-.73-.23L1,24c-.21-.05-.61-.17-.88-.22.07-.2.17-.49.23-.62.12-.28.46-.79.57-1.07a7.79,7.79,0,0,0,.29-1.22,3.6,3.6,0,0,0,.06-1A6.25,6.25,0,0,0,.81,19a3.87,3.87,0,0,1-.23-.62,3.79,3.79,0,0,1-.06-.83,4.68,4.68,0,0,1,.22-.94c.14-.38.55-1.07.74-1.42a5.22,5.22,0,0,1,.61-1.12,1.48,1.48,0,0,1,.45-.2,4.42,4.42,0,0,0,.6-.1c.22-.12.5-.57.7-.73s.58-.34.76-.48a3.13,3.13,0,0,0,.49-.46c.13-.18.22-.64.36-.81a6.6,6.6,0,0,1,.68-.46,8.17,8.17,0,0,0,.65-.7c.21-.24.56-.77.78-1a12.91,12.91,0,0,1,1.37-1,10,10,0,0,1,1.58-1A3.29,3.29,0,0,1,11.6,7a4.21,4.21,0,0,1,.84.32,4.59,4.59,0,0,0,1,.45,1.18,1.18,0,0,0,.64-.2.93.93,0,0,0,.19-.48,4.6,4.6,0,0,0-.2-.7C14,6,14,5.39,14,5.06S14,4,14,3.66s-.18-.91-.2-1.22,0-.91,0-1.21c0-.13,0-.54,0-.54L15.12.15a3.5,3.5,0,0,0,.49.39,2.2,2.2,0,0,0,.67.26A5.12,5.12,0,0,0,17,.66a3,3,0,0,1,.9,0,1.68,1.68,0,0,1,.42.32,3.81,3.81,0,0,1,.41.43c.12.16.26.54.39.68a1.54,1.54,0,0,0,.48.35,1.35,1.35,0,0,0,.55,0,2.67,2.67,0,0,0,.52-.28c.15-.09.41-.31.57-.39a1.28,1.28,0,0,1,.33-.12,1.05,1.05,0,0,1,.38.06,1,1,0,0,1,.32.25,1.4,1.4,0,0,1,.13.6c0,.23-.31.67-.28.9a.89.89,0,0,0,.22.33,1.07,1.07,0,0,0,.39.29,1.37,1.37,0,0,0,.67-.19c.08,0,.18-.25.28-.28a.54.54,0,0,1,.29.07,2.17,2.17,0,0,1,.42.44,6,6,0,0,0,.36.55,2.81,2.81,0,0,0,.79.42,6.21,6.21,0,0,0,1.29.16c.28,0,.84-.06,1.12-.09S28.55,5,28.82,5Z"/></g></g></svg>