<svg xmlns="http://www.w3.org/2000/svg" viewBox="0 0 71.22 46.49"><defs><style>.cls-1{fill:#f2c90c;stroke:#f2c90c;stroke-miterlimit:10;stroke-width:0.25px;}</style></defs><title>dnepropetrovsk</title><g id="Слой_2" data-name="Слой 2"><g id="Layer_1" data-name="Layer 1"><path class="cls-1" d="M1.61,43.89l-.41-.1-.47-.16L.27,42,.13,40.11l1.57-1.2-.36-1.67L1.83,37v-.52l-.64-1s.14-.11.15-.17a.38.38,0,0,0-.11-.24A.73.73,0,0,0,.94,35H.68L.51,32.81l.23-1H.79c.08,0,.18-.14.25-.17s.6-.26.8-.35.62-.29.83-.37.66-.24.88-.3.31,0,.39-.09a.76.76,0,0,0,.16-.35,1.06,1.06,0,0,0,0-.29c0-.13-.13-.37-.16-.49a4,4,0,0,1-.21-.73.8.8,0,0,1,.08-.41.64.64,0,0,1,.39-.15.53.53,0,0,1,.26.13,1.83,1.83,0,0,1,.21.54c.05.16.09.51.16.66s.13.33.23.34.17-.19.22-.26l.21-.28a1.37,1.37,0,0,0,.23-.33c0-.11-.09-.33-.07-.44a.79.79,0,0,1,.24-.29A1.22,1.22,0,0,1,6.26,28,6.58,6.58,0,0,1,7,28c.15,0,.47.06.59,0s.05-.25.1-.32a1.23,1.23,0,0,1,.35-.3,4.54,4.54,0,0,1,.57-.16c.14,0,.51-.07.56-.21S9,26.73,9,26.64s.22-.29.33-.34.29,0,.37,0a.83.83,0,0,0,.28-.44c0-.18-.14-.54-.16-.72a7.51,7.51,0,0,0,0-.9,1.06,1.06,0,0,0-.24-.39,1.18,1.18,0,0,0-.33-.12s-.15,0-.19,0a.74.74,0,0,1-.17-.41A1.79,1.79,0,0,1,9,22.79a3.49,3.49,0,0,0,.23-.6A10.14,10.14,0,0,0,9,20.36c0-.26-.11-.78-.13-1a2.41,2.41,0,0,1,0-.61,2.48,2.48,0,0,1,.32-.49c.05-.08.2-.21.22-.31s-.11-.27-.1-.37a.65.65,0,0,1,.14-.33c.06-.06.24-.07.32-.11s.18-.16.26-.18a.81.81,0,0,1,.4,0,2.76,2.76,0,0,1,.53.5l1.87-1.23,1.75-1.79-.24-.21-.52,0L12.53,13,10.75,13l-.27-1.42a1.82,1.82,0,0,1,.33-.29,2.23,2.23,0,0,1,.3,0,.9.9,0,0,0,.28-.11c.07-.06.11-.25.19-.31s.33-.05.44-.09.32-.14.42-.19.18-.11.24-.09.17.3.18.42-.1.43,0,.55.3.26.3.26l2.42,0,.21-.34L15.26,9.6h.84l0-.76.42.29c.22.17.61.57.81.76a10.5,10.5,0,0,0,.84.81,8.45,8.45,0,0,0,.9.44c.19.09.56.3.75.38s.71.17.93.26a3,3,0,0,1,.67.35,10.2,10.2,0,0,1,.64.87c.18.21.59.57.79.75s.51.45.67.61.5.61.7.78a6.85,6.85,0,0,0,.78.55,4.18,4.18,0,0,1,.79.41c.19.21.21.85.41,1a1.6,1.6,0,0,0,.7.29,1.8,1.8,0,0,0,.84-.06c.11-.06.35-.28.32-.41s-.4-.16-.52-.23a1.82,1.82,0,0,1-.41-.34,7.21,7.21,0,0,1-.31-.73,7.14,7.14,0,0,0-.54-.78c-.26-.32-.87-.89-1.15-1.19s-.91-1.12-1.28-1.42a6.32,6.32,0,0,0-.78-.45,4,4,0,0,1,0-.7c0-.16.06-.57.22-.61s.19.21.27.25.3.17.38.11,0-.6.05-.79a7.39,7.39,0,0,0,.12-.79A.69.69,0,0,0,24.07,9c-.06-.11-.3-.22-.37-.33a2.07,2.07,0,0,1-.2-.58A6.45,6.45,0,0,1,23.45,7a3.13,3.13,0,0,1,.1-.74c.05-.13.28-.33.33-.47.13-.36-.14-1.23.1-1.52.08-.09.38-.05.47-.13.28-.24.27-1.22.61-1.36.55-.23,1.68,1,2.25.82.22-.07.38-.58.53-.74a4.35,4.35,0,0,1,.5-.39c.18-.13.57-.34.76-.46l.54-.35c.2-.12.61-.3.79-.44s.25-.27.35-.33.5-.14.65-.22.41-.29.56-.37a1.76,1.76,0,0,1,.57-.22,1.1,1.1,0,0,1,.52.19c.09.07.12.37.23.38s.21-.21.28-.27a1.31,1.31,0,0,1,.34-.26,1.06,1.06,0,0,1,.52.05c.12.05.28.29.4.35a1.51,1.51,0,0,0,.67.14,1.43,1.43,0,0,0,.34-.21l0,0a2.27,2.27,0,0,1,.44-.19.69.69,0,0,1,.28,0c.1,0,.21.25.3.27s.34-.08.46-.1A2.1,2.1,0,0,1,37.85.4a1.81,1.81,0,0,1,.64.25,1.47,1.47,0,0,1,.4.5c.06.16-.06.52,0,.68a1,1,0,0,0,.3.36,3.17,3.17,0,0,0,.56.16,4.71,4.71,0,0,1,.75.29,5.77,5.77,0,0,1,.61.58,7.74,7.74,0,0,0,.66.64c.27.18.9.38,1.18.54s.57.48.78.6a2,2,0,0,0,.51.21,7.25,7.25,0,0,0,1-.09,10,10,0,0,1,1.07,0c.27,0,.78.16,1,.22s.75.14,1,.21A4,4,0,0,0,49,5.8a4.51,4.51,0,0,0,1.19-.36,11.58,11.58,0,0,0,1.55-.72c.22-.13.57-.53.8-.64a6.45,6.45,0,0,1,.94-.26c.07,0,.22-.13.27-.08s-.06.21-.09.28-.18.35-.22.48a2.43,2.43,0,0,0-.1.7,1.1,1.1,0,0,0,.14.38,4.35,4.35,0,0,0,.42.35,1.74,1.74,0,0,1,.4.49.78.78,0,0,1-.05.44s-.15.09-.17.14a.61.61,0,0,0,0,.35c0,.08.18.2.24.26l.71.74,0,.53,1.25.71.09.89a3.89,3.89,0,0,0,.12.79,2.24,2.24,0,0,0,.29.36l.83.75a3.71,3.71,0,0,0,.52.39c.18.08.63,0,.78.14a1.29,1.29,0,0,1,.27.82c0,.1-.21.26-.21.36s.29.39.36.53a2.18,2.18,0,0,1,.14.57c0,.14-.12.43-.08.57a.69.69,0,0,0,.31.34,1.22,1.22,0,0,0,.43-.07l2.83-3.13.88.7,1.09.55.79-.86.87.33.11,0,1.55.17,0,.93a1.59,1.59,0,0,0,.23.14c.17.06.54,0,.7.09s.27.28.38.34.33,0,.41.07a.23.23,0,0,1,.09.14c0,.11-.19.28-.26.37a2.44,2.44,0,0,0-.28.38c0,.13,0,.42,0,.53s-.18.12-.23.17a2.54,2.54,0,0,0-.24.46c-.07.15-.24.61-.24.61v2.75l-.59.34.17.66,2.35.1.43,2.67-.76.39.21,1.79.32.92-1.59,1.4-.47-.21a14.44,14.44,0,0,0-1.35-.54A4.16,4.16,0,0,0,66,28.14a2.85,2.85,0,0,0-.93.55,2.67,2.67,0,0,0-.53.65,6.36,6.36,0,0,0-.22,1.23v.9s1.23-.15,1.45.14-.18.87-.18.87l-1.09-.05v.77l.89,1.18.13.07H63.71L63.6,35l-3-.1-.34.74-.48.09V35l-4,.13L55.48,34l1,.06L57,32.76l-.7-.9-1.45-.94.61-.45-.26-1.13-2,.77L53,29l-2.12.35-.09-.9-1.44.35-.46-1.25-3.08,2.06-1.29-.93-2.43-.95a.56.56,0,0,0,.06-.27.79.79,0,0,0-.39-.46c-.11,0-.34.1-.46.13a2.16,2.16,0,0,1-.46.13,1.26,1.26,0,0,1-.7-.22c-.09-.1-.08-.39-.11-.52a5.58,5.58,0,0,1-.15-1c0-.15.17-.43.17-.59a1.49,1.49,0,0,0-.15-.65c-.1-.14-.46-.26-.57-.39a2.09,2.09,0,0,1-.26-.67c-.05-.28,0-.86,0-1.13s-.38-.72-.48-1a4.27,4.27,0,0,1-.26-.92,3.77,3.77,0,0,1,.13-.89c.05-.2.22-.59.3-.78a3.55,3.55,0,0,1,.35-.78,6.81,6.81,0,0,1,.65-.39,2.77,2.77,0,0,0,.57-.63,1.15,1.15,0,0,0,.13-.61.66.66,0,0,0-.33-.33,1.15,1.15,0,0,0-.63.15,2,2,0,0,0-.54.57c-.09.16-.08.56-.2.7s-.42.14-.5.26,0,.46-.06.61a2.24,2.24,0,0,1-.11.61.93.93,0,0,1-.37.31,1.06,1.06,0,0,1-.61,0c-.12-.06-.23-.34-.33-.44a3.23,3.23,0,0,0-.61-.39,4.25,4.25,0,0,0-.72-.24c-.2,0-.62-.05-.83-.09s-.55-.17-.74-.17a3.24,3.24,0,0,0-.87.13c-.13,0-.44.13-.48.26s.09.31.17.37.46.06.61.07h.5a3.19,3.19,0,0,1,.89.09c.15.07.33.39.48.46a5.29,5.29,0,0,0,.59,0,2.83,2.83,0,0,1,.57.26,3,3,0,0,1,.57.44,2.17,2.17,0,0,1,.33.61c.05.19,0,.62,0,.81s.37.35.44.5,0,.73.06,1a4.57,4.57,0,0,0,.42.74,6,6,0,0,1,.61,1c.06.23-.06.72,0,1s.29.63.3.85a1.77,1.77,0,0,1-.22.85,1.49,1.49,0,0,1-.61.37c-.17,0-.54,0-.72,0a1.57,1.57,0,0,0-.63.35,2,2,0,0,0-.28.89,1.36,1.36,0,0,0,0,.3l-2.09.44L34,27.88l-.54.09.12,2.35a2.92,2.92,0,0,0,.1.62,1.83,1.83,0,0,0,.26.3c.07.08.24.21.28.31s0,.41,0,.54.33.31.38.44a1.56,1.56,0,0,1,0,.59,2.15,2.15,0,0,1-.1.33l-1.46-.56,0,2.39a1.6,1.6,0,0,0,.19.26,1,1,0,0,0,.46.2c.13,0,.34-.18.46-.2a1,1,0,0,1,.33,0,1.79,1.79,0,0,1,.65.39.79.79,0,0,1,.13.48c0,.07-.15.17-.2.22s-.21.09-.24.15a1.54,1.54,0,0,0,0,.65,1.69,1.69,0,0,0,.09.52,1,1,0,0,0,.28.26c.11.06.39.06.48.15a1.74,1.74,0,0,1,.22.67,2.36,2.36,0,0,1,.09.74.75.75,0,0,1-.2.33c-.09.06-.32.06-.42.12a.51.51,0,0,0-.18.22c0,.09.08.26.1.35a3.12,3.12,0,0,1,.16.51,2.44,2.44,0,0,1-.14.71c-.06.16-.3.42-.32.58a.9.9,0,0,0,.12.48,2.09,2.09,0,0,0,.51.33l.43.24-.11,0a4.9,4.9,0,0,1-1.41,0c-.21,0-.61-.17-.81-.2s-.61,0-.81-.06-.78,0-1,0a4.46,4.46,0,0,1-1.1-.39,3.93,3.93,0,0,1-.52-.46c-.11-.1-.27-.38-.41-.44a.82.82,0,0,0-.48,0c-.11,0-.21.28-.31.35a1.11,1.11,0,0,1-.38.13,4,4,0,0,1-.71-.09,4.53,4.53,0,0,0-.79-.12,1.11,1.11,0,0,0-.51.19c-.08.08-.11.31-.16.41a2.67,2.67,0,0,1-.32.55.87.87,0,0,1-.35.22,1.36,1.36,0,0,1-.54-.13c-.16-.07-.42-.29-.58-.35a2.24,2.24,0,0,0-.67-.13,1.3,1.3,0,0,0-.51.15,1.25,1.25,0,0,0-.32.42c0,.11,0,.39-.06.48s-.22.08-.29.09a3.15,3.15,0,0,0-.45,0c-.08,0-.18.18-.26.22a1,1,0,0,1-.35.06,1.11,1.11,0,0,1-.44-.09c-.14-.09-.29-.43-.41-.55a2.23,2.23,0,0,0-.62-.48,1.54,1.54,0,0,0-.59,0,.93.93,0,0,0-.36.14c-.05.05-.05.23-.12.28s-.26,0-.35,0-.26-.06-.33,0-.12.3-.19.38-.17.17-.25.16-.15-.23-.23-.26a.43.43,0,0,0-.3.06,1,1,0,0,0-.16.46,2.83,2.83,0,0,0,0,.77,2.7,2.7,0,0,0,.15.34l-.46-.35L15,46.2l-4,.16-.28-.51s.13-.28.16-.38a3.33,3.33,0,0,0,.11-.44,2.35,2.35,0,0,0,0-.41c0-.08-.09-.23-.07-.3s.22-.16.27-.23a.71.71,0,0,0,.13-.3.92.92,0,0,0-.14-.34.72.72,0,0,0-.2-.25.84.84,0,0,0-.4,0,3.72,3.72,0,0,0-.5.23c-.09,0-.27.13-.37.16s-.45.08-.45.08L9.54,45l-.24.22-2.5.05a1.14,1.14,0,0,0-.22.22c0,.06,0,.22,0,.28a.63.63,0,0,1-.23.26A.71.71,0,0,1,6,46a4.68,4.68,0,0,1-.64-.28c-.13-.06-.39-.17-.51-.24a4.38,4.38,0,0,1-.41-.28,5.73,5.73,0,0,1-.73-.64c-.06-.08-.12-.28-.2-.35a2,2,0,0,0-.74-.29c-.22,0-.66.05-.88,0Z"/></g></g></svg>