<svg xmlns="http://www.w3.org/2000/svg" viewBox="0 0 47.12 64.54"><defs><style>.cls-1{fill:#f2c90c;stroke:#f2c90c;stroke-miterlimit:10;stroke-width:0.25px;}</style></defs><title>donetsk</title><g id="Слой_2" data-name="Слой 2"><g id="Layer_1" data-name="Layer 1"><path class="cls-1" d="M1.33,38.78l-.13-.07L.31,37.54v-.77l1.09.05s.32-.69.18-.87S.13,35.81.13,35.81v-.9a6.36,6.36,0,0,1,.22-1.23A2.67,2.67,0,0,1,.89,33a2.85,2.85,0,0,1,.93-.55,4.16,4.16,0,0,1,1.41.21,14.44,14.44,0,0,1,1.35.54l.47.21L6.63,32l-.32-.92-.21-1.79.76-.39-.43-2.67-2.35-.1-.17-.66.59-.34V22.4s.17-.46.24-.61A2.54,2.54,0,0,1,5,21.33c0-.06.19-.11.23-.17s0-.41,0-.53a2.44,2.44,0,0,1,.28-.38c.07-.09.26-.26.26-.37a.23.23,0,0,0-.09-.14c-.09-.06-.32,0-.41-.07s-.27-.29-.38-.34-.53,0-.7-.09A1.59,1.59,0,0,1,4,19.1l0-.93L2.46,18l-.11,0,.34-2.47s-.41-.75-.56-1a7.79,7.79,0,0,1-.53-.82.81.81,0,0,1-.08-.41c0-.1.33-.27.33-.27l1.38-.07.77.7.51-.36.19-.53,1.66.05,1.25,1.46L8,14l-1-1.5.85-.73.3.62.32-1.2h.89l.05,1.32.92,0-.05-1.84.82-1L13,9.49l-.72-1.2a1.32,1.32,0,0,1,0-.45,1.69,1.69,0,0,1,.55-.5c.18-.12.64-.2.8-.35a1.65,1.65,0,0,0,.24-.47A4.4,4.4,0,0,1,14,5.94a2.5,2.5,0,0,1,.68-.58c.13-.08.46-.11.59-.2a.67.67,0,0,0,.23-.27c0-.13-.11-.4-.11-.53A.56.56,0,0,1,15.47,4c.06-.05.24,0,.32,0s.54.13.72.14a2.08,2.08,0,0,0,.72,0,1.16,1.16,0,0,0,.42-.38,1.36,1.36,0,0,0,.1-.54,2.44,2.44,0,0,0-.13-.42L16,2.2l-.12-.61.42-1,1.15.09L17.8.25,21,.87l.47-.72.84.31.23,1.66.54.32,1.55.49L25,2.49c.06-.07.14-.27.23-.29s.21.09.28.13.2.08.23.15a1.23,1.23,0,0,1,0,.65,4.57,4.57,0,0,1-.29.58,1.9,1.9,0,0,0-.23.57,2.6,2.6,0,0,0,.39.84c.12.21.57.81.57.81L24.33,7.29a2.67,2.67,0,0,0,.35.29,4.21,4.21,0,0,0,.81.19A7.68,7.68,0,0,0,26.74,8a5,5,0,0,0,1-.22c.15,0,.43-.21.58-.25s.27-.08.33,0,0,.34.06.45a4.44,4.44,0,0,1,.17.42c0,.1-.06.3-.06.41a2.85,2.85,0,0,0,.1.44,2.4,2.4,0,0,0,.15.54c.05.08.21.25.3.26s.23-.17.32-.16.47.2.48.35-.35.29-.35.29L30,11.51l-.81,1.06,1.53.7,0,.83-.78,1s0,.67,0,.88.22.65.26.87a5.2,5.2,0,0,0,.09.84,2.69,2.69,0,0,0,.62.7c.19.15.65.32.83.48a3.1,3.1,0,0,1,.29.36l-.59,1.14.82.74a3.73,3.73,0,0,1,.49-.28.81.81,0,0,1,.36,0,.85.85,0,0,1,.28.23,6.9,6.9,0,0,1,.49.87l.59.7H35l.25.51-.73.34,0,1.64h.78l1.83.71.18.62a2.53,2.53,0,0,0,.15.51,2.93,2.93,0,0,0,.69.59,4.16,4.16,0,0,0,.81.39c.35.11,1.08.12,1.44.2s1,.29,1,.29v1.2l-.14.51.54.1L42,31.64l.86-.45H45l.08.6,1.57.73-.17.44-.1,1.26.58.5,0,.49-.16,0c-.19,0-.58,0-.77,0-.37,0-1.1-.13-1.47-.14s-.93,0-1.23,0h-.71c-.08,0-.24,0-.31,0s-.13.28-.17.38-.29.58-.36.78a7.8,7.8,0,0,0-.29,1,10.15,10.15,0,0,0-.09,1.28c0,.21.05.63.06.84a2.13,2.13,0,0,1,0,.6,1.29,1.29,0,0,1-.26.3,1.48,1.48,0,0,1-.39.32,2.3,2.3,0,0,1-.58,0,3,3,0,0,0-.55,0,.86.86,0,0,0-.41.2c-.06.08,0,.3,0,.39s0,.38-.13.46-.23.05-.3.06c-.24,0-.72,0-1,0a6.31,6.31,0,0,0-1,.09,5,5,0,0,0-.86.38c-.21.11-.59.41-.8.52s-.7.27-.93.38a3.78,3.78,0,0,0-.83.48,1.67,1.67,0,0,0-.35.63,3.77,3.77,0,0,0,.1.89c0,.29.13.88.16,1.18s0,.85.06,1.13a5.41,5.41,0,0,1,0,1,2.76,2.76,0,0,1-.35.73c-.13.19-.47.49-.61.67a2.8,2.8,0,0,0-.42.62.67.67,0,0,0,0,.41c.09.13.43.2.58.25s.52.1.68.16a1.07,1.07,0,0,1,.38.17,1,1,0,0,1,.13.49,1.34,1.34,0,0,1-.1.45,2.81,2.81,0,0,1-.54.7c-.17.14-.63.26-.77.42a1.47,1.47,0,0,0-.2.54,3.06,3.06,0,0,0,0,.65c0,.15.11.44.13.6a1.83,1.83,0,0,1,0,.76c-.09.18-.5.32-.64.46a1.79,1.79,0,0,0-.36.47c-.06.16,0,.52,0,.66a1.51,1.51,0,0,1-.56.38c-.1,0-.33.17-.44.12a.38.38,0,0,1-.13-.28c0-.1.22-.23.24-.33a.83.83,0,0,0-.15-.49,1,1,0,0,0-.5-.25.72.72,0,0,0-.34.09c-.09.05-.18.26-.26.32a2.92,2.92,0,0,1-.36.13,3.42,3.42,0,0,1-.54.3,3.74,3.74,0,0,1-1.06-.16,6.46,6.46,0,0,0-.81-.22,3.21,3.21,0,0,0-.87.17c-.27.1-.76.42-1,.54a5.43,5.43,0,0,1-.87.39,2.29,2.29,0,0,1-.57,0c-.29,0-.85-.23-1.13-.3a5.83,5.83,0,0,0-1.3-.22,2.77,2.77,0,0,0-.94.36,2.93,2.93,0,0,0-.58.62,10.94,10.94,0,0,0-.51,1.1c-.12.25-.35.77-.49,1s-.65,1-.87,1.34-.44.64-.6.84-.37.52-.56.6a.6.6,0,0,1-.44,0c-.1-.08-.11-.37-.13-.49s.07-.48,0-.61a1.14,1.14,0,0,0-.63-.37,2.46,2.46,0,0,0-1,.28,11.05,11.05,0,0,0-.89.73,17,17,0,0,1-1.61,1,5.79,5.79,0,0,1-.58.23l-.75-1.26.83-1,.85.36.92-.53,0-.93-.21-1.38-.57-.57-.64.41-.88.27-.67-.7a2,2,0,0,0,.16-.45,1.74,1.74,0,0,0-.22-.77,3.2,3.2,0,0,0-.67-.53c-.17-.12-.55-.32-.71-.46a4.06,4.06,0,0,1-.55-.69c0-.08-.21-.26-.15-.34s.8.16,1,0a.47.47,0,0,0,.14-.3c0-.1-.12-.26-.16-.35-.12-.25-.35-.75-.46-1s-.18-.59-.28-.76-.17-.18-.2-.25a.79.79,0,0,1,0-.53.72.72,0,0,1,.53-.19c.13,0,.29.28.41.35a1.33,1.33,0,0,0,.3.1,3.7,3.7,0,0,1,.49,0c.07,0,.15.16.22.19a1.89,1.89,0,0,0,.66-.08,4,4,0,0,0,1-.26,1,1,0,0,0,.32-.32,1.14,1.14,0,0,0,0-.39c0-.2-.12-.58-.12-.77s0-.46.08-.57a.54.54,0,0,1,.35-.1.89.89,0,0,1,.34.2,2.22,2.22,0,0,1,.34.47c0,.08,0,.32.13.36s.31-.11.38-.18a1.06,1.06,0,0,0,.18-.47c0-.12-.09-.35-.09-.47a6,6,0,0,1,.26-.88,7.28,7.28,0,0,0,.21-.88,1,1,0,0,0,0-.47.61.61,0,0,0-.3-.15,2.62,2.62,0,0,0-.5,0,1.34,1.34,0,0,0-.44,0c-.09,0-.16.26-.23.33s-.16.16-.23.15-.41-.32-.53-.43-.68-.64-.89-.87-.3-.42-.42-.54a.59.59,0,0,0-.21-.15c-.08,0-.24.1-.33.1a1.08,1.08,0,0,1-.36-.1,3,3,0,0,1-.42-.3c-.09-.07-.26-.25-.36-.32A.86.86,0,0,0,8,45.9a.68.68,0,0,0-.33.12c-.07.05-.14.23-.21.28a.39.39,0,0,1-.25.08C7.12,46.34,7,46,7,46l-1-1.5L4.31,45l-.54-1.41.82-.22L4.67,43l-1.47.07v-1.5l-.72-1.09-1.74-1L2,39.12Z"/></g></g></svg>