<svg xmlns="http://www.w3.org/2000/svg" viewBox="0 0 37.32 49.08"><defs><style>.cls-1{fill:#f2c90c;stroke:#f2c90c;stroke-miterlimit:10;stroke-width:0.25px;}</style></defs><title>ivano-frankovsk</title><g id="Слой_2" data-name="Слой 2"><g id="Layer_1" data-name="Layer 1"><path class="cls-1" d="M37.09,25.3l-1.29.55s0,.4,0,.54c0,.3,0,.9,0,1.21s.17.91.2,1.22,0,1.06,0,1.41,0,1,.07,1.29a4.6,4.6,0,0,1,.2.7.93.93,0,0,1-.19.48,1.18,1.18,0,0,1-.64.2,4.59,4.59,0,0,1-1-.45,4.21,4.21,0,0,0-.84-.32,3.29,3.29,0,0,0-1.09.17,10,10,0,0,0-1.58,1,12.91,12.91,0,0,0-1.37,1c-.22.22-.58.75-.78,1a8.17,8.17,0,0,1-.65.7,6.6,6.6,0,0,0-.68.46c-.14.17-.23.63-.36.81a3.13,3.13,0,0,1-.49.46c-.18.14-.58.34-.76.48s-.47.61-.7.73a4.42,4.42,0,0,1-.6.1,1.48,1.48,0,0,0-.45.2,5.22,5.22,0,0,0-.61,1.12c-.19.35-.6,1-.74,1.42a4.68,4.68,0,0,0-.22.94,3.79,3.79,0,0,0,.06.83,3.87,3.87,0,0,0,.23.63,6.25,6.25,0,0,1,.49.81,3.6,3.6,0,0,1-.06,1,7.79,7.79,0,0,1-.29,1.22c-.11.28-.44.8-.57,1.07-.05.13-.16.42-.23.62l-.12,0c-.16,0-.5,0-.64,0s-.36-.47-.48-.62-.43-.54-.54-.74-.2-.6-.32-.77a5.3,5.3,0,0,0-.73-.67c-.23-.2-.72-.54-.93-.76a3.41,3.41,0,0,1-.36-.45,7.61,7.61,0,0,1-.42-.9c-.09-.21-.21-.65-.29-.86a4.76,4.76,0,0,0-.32-.74.58.58,0,0,0-.14-.15l-.07,0c0-.23,0-.65,0-.83a3.56,3.56,0,0,1,0-.77c.06-.17.35-.42.44-.58a1.89,1.89,0,0,0,.25-.61,1.45,1.45,0,0,0-.19-.6,3.23,3.23,0,0,0-.49-.48,8.54,8.54,0,0,0-.9-.74c-.14-.09-.47-.18-.61-.26s-.26-.13-.29-.22.06-.25.09-.33.22-.4.29-.54a2.3,2.3,0,0,0,.29-.52,2.17,2.17,0,0,0-.13-.64c0-.18-.16-.53-.22-.71s-.27-.87-.39-1.15a6.25,6.25,0,0,0-.36-.68c-.12-.18-.4-.51-.52-.68s-.29-.4-.38-.54-.14-.41-.26-.46-.25.06-.33.09a2.11,2.11,0,0,0-.61.26c-.07.07-.1.29-.17.35a.93.93,0,0,1-.45.1,2.37,2.37,0,0,1-.74-.2,3,3,0,0,1-.84-.64A3.91,3.91,0,0,1,10,30a4.94,4.94,0,0,1-.2-.58,1.06,1.06,0,0,1,0-.39c.05-.15.32-.37.39-.51a1.37,1.37,0,0,0,.14-.46,2.88,2.88,0,0,0-.14-.47c0-.15,0-.48-.1-.61a.93.93,0,0,0-.44-.23,1.76,1.76,0,0,0-.52,0,3.4,3.4,0,0,0-.55.17,4.4,4.4,0,0,1-.58.35,4.4,4.4,0,0,1-.52-.06.74.74,0,0,0-.29.06c-.08.05-.15.23-.2.31a2.68,2.68,0,0,1-.32.45.7.7,0,0,1-.36.17A.54.54,0,0,1,6,28a2.15,2.15,0,0,1,.07-.87c0-.13.11-.39.13-.52a1,1,0,0,0,0-.44c-.05-.11-.29-.24-.39-.3s-.52-.21-.68-.29a3.69,3.69,0,0,1-.74-.41,1.15,1.15,0,0,1-.23-.38,2.26,2.26,0,0,1,0-.51c0-.18,0-.53,0-.71s0-.39,0-.52.07-.34,0-.42-.46-.05-.61-.06-.53,0-.71,0a2,2,0,0,1-.6,0A1.09,1.09,0,0,1,2,22.31a5.77,5.77,0,0,1-.45-.68c-.08-.16-.16-.52-.26-.67A2.91,2.91,0,0,0,1,20.63c-.12-.11-.34-.33-.47-.44l-.39-.3.43-1.34L.94,17l.85-.24V16l-.47-.87.69-2,1.87-1.62v-.61l1.7-1L7,10.52,8,10.31l1.85.07.56-.39.89.4,1,.26,1.24-.22,1.31-.52.76-.43h.79l.26.71.84-.08.31-1.6-.16-.33-2-.3L15.6,7l-.65-.57.6-.89.9.45L17,5.06l.08-1-.38-.83.91-1-.31-.55L17.93.26,19.06.14l.16,1,.36.19L20.52,1l2.77,1.08-.08,1.3.7,1.38.45,3.51.51.28c.19.09.58.25.77.33s.43.09.51.2a.35.35,0,0,1,0,.26c-.05.1-.29.21-.39.26s-.7.25-.9.39a1.42,1.42,0,0,0-.42.42,1.26,1.26,0,0,0,0,.54,2,2,0,0,0,.26.61,3.06,3.06,0,0,0,.57.45c.15.11.49.27.64.38a2.3,2.3,0,0,1,.55.51,1.12,1.12,0,0,1,.07.46c0,.08,0,.27-.1.31s-.23,0-.29-.07-.2-.31-.31-.36a.82.82,0,0,0-.39,0c-.1,0-.28.15-.38.17s-.35,0-.46,0-.25.12-.28.2.14.34.2.45a2,2,0,0,0,.29.35c.09.08.32.17.42.25a4,4,0,0,1,.49.43,6.17,6.17,0,0,0,.38.55,4.42,4.42,0,0,0,.86.38,3.24,3.24,0,0,1,.77.32,1.49,1.49,0,0,1,.2.42,2.66,2.66,0,0,1,.2.55c0,.17-.11.52-.09.7a1.19,1.19,0,0,0,.19.48.88.88,0,0,0,.44.25.73.73,0,0,0,.36-.15c.08-.07.16-.27.23-.35s.22-.24.32-.23.3.22.33.33-.09.37-.13.49-.13.22-.13.31a.63.63,0,0,0,.17.42c.09,0,.29-.07.39-.06a2,2,0,0,1,.62.26c.18.11.45.44.61.57a3.31,3.31,0,0,0,.57.38.74.74,0,0,0,.35.07c.12,0,.28-.25.35-.35s.12-.29.19-.36a.47.47,0,0,1,.2-.15.86.86,0,0,1,.44.2,1.66,1.66,0,0,1,.29.41c.09.16.16.53.25.7a2.29,2.29,0,0,0,.35.46,2.27,2.27,0,0,0,.58.35c.16.06.51,0,.67.09a1.2,1.2,0,0,1,.44.3,2.7,2.7,0,0,1,.2.92,6.36,6.36,0,0,0,0,.64,3.81,3.81,0,0,0,.58,1.08Z"/></g></g></svg>