<svg xmlns="http://www.w3.org/2000/svg" viewBox="0 0 56.8 52.38"><defs><style>.cls-1{fill:#f2c90c;stroke:#f2c90c;stroke-miterlimit:10;stroke-width:0.25px;}</style></defs><title>kharkiv</title><g id="Слой_2" data-name="Слой 2"><g id="Layer_1" data-name="Layer 1"><path class="cls-1" d="M53.55,32l-.47.72-3.24-.62-.33.44-1.15-.09-.42,1,.12.61,1.59.54a2.44,2.44,0,0,1,.13.42,1.36,1.36,0,0,1-.1.54,1.16,1.16,0,0,1-.41.38,2.08,2.08,0,0,1-.72,0c-.18,0-.54-.14-.72-.14s-.26,0-.32,0a.56.56,0,0,0-.08.32c0,.14.14.4.11.53a.67.67,0,0,1-.23.27c-.13.09-.45.12-.59.2a2.5,2.5,0,0,0-.68.58,4.4,4.4,0,0,0-.17.59,1.65,1.65,0,0,1-.24.47c-.16.15-.61.23-.8.35a1.69,1.69,0,0,0-.55.5,1.32,1.32,0,0,0,0,.45l.72,1.2-1.93.08-.82,1,.05,1.84-.92,0L41.38,43h-.89l-.32,1.2-.3-.62-.85.73,1,1.5-.38.27L38.4,44.6l-1.66-.05-.19.53-.51.36-.77-.7-1.38.07s-.29.17-.33.27a.81.81,0,0,0,.08.41,7.79,7.79,0,0,0,.53.82c.15.24.56,1,.56,1l-.34,2.47-.87-.33-.8.86-1.09-.55-.88-.7-2.83,3.13a1.22,1.22,0,0,1-.43.07.69.69,0,0,1-.31-.34c0-.14.08-.42.08-.57a2.18,2.18,0,0,0-.14-.57c-.07-.15-.35-.37-.36-.53s.2-.26.21-.36a1.29,1.29,0,0,0-.27-.82c-.15-.13-.6-.06-.78-.14a3.71,3.71,0,0,1-.52-.39l-.83-.75a2.24,2.24,0,0,1-.29-.36,3.89,3.89,0,0,1-.12-.79l-.09-.89L22.8,45l0-.53-.71-.74c-.06-.06-.21-.18-.24-.26a.61.61,0,0,1,0-.35c0-.05.15-.09.17-.14a.78.78,0,0,0,.05-.44,1.74,1.74,0,0,0-.4-.49,4.35,4.35,0,0,1-.42-.35,1.1,1.1,0,0,1-.14-.38,2.43,2.43,0,0,1,.1-.7c0-.13.17-.36.22-.48s.14-.23.09-.28-.2.06-.27.08a6.45,6.45,0,0,0-.94.26c-.23.12-.58.51-.8.64a11.58,11.58,0,0,1-1.55.72,4.51,4.51,0,0,1-1.19.36,4,4,0,0,1-.69-.22c-.24-.06-.74-.15-1-.21s-.78-.19-1-.22a10,10,0,0,0-1.07,0,7.25,7.25,0,0,1-1,.09,2,2,0,0,1-.51-.21c-.21-.12-.57-.47-.78-.6s-.91-.36-1.18-.54a7.74,7.74,0,0,1-.66-.64,5.77,5.77,0,0,0-.61-.58,4.71,4.71,0,0,0-.75-.29A3.17,3.17,0,0,1,7,38.32a1,1,0,0,1-.3-.36c-.06-.16.06-.52,0-.68a1.47,1.47,0,0,0-.4-.5,1.81,1.81,0,0,0-.64-.25,2.1,2.1,0,0,0-.46.07c-.12,0-.34.13-.46.1s-.21-.24-.3-.27a.69.69,0,0,0-.28,0,2.27,2.27,0,0,0-.44.19l0,0L2.48,34.28a6.07,6.07,0,0,1,.09-.76c.1-.35.31-1.16.63-1.33s.67.1.89.14.77.17,1,.2.57,0,.75,0,.39.19.53.22.58,0,.76,0,.31.17.42.2a1.06,1.06,0,0,0,.5,0,.71.71,0,0,0,.3-.39c0-.15-.26-.39-.26-.54a2,2,0,0,1,.42-.81,4.26,4.26,0,0,1,.49-.44c.15-.13.58-.32.63-.51s-.17-.59-.28-.76S9,29.16,8.86,29a2.46,2.46,0,0,1-.34-.51A1.57,1.57,0,0,1,8.43,28a1.22,1.22,0,0,1,.23-.61,1.24,1.24,0,0,1,.54-.12,2.6,2.6,0,0,1,.79,0c.15,0,.37.32.52.36a.85.85,0,0,0,.52,0c.15-.11.22-.51.29-.68s.22-.34.2-.46-.23-.16-.27-.24a.94.94,0,0,1-.07-.48c0-.13.23-.31.27-.44a3.06,3.06,0,0,0,.05-.52l-1.41-2.25L8,22.37a1.4,1.4,0,0,1-.36-.28c0-.1.07-.36,0-.45s-.36-.08-.48-.09-.42.1-.54,0-.19-.33-.19-.33l-.3-3-.54-.32H3.95l-.2-.62s-.2.27-.3.27-.42-.54-.62-.52-.16.25-.25.29a.69.69,0,0,1-.38,0,4.58,4.58,0,0,1-.83-.65,4.52,4.52,0,0,1-.64-.54,4.57,4.57,0,0,1-.26-.61,4.55,4.55,0,0,1-.3-.62,1.3,1.3,0,0,1,0-.57c0-.07.17-.16.2-.23a3.35,3.35,0,0,0,.19-.89,3.5,3.5,0,0,1,0-.65.68.68,0,0,1,.22-.25c.11-.07.43,0,.51-.13.3-.42-.19-1.8-.19-1.8s.62-1,1-1.09c.09,0,.23.14.31.19a1.6,1.6,0,0,0,.3.17,2.7,2.7,0,0,0,.6,0c.06,0,.21,0,.26,0s.1-.24.11-.33,0-.39,0-.52a1.85,1.85,0,0,1,.13-.48,2.55,2.55,0,0,1,.41-.5,1,1,0,0,1,.32-.24,1.07,1.07,0,0,1,.33.08l.71.18A1.62,1.62,0,0,0,6,7.88a.75.75,0,0,0,.23-.13,1.36,1.36,0,0,0,.27-.24.68.68,0,0,0,.1-.28c0-.1-.16-.28-.15-.39a.47.47,0,0,1,.15-.28c.13-.08.46,0,.62,0a2.63,2.63,0,0,0,.53,0,.47.47,0,0,0,.23-.14.4.4,0,0,0,0-.26c0-.08-.21-.16-.26-.23a.66.66,0,0,1-.09-.3.47.47,0,0,1,.11-.23A1.31,1.31,0,0,1,8,5.27L8.69,5a3.54,3.54,0,0,0,.48-.24c.06,0,.12-.2.19-.2s.23.28.31.37.39.45.53.59.3.37.45.39.15-.06.2-.09.2-.13.21-.2-.17-.28-.14-.37.32-.17.44-.21a4.55,4.55,0,0,1,.52-.15,1.44,1.44,0,0,1,.54-.07c.08,0,.17.17.23.22s.17.2.25.2.26-.14.32-.21a1.55,1.55,0,0,0,.16-.43,3.72,3.72,0,0,0,.08-.43,4.35,4.35,0,0,0,.53,0,4.18,4.18,0,0,0,.9-.2,3.54,3.54,0,0,0,.58-.41c.25-.21.7-.69.94-.9a7,7,0,0,1,.89-.71,6.55,6.55,0,0,1,1.35-.46,5.3,5.3,0,0,1,.89-.09,3.36,3.36,0,0,1,.8.09c.15,0,.41.26.55.32s.78.18,1,.29a4.86,4.86,0,0,1,.78.52,6.48,6.48,0,0,1,.84.84c.19.26.4.91.61,1.16a1.82,1.82,0,0,0,.58.46,2.56,2.56,0,0,0,.86,0c.19,0,.56-.17.75-.19a3.15,3.15,0,0,1,.45,0c.25,0,.74.1,1,.13l.87.12c.1,0,.33,0,.41.07s.09.4.13.54a2.83,2.83,0,0,0,.23.78,1.46,1.46,0,0,0,.59.36,1.84,1.84,0,0,0,.86,0,2.85,2.85,0,0,0,.78-.71c.14-.17.3-.59.44-.77a7.44,7.44,0,0,1,.81-.84,9.31,9.31,0,0,1,1-.74,6.35,6.35,0,0,1,1.15-.55A9.45,9.45,0,0,1,36.53,3a7.58,7.58,0,0,0,1,0c.21,0,.57-.28.77-.35a3.8,3.8,0,0,1,.58-.13,6.65,6.65,0,0,0,.81,0,2.86,2.86,0,0,0,.61-.36c.23-.16.66-.53.89-.7s.68-.49.93-.62S42.8.56,43,.46a3.29,3.29,0,0,1,.78-.33.94.94,0,0,1,.38.12,2.63,2.63,0,0,1,.64.61c.18.27.28,1,.48,1.22a5.5,5.5,0,0,0,1,.73,8.62,8.62,0,0,1,.91.62,2.18,2.18,0,0,1,.29.44,3.76,3.76,0,0,1,.23.64c.07.29.07.9.12,1.19A6.12,6.12,0,0,0,48.14,7a6.54,6.54,0,0,0,.79,1c.14.16.44.46.58.62a4.22,4.22,0,0,0,.41.51,1.38,1.38,0,0,0,.42.19c.19,0,.59,0,.79,0a2.71,2.71,0,0,1,.57.19,10,10,0,0,1,1.38,1c.3.25.84.81,1.12,1.09l.77.81c.13.14.35.47.52.55h0a1,1,0,0,0,0,.37c.07.18.45.38.57.53a2.18,2.18,0,0,1,.27.52c.05.17.16.55.07.7s-.2.12-.27.14-.32,0-.4,0,0,.24-.09.31-.22.07-.24.14.08.34.15.42a1.16,1.16,0,0,0,.36.17c.16.06.54.07.67.18s.11.14.09.19-.3.09-.39.15a3.68,3.68,0,0,0-.46.35c-.08.07-.23.24-.32.31s-.21.22-.3.22-.21-.19-.29-.22a.44.44,0,0,0-.24,0,.64.64,0,0,0-.21.26c-.05.13,0,.42-.06.56s-.33.44-.23.55.35-.15.46-.12.36.39.47.53a4.5,4.5,0,0,1,.52.77,1.29,1.29,0,0,1,.06.4.58.58,0,0,1-.08.31c-.08.07-.34,0-.41.09s-.1.38-.13.51-.08.47-.11.63a2.17,2.17,0,0,1-.12.67,1.11,1.11,0,0,1-.42.24c-.16.06-.51.06-.67.12a1,1,0,0,0-.4.23.45.45,0,0,0,0,.33c0,.08.25.1.33.14s.2.06.23.12a.41.41,0,0,1-.05.28.93.93,0,0,1-.28.21c-.08,0-.29.05-.36.12A1.77,1.77,0,0,0,53,25a3.36,3.36,0,0,0-.12.83,3.71,3.71,0,0,0,.25.61,5.62,5.62,0,0,1,.21.63c0,.18,0,.55.05.73s.21.9.3,1.2a1.3,1.3,0,0,0,.13.39,1.78,1.78,0,0,0,.53.28c.13.06.43.12.55.2a.88.88,0,0,1,.28.27.58.58,0,0,1,0,.31,1.06,1.06,0,0,1-.18.22l-1-.52v1.19Z"/></g></g></svg>