<svg xmlns="http://www.w3.org/2000/svg" viewBox="0 0 62.01 43.09"><defs><style>.cls-1{fill:#f2c90c;stroke:#f2c90c;stroke-miterlimit:10;stroke-width:0.25px;}</style></defs><title>kherson</title><g id="Слой_2" data-name="Слой 2"><g id="Layer_1" data-name="Layer 1"><path class="cls-1" d="M61.22,34.27a1.72,1.72,0,0,0,.49.15c-.18.13-.42.28-.54.37a8.14,8.14,0,0,1-.87.66,2.35,2.35,0,0,1-.72.2,5.42,5.42,0,0,1-.61-.13,1.42,1.42,0,0,0-.57,0c-.13.06-.27.34-.37.45l-.44.47c-.15.15-.46.44-.6.6s-.2.3-.27.39a1.79,1.79,0,0,1-.27.34,1,1,0,0,1-.47.15c-.18,0-.45-.32-.62-.39a2.51,2.51,0,0,0-.78-.22,2.6,2.6,0,0,0-.81.26c-.1,0-.26.2-.36.25s-.32,0-.36.1.09.21.11.29,0,.43,0,.57.24.42.28.58a3.93,3.93,0,0,1,0,1.09A5.81,5.81,0,0,1,53,41.51a2.77,2.77,0,0,1-.45.71,2.16,2.16,0,0,1-.68.32c-.15,0-.47,0-.61,0s-.21.19-.29.23a1.67,1.67,0,0,1-.42.15s-.14,0-.17,0,0-.44-.07-.57a1,1,0,0,0-.25-.26c-.11-.08-.44-.11-.51-.23a.66.66,0,0,1,0-.41,1.2,1.2,0,0,1,.33-.46c.1-.06.37,0,.45-.09a.39.39,0,0,0,0-.29c0-.1-.27-.2-.3-.3a.86.86,0,0,1,0-.44,1.16,1.16,0,0,1,.28-.41.6.6,0,0,1,.3-.12c.06,0,.15.1.2.12a.61.61,0,0,0,.3,0c.06,0,.1-.18.16-.2a.65.65,0,0,1,.38.06c.07,0,.14.21.22.22a.47.47,0,0,0,.29-.15,1.31,1.31,0,0,0,.19-.54c0-.14-.07-.43,0-.57a1.84,1.84,0,0,1,.19-.39c0-.09.23-.24.2-.33s-.42-.29-.58-.33a1,1,0,0,0-.54,0,1,1,0,0,0-.28.36c-.05.11-.06.37-.12.48a1.15,1.15,0,0,1-.36.41,1.29,1.29,0,0,1-.7,0,5.77,5.77,0,0,1-1.06-.84,6.15,6.15,0,0,0-.87-.65c-.13-.06-.44-.19-.57-.12s-.19.37-.19.51a1.29,1.29,0,0,0,.16.42c.05.1.24.27.26.38a1.63,1.63,0,0,1-.2.83,1.3,1.3,0,0,1-.42.36c-.08,0-.29.12-.36.06s0-.37,0-.49a4.57,4.57,0,0,0,.13-.71,3.41,3.41,0,0,0-.51-1c-.13-.2-.47-.53-.62-.71a6.16,6.16,0,0,1-.6-.77c-.09-.18-.11-.6-.23-.75a1,1,0,0,0-.51-.28,1.36,1.36,0,0,0-.71.25c-.1.08-.29.32-.25.44s.27.11.35.16.43.25.49.39-.08.56,0,.73.33.27.41.39a1.46,1.46,0,0,1,.13.48c0,.08,0,.27,0,.32a.38.38,0,0,1-.32,0c-.08,0-.12-.25-.17-.33s-.19-.38-.32-.41a.32.32,0,0,0-.25.13c-.05.12.07.39.12.51s.31.43.33.59a.75.75,0,0,1-.12.45.87.87,0,0,1-.48.17,1.18,1.18,0,0,1-.45-.16c-.09-.06-.21-.28-.32-.32a.58.58,0,0,0-.34,0c-.08,0-.17.23-.25.28a.6.6,0,0,1-.38.09c-.12-.05-.22-.34-.28-.46s-.17-.68-.28-.89a2.45,2.45,0,0,0-.45-.64,2.66,2.66,0,0,0-.84-.36,6.77,6.77,0,0,0-.9,0,2.78,2.78,0,0,1-.71,0c-.17-.07-.39-.38-.54-.48a1.71,1.71,0,0,0-.48-.22,1.1,1.1,0,0,0-.54.06c-.14.08-.28.38-.38.51s-.21.38-.33.39-.28-.21-.38-.28a3.81,3.81,0,0,0-.36-.28c-.14-.07-.46-.27-.59-.19s-.08.24-.07.32a.84.84,0,0,0,.1.25L35,37h-.62l.72,2.92-.37.18a2.36,2.36,0,0,0-.26-.8,1.32,1.32,0,0,0-.41-.35,1.7,1.7,0,0,0-.78-.12,1.16,1.16,0,0,0-.51.34.83.83,0,0,0-.13.48c0,.11.24.25.31.35a1.62,1.62,0,0,1,.23.46.64.64,0,0,1-.07.4c-.07.07-.28.06-.37.09s-.24,0-.29.09a.73.73,0,0,0-.1.36c0,.12.12.34.09.45a.37.37,0,0,1-.2.19c-.1,0-.26-.12-.35-.17s-.24-.2-.34-.21a.7.7,0,0,0-.34.14s-.09.16-.14.18a.49.49,0,0,1-.39-.07c-.08-.09,0-.35,0-.46a1.64,1.64,0,0,0-.29-.42c-.06-.06-.22-.15-.27-.22a3.07,3.07,0,0,1-.1-.39.94.94,0,0,0-.21-.36.81.81,0,0,0-.35,0c-.12,0-.35.08-.47.07a1.37,1.37,0,0,1-.53-.19c-.11-.08-.2-.35-.3-.45a1.36,1.36,0,0,0-.41-.25,1.09,1.09,0,0,0-.51,0c-.07,0-.16.16-.22.21s-.16.12-.22.1-.07-.16-.07-.22.17-.32.21-.44a2.46,2.46,0,0,0,.14-.62c0-.13-.14-.36-.13-.49a1.57,1.57,0,0,1,.13-.33,1.06,1.06,0,0,0,.12-.32s0-.15-.09-.16-.16.12-.21.16a1.58,1.58,0,0,0-.33.27,1.73,1.73,0,0,0-.09.47,3.2,3.2,0,0,1-.09.65,1.67,1.67,0,0,1-.52.57,1.43,1.43,0,0,1-.72.12c-.17,0-.42-.32-.58-.38a2.18,2.18,0,0,0-.56-.09,1.26,1.26,0,0,0-.51.07.5.5,0,0,0-.14.21c0,.12,0,.38,0,.5a.83.83,0,0,1-.17.32,1.31,1.31,0,0,1-.48.16,3.42,3.42,0,0,1-.89,0c-.25,0-.69-.35-.95-.37a4.35,4.35,0,0,0-.73.15,4,4,0,0,1-.52,0c-.2,0-.58-.13-.77-.11a1.73,1.73,0,0,0-.48.15c-.12.06-.32.27-.45.33a1.86,1.86,0,0,1-.52.1c-.23,0-.69-.13-.93-.14a3.31,3.31,0,0,0-.83.08,1.66,1.66,0,0,0-.5.29,1.19,1.19,0,0,0-.22.39c0,.11,0,.33,0,.44a.39.39,0,0,1-.15.16.83.83,0,0,1-.44,0,3.24,3.24,0,0,1-.51-.36c-.29-.19-.86-.55-1.17-.7a10.1,10.1,0,0,0-1.42-.54c-.27-.07-.83-.12-1.1-.16a4.39,4.39,0,0,1-.79-.15,1.21,1.21,0,0,1-.49-.36.79.79,0,0,1,0-.46c.06-.15.35-.35.44-.49a1.17,1.17,0,0,0,.14-.41.85.85,0,0,0-.14-.46.75.75,0,0,0-.4-.13,3.28,3.28,0,0,0-.49.18,3.26,3.26,0,0,1-.79.1,2.56,2.56,0,0,1-.7-.23,2.49,2.49,0,0,1-.59-.46c-.11-.14-.18-.52-.3-.65a1.08,1.08,0,0,0-.41-.22c-.15,0-.47,0-.62,0a2.38,2.38,0,0,1-.61-.22,6.89,6.89,0,0,1-.67-.56,4,4,0,0,0-.57-.46,1.22,1.22,0,0,0-.4-.08.63.63,0,0,0-.33.08c-.06.06-.06.23-.08.3s0,.29-.1.36a1,1,0,0,1-.49.2,2.22,2.22,0,0,1-.76-.12,2.15,2.15,0,0,1-.62-.39.86.86,0,0,1-.19-.35.84.84,0,0,1,.12-.45A1.7,1.7,0,0,1,.79,34a3.53,3.53,0,0,1,.76-.24,3.14,3.14,0,0,1,.65.07c.14,0,.41.12.55.14a3.4,3.4,0,0,0,1.09,0,2.36,2.36,0,0,0,.71-.51c.1-.11.19-.4.3-.49s.26-.07.34-.11.34-.2.37-.32-.18-.51-.26-.66a3.39,3.39,0,0,0-.58-.8,2.56,2.56,0,0,0-.81-.35,5.57,5.57,0,0,0-.81,0,6.66,6.66,0,0,1-.95,0,3.84,3.84,0,0,1-.85-.34,6,6,0,0,1-.66-.52l.85-.4.16-.31a7.07,7.07,0,0,0,.69.27,11.74,11.74,0,0,0,1.44.28A11.37,11.37,0,0,0,5,29.76c.42,0,1.25-.11,1.67-.14a8.93,8.93,0,0,1,1.31-.1,3.71,3.71,0,0,1,.77.25c.23.1.65.36.86.48s.42.27.58.34a3.19,3.19,0,0,0,.77.21c.2,0,.59-.11.78-.13a6.26,6.26,0,0,0,.74,0,1.66,1.66,0,0,0,.6-.3.79.79,0,0,0,.19-.36.76.76,0,0,0-.17-.48.9.9,0,0,0-.5-.07,1.76,1.76,0,0,0-.53.2,3.09,3.09,0,0,0-.3.27,1.36,1.36,0,0,1-.28.24,1.46,1.46,0,0,1-.61,0,.59.59,0,0,1-.28-.13c-.07-.1,0-.36,0-.47s-.15-.17-.19-.23-.24-.32-.22-.44.27-.21.34-.3a2.2,2.2,0,0,0,.37-.7,1.34,1.34,0,0,0-.11-.75c-.09-.12-.43-.18-.54-.28a2.9,2.9,0,0,1-.17-.27.93.93,0,0,0-.24-.24.54.54,0,0,0-.28,0,1.39,1.39,0,0,0-.3.25c-.11.1-.28.35-.41.41s-.46,0-.6,0a1.84,1.84,0,0,0-.46.25c-.09.07-.2.26-.29.31a.73.73,0,0,1-.41.12c-.07,0-.15-.14-.18-.21s0-.52-.11-.69a1.8,1.8,0,0,0-.29-.49,4.37,4.37,0,0,0-.77-.47,7.21,7.21,0,0,1-.81-.41l-.15-.15L5,25.09,4,23.35,5.94,23l.62.86L7.74,23l.05-.71.6-.63.87-.75L11,22l-.06-1.43h1.19l.58.61L13.89,21l-.31-1,1.32,0,.65.66,1.06-.46.45,1.34,4.77-1-.62-.75-1.63,0,0-.44,2.66-.88,0-.73-1-.41.49-.79,1.15.51,1-1.26-2-1.31L20.9,13.17l1.06-2,1.73-.07,1.1-.71L24.21,9l-.05-1.16.61-.59-.37-1.15-1-.07L22.56,3.9l.63-.37L24,5.08l1.23,0-.7-2.55L23.63.83l.28,0c.22,0,.66-.07.88,0a2,2,0,0,1,.74.29c.08.07.13.27.2.35a5.73,5.73,0,0,0,.73.64,4.38,4.38,0,0,0,.41.28c.12.07.38.18.51.24a4.68,4.68,0,0,0,.64.28.71.71,0,0,0,.33,0,.63.63,0,0,0,.23-.26c0-.07,0-.22,0-.28a1.14,1.14,0,0,1,.22-.22l2.5-.05.24-.22L31.38.63s.34,0,.45-.08.28-.12.37-.16a3.72,3.72,0,0,1,.5-.23.84.84,0,0,1,.4,0,.72.72,0,0,1,.2.25.92.92,0,0,1,.14.34A.71.71,0,0,1,33.3,1c-.05.07-.24.14-.27.23s.06.23.07.3a2.35,2.35,0,0,1,0,.41,3.33,3.33,0,0,1-.11.44c0,.1-.16.38-.16.38l.28.51,4-.16,2.1-.72.46.35h0l0,.07a1.67,1.67,0,0,1,.12.64c0,.11-.23.25-.28.35a1.52,1.52,0,0,0-.1.73,1.63,1.63,0,0,0,.38.46c.08.08.29.19.35.29a2.4,2.4,0,0,1,.09.77,4.92,4.92,0,0,1,0,1.21,8.11,8.11,0,0,1-.55.9c-.09.19-.23.6-.3.8a4,4,0,0,1-.22.64,4.91,4.91,0,0,1-.71.65,8.27,8.27,0,0,0-.83.71,5.18,5.18,0,0,0-.51,1c-.11.28-.25.86-.33,1.15a5.77,5.77,0,0,1-.25.89,3.15,3.15,0,0,1-.65.75c-.17.13-.58.25-.76.36a2.65,2.65,0,0,0-.64.54,1.81,1.81,0,0,0-.16.58,7.89,7.89,0,0,1,0,.84,3.42,3.42,0,0,1-.3.49,2.5,2.5,0,0,0-.25.54,7.08,7.08,0,0,0,.06.71,3.91,3.91,0,0,1-.1.68,1.48,1.48,0,0,1-.22.52,1,1,0,0,1-.42.16,6,6,0,0,1-.93-.07,4,4,0,0,0-.77,0,5,5,0,0,0-.8.38,4.91,4.91,0,0,0-.62.28,3.84,3.84,0,0,0-.52.55c-.09.11-.25.35-.33.47s-.28.25-.25.35.33.1.44.12a2.22,2.22,0,0,0,.55,0,2.49,2.49,0,0,0,.62-.28c.16-.1.41-.39.57-.49a4.45,4.45,0,0,1,.74-.36,2.59,2.59,0,0,1,.67-.15,2,2,0,0,1,.44.12c.13,0,.37.19.51.23a1.41,1.41,0,0,0,.44.06,1.83,1.83,0,0,0,.68-.3,1.06,1.06,0,0,0,.3-.47c0-.12-.13-.34-.14-.46a1.88,1.88,0,0,1,0-.61A3.48,3.48,0,0,1,35,19a6.45,6.45,0,0,0,.54-.84A10.37,10.37,0,0,0,35.74,17a5.74,5.74,0,0,1,.32-1.12,3.86,3.86,0,0,1,.64-.75c.15-.14.53-.33.68-.46a2.61,2.61,0,0,0,.55-.67,3.75,3.75,0,0,0,0-.68,2.43,2.43,0,0,1,.15-.74,1.61,1.61,0,0,1,.52-.41c.11-.06.39-.06.49-.13a3.61,3.61,0,0,0,.46-.7c.18-.24.61-.68.75-.94a6.22,6.22,0,0,0,.41-1.12c.07-.26.08-.8.17-1a2.56,2.56,0,0,1,.55-.83,2.21,2.21,0,0,1,.8-.29c.19,0,.59,0,.78,0a1.93,1.93,0,0,0,.65-.07A.69.69,0,0,0,44,6.79a.89.89,0,0,0,0-.54.52.52,0,0,0-.25-.16.71.71,0,0,0-.29,0,3.05,3.05,0,0,0-.51.32,2.53,2.53,0,0,1-.47.28,1.65,1.65,0,0,1-.58,0,1,1,0,0,1-.38-.16.83.83,0,0,1-.17-.39,2.07,2.07,0,0,1,.2-.68A2.35,2.35,0,0,1,42,4.68a1.77,1.77,0,0,1,.65-.16c.23,0,.71,0,.94,0s1,0,1.32,0l.45,0,.61.71-.57.7L46.6,8.2l2.16-.12.13-1,.75,0,0,1.07.83.19,0,.68-.83.25.66,3.38a2.14,2.14,0,0,0,.26.42c.09.08.36.1.45.19a1.82,1.82,0,0,1,.2.57c.06.21.14.63.21.84a3,3,0,0,0,.28.65c0,.07.21.15.25.22s.11.28.16.37a2.34,2.34,0,0,0,.24.34c.12.13.4.34.54.45a4.35,4.35,0,0,0,.58.49,1.18,1.18,0,0,0,.3.07c.1,0,.3,0,.4,0s.17.2.22.26.23.35.31.46.3.35.4.46.29.25.33.37a.17.17,0,0,1,0,.13c-.07.06-.3-.08-.35,0s.07.2.1.26.22.23.29.32a3.77,3.77,0,0,1,.27.43c0,.06.13.2.1.26s-.28.07-.37.1a2.24,2.24,0,0,0-.31.08c-.06,0-.2.1-.22.16s.08.3.1.4,0,.28,0,.37.12.29.14.38.07.23,0,.28-.19,0-.25.06-.29,0-.34,0,.09.25.11.33,0,.17,0,.21-.21.11-.29.13-.37.08-.5.1l-.54.12c-.09,0-.31,0-.37.1s0,.23,0,.31a2.26,2.26,0,0,0,0,.36c0,.06,0,.22.09.25s.15-.08.2-.09.26-.07.33,0,.07.14.09.19.11.19.17.21.31,0,.41,0a1.15,1.15,0,0,1,.44.06.65.65,0,0,1,.15.24A2,2,0,0,1,55,25a1.7,1.7,0,0,1,0,.55,1.12,1.12,0,0,1-.23.29c-.07.07-.24.18-.29.26a.6.6,0,0,0-.09.2.89.89,0,0,0,.05.33c0,.08.13.25.21.28a.45.45,0,0,0,.29-.05c.05,0,.08-.21.14-.22s.29.24.37.33.26.38.36.5.22.31.34.36a1,1,0,0,0,.44,0c.17,0,.47-.27.64-.32a.79.79,0,0,1,.4,0c.09,0,.19.25.23.35a8.27,8.27,0,0,0,.2.82,1.07,1.07,0,0,0,.32.27c.18.1.6.14.8.21a3.88,3.88,0,0,1,.73.35,2.71,2.71,0,0,1,.52.54,2.64,2.64,0,0,1,.2.49c.1.31.21,1,.28,1.27s.24.6.16.78-.31.15-.37.24a.91.91,0,0,0-.08.45,2.29,2.29,0,0,0,.24.6A1.68,1.68,0,0,0,61.22,34.27Z"/></g></g></svg>