<svg xmlns="http://www.w3.org/2000/svg" viewBox="0 0 74.57 36.75"><defs><style>.cls-1{fill:#f2c90c;stroke:#f2c90c;stroke-miterlimit:10;stroke-width:0.25px;}</style></defs><title>kirovograd</title><g id="Слой_2" data-name="Слой 2"><g id="Layer_1" data-name="Layer 1"><path class="cls-1" d="M59.07,29a1.51,1.51,0,0,1-.27-.15,3.48,3.48,0,0,1-.58-.37c-.07-.07-.16-.27-.23-.35s-.12-.16-.19-.16-.32.2-.44.25-.44.14-.59.2-.45.17-.59.24a.46.46,0,0,0-.34.56c0,.21.17.6.2.81a1.36,1.36,0,0,1,0,.56.64.64,0,0,1-.27.22,2.44,2.44,0,0,1-.7,0c-.1,0-.32,0-.39,0s-.06-.33-.13-.41a.57.57,0,0,0-.33-.17c-.1,0-.24.18-.33.22a4.72,4.72,0,0,1-.79.23,3.11,3.11,0,0,0-.55.07.89.89,0,0,0-.2.19c-.07.08-.29.23-.25.33s.36,0,.48,0h.71c.12,0,.36-.06.46,0a.65.65,0,0,1,.15.34.35.35,0,0,1,0,.21c-.06.08-.3.11-.4.12s-.51-.06-.69-.07a1.55,1.55,0,0,0-.62,0c-.09,0-.22.33-.22.33l.33.35s-.95,2.92-.91,2.92H50.32l-1.21-.51L46.51,36l-.65-1.32-.83.1-.88.63-.62.94-1,.22-.28-.35.05-.62-.66-1.33-2.43.38,0,.62L39,35.6l-1.91,0,.51-.62.1-1.2.6-.34-.38-.3.13-.28-.66-1-.09-.53-.51.13-1-.89-.42-1.58,1.07-.41-.7-1.08-.83.05L34.36,27l-.47.16-.58-.54-.52.34v.44l-1,.55-.81,0,.39-.82,0-.41-1.45.1-.5-.41.24-.48-2.77.15-1-1.16.27-.52-.62-.72-1.33.14s-.13-.56-.29-.6-.14.15-.21.16-.57-.09-.73,0-.05.14-.09.17-.17,0-.21.07a1.5,1.5,0,0,0-.11.58l-2,1-.66-.46-3.37,0-1.08.48-.75.05-.39.88L14,25.91a3.89,3.89,0,0,0-.67-.53,3.27,3.27,0,0,0-.84-.14,4.27,4.27,0,0,0-1,0,2.31,2.31,0,0,0-.48.24,2.39,2.39,0,0,0-.31.19h0a1.2,1.2,0,0,1-.72.08c-.2,0-.58-.19-.78-.24a4.48,4.48,0,0,0-.78-.14,3.3,3.3,0,0,0-.41.05,9.5,9.5,0,0,1-1,.16,3.41,3.41,0,0,1-.94-.15A3,3,0,0,1,5.47,25a5.69,5.69,0,0,1-.75-.86c-.14-.22-.34-.7-.45-.93L4,22.69l-.49-.06,0,1.16-1,0L1.87,23,1,23l0-.79-.81-.62,2.31-3.06-.16-.7L3,17.25l.89.44.67-1,.32-.25v0L6.22,16l.3.18.33,1.49L8.3,15.85l1.3.72,3.72-2.88a6.94,6.94,0,0,0,.61.4,2.82,2.82,0,0,0,.68.22,2.28,2.28,0,0,0,.71-.08c.12,0,.37-.14.42-.25a.54.54,0,0,0-.05-.33c-.08-.17-.38-.4-.49-.55a1.82,1.82,0,0,1-.33-.62,1.64,1.64,0,0,1,.18-.53c.06-.14.15-.45.27-.53a.5.5,0,0,1,.28,0,1.56,1.56,0,0,1,.26.13c.05,0,.16.1.22.09a.45.45,0,0,0,.25-.21,1.36,1.36,0,0,0-.07-.58c0-.18-.19-.52-.23-.7A1.49,1.49,0,0,1,16,9.48c0-.11.26-.25.36-.32a5,5,0,0,1,.9-.37,4.61,4.61,0,0,1,.85-.17,3.73,3.73,0,0,1,1,.12c.18.06.49.29.66.37a2.14,2.14,0,0,0,.45.16,7.33,7.33,0,0,0,1.15-.1c.21,0,.63-.07.84-.06a4.77,4.77,0,0,1,.87.13c.2.06.56.29.76.34a3.93,3.93,0,0,0,.48,0,4.35,4.35,0,0,0,.5.06,8.34,8.34,0,0,0,.86-.21c.31-.07.93-.2,1.24-.23a6.1,6.1,0,0,1,1.23,0,2.9,2.9,0,0,1,.77.29c.12.08.29.32.41.39a.62.62,0,0,0,.28.07A1.66,1.66,0,0,0,30,9.71a1.67,1.67,0,0,0,.38-.33c.06-.1,0-.33.09-.44a.8.8,0,0,1,.2-.28,1.71,1.71,0,0,1,.54-.1c.16,0,.49,0,.64,0a1.7,1.7,0,0,0,.42-.19,1.39,1.39,0,0,0,.4-.41,1.17,1.17,0,0,0,0-.36A5.14,5.14,0,0,0,32.67,7c0-.16-.13-.47-.18-.62s-.16-.4-.2-.53a1.49,1.49,0,0,1-.09-.41A.81.81,0,0,1,32.36,5a1.09,1.09,0,0,1,.3-.15,1.49,1.49,0,0,1,.44-.14,1.43,1.43,0,0,1,.32.12,1.57,1.57,0,0,0,.32.11,5.24,5.24,0,0,0,.58-.12,1.32,1.32,0,0,1,.53,0c.08,0,.14.25.22.29a.72.72,0,0,0,.36,0A2.27,2.27,0,0,0,35.84,5c.17-.1.49-.34.67-.44A2.93,2.93,0,0,1,37,4.3a1.18,1.18,0,0,1,.48,0c.09,0,.22.18.29.24l.35.25.45.32c.07.05.22.14.26.22a.72.72,0,0,1,0,.29c0,.08-.09.25-.08.33a.49.49,0,0,0,.14.17c.05,0,.17.13.24.12s.28-.2.36-.28.19-.36.28-.46a1.82,1.82,0,0,1,.45-.3c.09,0,.3,0,.39-.08s.25-.27.36-.32a1.84,1.84,0,0,1,.66-.1,2.25,2.25,0,0,1,.56.14c.14.05.37.25.51.29a.79.79,0,0,0,.39,0,.65.65,0,0,0,.17-.21c.05-.08.18-.25.16-.34s-.22-.18-.28-.25L42.9,4,44,3.56,44.66,1,47.13.51l0,.73,1,.72.73-.63.85,2.46.9-.72L51,2.53l.32,1,1.17.09.38-.58.59.79,3-.27-1-1.45.2-1.57.09,0a6.71,6.71,0,0,1,.74,0c.23,0,.7,0,.93,0a3.13,3.13,0,0,0,.62-.13c.1,0,.25-.19.35-.22a2.86,2.86,0,0,1,.83,0,4.75,4.75,0,0,0,.61.14c.11,0,.29-.16.39-.17a.71.71,0,0,1,.38.09.61.61,0,0,1,.19.36c0,.12-.23.29-.26.41s.1.71.06.94a1.08,1.08,0,0,1-.22.55c-.14.1-.55,0-.71,0a.6.6,0,0,0-.23.23.33.33,0,0,0,0,.23.46.46,0,0,0,.31.1c.06,0,.17-.1.23-.12a1.51,1.51,0,0,1,.32,0c.1,0,.3.1.39.06s.19-.28.25-.38a2.24,2.24,0,0,0,.23-.51c0-.12-.09-.38,0-.49a1.76,1.76,0,0,1,.58-.58,2.84,2.84,0,0,1,.75-.29,2.7,2.7,0,0,1,.73,0,3,3,0,0,1,.58.22c.08,0,.23.19.32.19a.42.42,0,0,0,.17-.06l.13.54-.17.61-.9-.07,1.41,2.35.93.3L65.73,4h.94l.35.6h1.32l.31.55.48,0L69.71,4a.79.79,0,0,0,.19.28,2.41,2.41,0,0,0,.93.15c.19,0,.57-.08.75-.06a2.68,2.68,0,0,1,.79.26c.16.1.4.41.55.52s.77.43,1,.58l.5.32,0,.76h-.84l.49,1.86L73.87,9,71.45,9s-.27-.17-.3-.26.07-.42,0-.55-.08-.37-.18-.41-.18.06-.24.09-.31.15-.42.19-.34,0-.44.09-.12.25-.19.31a.9.9,0,0,1-.28.11,2.23,2.23,0,0,0-.3,0,1.82,1.82,0,0,0-.33.29l.27,1.42,1.78-.07,1.27,1.22.52,0,.24.21-1.75,1.79-1.87,1.23a2.76,2.76,0,0,0-.53-.5.81.81,0,0,0-.4,0c-.08,0-.19.15-.26.18s-.25.05-.32.11a.65.65,0,0,0-.14.33c0,.1.12.28.1.37s-.17.23-.22.31a2.48,2.48,0,0,0-.32.49,2.41,2.41,0,0,0,0,.61c0,.26.1.79.13,1a10.14,10.14,0,0,1,.26,1.83,3.49,3.49,0,0,1-.23.6,1.79,1.79,0,0,0-.17.47.74.74,0,0,0,.17.41s.14,0,.19,0a1.18,1.18,0,0,1,.33.12,1.06,1.06,0,0,1,.24.39,7.51,7.51,0,0,1,0,.9c0,.18.2.54.16.72a.83.83,0,0,1-.28.44c-.08,0-.29,0-.37,0s-.32.22-.33.34.25.23.22.33-.42.16-.56.21a4.54,4.54,0,0,0-.57.16,1.23,1.23,0,0,0-.35.3c0,.07,0,.26-.1.32s-.44,0-.59,0a6.58,6.58,0,0,0-.78,0,1.22,1.22,0,0,0-.38.15.79.79,0,0,0-.24.29c0,.11.09.33.07.44a1.37,1.37,0,0,1-.23.33l-.21.28c-.05.07-.13.27-.22.26s-.19-.25-.23-.34S63,26.14,63,26a1.83,1.83,0,0,0-.21-.54.53.53,0,0,0-.26-.13.64.64,0,0,0-.39.15.8.8,0,0,0-.08.41,4,4,0,0,0,.21.73c0,.12.14.36.16.49a1.06,1.06,0,0,1,0,.29.76.76,0,0,1-.16.35c-.08.06-.29.06-.39.09s-.67.22-.88.3-.62.28-.83.37-.61.24-.8.35-.17.17-.25.17Z"/></g></g></svg>