<svg xmlns="http://www.w3.org/2000/svg" viewBox="0 0 48.67 63.97"><defs><style>.cls-1{fill:#f2c90c;stroke:#f2c90c;stroke-miterlimit:10;stroke-width:0.25px;}</style></defs><title>kyiv</title><g id="Слой_2" data-name="Слой 2"><g id="Layer_1" data-name="Layer 1"><path class="cls-1" d="M2.67,4.89l-.86-1h0a.65.65,0,0,0,.39-.1c.14-.08.29-.4.44-.48a1.23,1.23,0,0,1,.51-.09,6.44,6.44,0,0,1,.71.23,1,1,0,0,0,.39.06c.08,0,.17-.17.22-.23s.27-.55.39-.71a5.52,5.52,0,0,1,.65-.65c.2-.17.63-.47.84-.62L7.2.64A3.73,3.73,0,0,1,7.64.28,2,2,0,0,1,8.25.13c.12,0,.4,0,.48.07s0,.45,0,.6a3.44,3.44,0,0,0,.17,1,1.47,1.47,0,0,0,.46.49,3.08,3.08,0,0,0,1,.13,1.77,1.77,0,0,0,.45,0,3.4,3.4,0,0,0,.55-.33,4.41,4.41,0,0,1,.58-.35c.06,0,.7-.07.93-.12a1.42,1.42,0,0,0,.45-.12c.08-.06.14-.27.2-.35a1.05,1.05,0,0,1,.38-.28,2.83,2.83,0,0,1,.78.13c.41.06,1.23.13,1.63.23.21.05.6.23.8.29s.53.06.65.17.11.48.19.63a2.94,2.94,0,0,0,.47.51c.14.12.53.26.6.44s-.08.33-.1.44,0,.49-.06.65a5.51,5.51,0,0,0-.09.83,1.38,1.38,0,0,0,.17.55A1.79,1.79,0,0,0,19.4,6c.14.07.43.18.58.23l.67.2a3.12,3.12,0,0,1,.57.2c.12.08.28.32.39.41a1.42,1.42,0,0,0,.36.23.59.59,0,0,0,.21,0L22,7.94a1,1,0,0,0-.34-.11c-.19,0-.53.21-.72.2a1.1,1.1,0,0,1-.28-.13,4.39,4.39,0,0,0-.57-.3,3,3,0,0,0-.63,0c-.2,0-.6.14-.78.07s-.2-.31-.31-.35-.39.15-.52.13-.3-.2-.41-.24-.42-.11-.52,0a.59.59,0,0,0,0,.52c.11.21.63.33.83.46a5,5,0,0,0,.63.44c.14.05.47,0,.61.07s.5.34.55.52-.28.56-.31.76a4.71,4.71,0,0,0,.13.87c0,.16.05.48.09.63s.22.45.2.61a1,1,0,0,1-.37.46,2.55,2.55,0,0,1-.74.2,7.15,7.15,0,0,0-1.15.09.89.89,0,0,0-.39.33.65.65,0,0,0,.07.48c.08.1.37.1.5.13a6.32,6.32,0,0,1,.7.11,3.24,3.24,0,0,1,.87.54,4.55,4.55,0,0,1,.63,1,3.23,3.23,0,0,1,.28.87,4.61,4.61,0,0,1-.28,1.35c-.08.23-.37.63-.46.85a3.67,3.67,0,0,1-.17.67,1,1,0,0,1-.37.24c-.14,0-.48-.05-.59,0a.53.53,0,0,0-.09.41c0,.1.26.2.33.28s.23.31.22.44-.34.37-.39.52a.9.9,0,0,0,0,.59c.1.13.51.1.63.22a2,2,0,0,1,.26.78c.05.27,0,.83.09,1.09a2.44,2.44,0,0,0,.59,1,2.22,2.22,0,0,0,.81.15c.17,0,.54.1.68,0a.94.94,0,0,0,.17-.65c0-.25-.42-.63-.5-.87a5.16,5.16,0,0,1-.15-1.09,6.48,6.48,0,0,1,.09-1.57,9.15,9.15,0,0,1,.61-1.07,4.27,4.27,0,0,0,.39-.87c.06-.33-.13-1-.11-1.35a5.93,5.93,0,0,1,.24-1c.06-.17.24-.5.28-.68a3.61,3.61,0,0,0,.09-.91c0-.17-.19-.5-.2-.67a1,1,0,0,1,0-.19h.85l.3.2-.14,1.46.68,1.8.39.24h.93l.23.76,0,1.19-.28.15-.61-.41L24,20.42l1,.14.57.23.56-.1.23.09.05.43.52.34.69,0,1.29-.15L30,21.14l.89-.29.32,0,.23.27,0,.32.51.41.47.38.07.29-.16.33.18.12.22.13.16.85.22.92-.1.47-.37.12-.64.09,0,.36.19.38.08.36.35-.13.4-.14.86.93H35l1.12-.1,1,.13,1-.14.95.1.75.32.29-.33.38-.38,1.93-.1.16-.53,1.18-1,1.63.61.19,1.31,1.73.28.61.61-2.13,1.11,1.22,2h1L46.9,33.05l1.62,0-.33,2.93-.26-.13L47.24,37l-.84-.63L45.26,39l-.58.57-.08.58.78.74.43.12-1.93.94-.34,1.58L43,43.45a4.56,4.56,0,0,0-.33.36,3.66,3.66,0,0,0-.27.54,2.07,2.07,0,0,0-.15.48c0,.08.1.25.07.32s-.23.12-.31.15-.23,0-.28.09,0,.29-.07.38-.15.42-.15.42l-1.86,0a1.14,1.14,0,0,1-.2-.26c0-.11.06-.35.06-.47a1.41,1.41,0,0,0-.05-.47c-.05-.11-.23-.31-.35-.33s-.32.15-.41.22-.28.37-.39.48l-.17.14c0-.06,0-.11,0-.15a15.69,15.69,0,0,0-.07-1.76A10.35,10.35,0,0,0,38,42a3.26,3.26,0,0,0-.44-.91,2.9,2.9,0,0,0-.72-.57,3,3,0,0,0-.76-.22,5.38,5.38,0,0,0-.76,0c-.15,0-.49,0-.61.07a.79.79,0,0,0-.17.41c0,.12.12.35.06.46a.32.32,0,0,1-.24.13c-.14,0-.3-.31-.39-.41s-.27-.41-.41-.46a.43.43,0,0,0-.35.06.38.38,0,0,0,0,.28c0,.12.32.25.37.37a.77.77,0,0,1,0,.46,1.17,1.17,0,0,1-.48.41,2.56,2.56,0,0,1-1,.11,4.32,4.32,0,0,1-1.2-.44,8.84,8.84,0,0,1-1.13-.94c-.37-.35-1.06-1.09-1.42-1.46s-.81-.91-1.11-1.18-1-.66-1.33-.94a4.63,4.63,0,0,1-.52-.63,7.23,7.23,0,0,1-.5-1c-.14-.34-.32-1.06-.41-1.42a7.19,7.19,0,0,0-.3-1.29,1.79,1.79,0,0,0-.61-.61.92.92,0,0,0-.57,0,1.3,1.3,0,0,0-.41.63,3.63,3.63,0,0,0,.11,1.39c.08.29.44.79.54,1.07a8.21,8.21,0,0,1,.33,1.24c0,.2-.08.64,0,.81s.37.11.48.17.5.42.67.54c.36.25,1.15.63,1.5.89s1.1,1,1.46,1.33S28.86,41.62,29.3,42a9.12,9.12,0,0,0,1.55.89,8.87,8.87,0,0,0,1.68.44,5.68,5.68,0,0,0,1.42,0,2.59,2.59,0,0,0,.7-.3l.05,0-.11,1.68-2.09.59-.45.47-.24,2.06.35.52,0,1.49.23.79-1.51,2.13.38.63-.81,1.12-2,1.91.32.58-.15.35L27,57.19l0,.5.42.95-1.75.95L24,60l-1.13-1L22.54,59l0,.2h-.28l-.46-.37-.28,0-1.82.73L20,60l-.14.22-1.08-1.1-.48.23.45.87-.84.48.49,1.37-.08.33h-1l-.25-.49-2.61-.61.05-1.6H13l-.9.22-1-.1-1.38.65-.23,1.26L9.07,62,8.94,63.3l-.54.54-1.71-.3-.75-1.08.16,0,0-.61H5l-.28-.46,0-1.31-1,.13L2,57.89l1.77-1.28L2,52.48l.57-.62L2,51l.09-1.45-.91-.44.25-.9L1,46.81l2.16-1L5,44.2,7.38,43l-2-2.48,1-1.09-.28-.8.71-.39L6.22,37.1,5.56,37l-.22-.76L6,34.88l-.71-.7.46,0,.09-1.48-2.6-2.11-1-2.13,1,.06.58-.92-.67-.51-.22-.68.68-.57-.16-.47-.93-.64v-.71s.46-.29.62-.38.91-.33,1.19-.49a4,4,0,0,0,.92-.7,2.08,2.08,0,0,0,.32-.75,4,4,0,0,0-.13-.8c0-.09,0-.31-.06-.35s-.22.13-.3.16a2.83,2.83,0,0,1-.71.17,2.71,2.71,0,0,1-.73-.16,1.6,1.6,0,0,1-.47-.25C3.1,20.47,3,20.29,3,20.2s.33-.12.44-.16.41-.15.54-.22.33-.13.38-.23A.94.94,0,0,0,4.28,19c-.07-.18-.41-.43-.46-.61a2.18,2.18,0,0,1,.06-.57c0-.13,0-.54,0-.54l-1.5-1.84-.1-.73H3V13.65l1.26-.81-2.7-2.32-.36.35-1-3.92,1.06-.6.9.51Z"/></g></g></svg>