<svg xmlns="http://www.w3.org/2000/svg" viewBox="0 0 41.79 58.58"><defs><style>.cls-1{fill:#f2c90c;stroke:#f2c90c;stroke-miterlimit:10;stroke-width:0.25px;}</style></defs><title>lugansk</title><g id="Слой_2" data-name="Слой 2"><g id="Layer_1" data-name="Layer 1"><path class="cls-1" d="M41.65,46.39a2.31,2.31,0,0,1,0,.7.68.68,0,0,1-.29.29c-.11,0-.34-.05-.45-.06a.88.88,0,0,0-.36,0,.8.8,0,0,0-.19.3c-.07.17-.08.54-.16.7a4.07,4.07,0,0,1-.38.52,4,4,0,0,0-.32.42,3.28,3.28,0,0,0-.17.65c0,.21-.06.65-.09.87a3.26,3.26,0,0,1-.1.78,2.34,2.34,0,0,1-.39.41c-.08.08-.27.21-.32.31a.94.94,0,0,0,0,.48c0,.14.25.34.32.46a2.81,2.81,0,0,1,.26.62,5.57,5.57,0,0,1-.07,1.21,5.78,5.78,0,0,1-.22,1.16,4.42,4.42,0,0,1-.65.93,3.19,3.19,0,0,1-.67.55,4.86,4.86,0,0,1-1.16.26c-.23,0-.71,0-.94,0a4.9,4.9,0,0,1-.91.1c-.17,0-.44-.28-.61-.32a2.13,2.13,0,0,0-.55,0c-.22,0-.64.17-.86.22s-.62.11-.83.13a6.33,6.33,0,0,1-.77,0c-.23,0-.67-.14-.9-.14a8.6,8.6,0,0,0-1.13.16l-.87.17a5.86,5.86,0,0,1-.94.12,3.73,3.73,0,0,1-.55-.14l0-.49-.58-.5.1-1.26.17-.44-1.57-.73-.08-.6H22.18l-.86.45-.24-1.37-.54-.1.14-.51v-1.2s-.76-.24-1-.29-1.09-.09-1.44-.2a4.16,4.16,0,0,1-.81-.39,2.93,2.93,0,0,1-.69-.59,2.53,2.53,0,0,1-.15-.51l-.18-.62-1.83-.71h-.78l0-1.64.73-.34-.25-.51h-.41l-.59-.7a6.9,6.9,0,0,0-.49-.87.85.85,0,0,0-.28-.23.81.81,0,0,0-.36,0,3.73,3.73,0,0,0-.49.28l-.82-.74.59-1.14a3.1,3.1,0,0,0-.29-.36c-.18-.16-.64-.33-.83-.48a2.69,2.69,0,0,1-.62-.7A5.2,5.2,0,0,1,9.61,40c0-.22-.22-.65-.26-.87s0-.88,0-.88l.78-1,0-.83-1.53-.7.81-1.06-.16-1.06s.35-.18.35-.29-.33-.34-.48-.35-.23.17-.32.16-.25-.18-.3-.26a2.4,2.4,0,0,1-.15-.54,2.85,2.85,0,0,1-.1-.44c0-.1.07-.3.06-.41A4.44,4.44,0,0,0,8.06,31c0-.11,0-.38-.06-.45s-.25,0-.33,0-.43.2-.58.25a5,5,0,0,1-1,.22,7.68,7.68,0,0,1-1.25-.19A4.21,4.21,0,0,1,4,30.67a2.67,2.67,0,0,1-.35-.29L5.49,29s-.44-.6-.57-.81a2.6,2.6,0,0,1-.39-.84,1.9,1.9,0,0,1,.23-.57,4.57,4.57,0,0,0,.29-.58,1.23,1.23,0,0,0,0-.65c0-.06-.17-.11-.23-.15s-.2-.15-.28-.13-.17.22-.23.29L4,26l-1.55-.49-.54-.32-.23-1.66-.84-.31.43-.66V21.39l1,.52a1.06,1.06,0,0,0,.18-.22.58.58,0,0,0,0-.31.88.88,0,0,0-.28-.27C2,21,1.73,21,1.6,20.91a1.78,1.78,0,0,1-.53-.28,1.3,1.3,0,0,1-.13-.39c-.09-.3-.25-.89-.3-1.2s0-.55-.05-.73a5.62,5.62,0,0,0-.21-.62,3.71,3.71,0,0,1-.25-.61,3.36,3.36,0,0,1,.12-.83,1.77,1.77,0,0,1,.19-.66c.06-.07.27-.08.36-.12a.93.93,0,0,0,.28-.21A.41.41,0,0,0,1.13,15c0-.06-.17-.09-.23-.12s-.28-.06-.33-.14a.45.45,0,0,1,0-.33,1,1,0,0,1,.4-.23c.16-.06.51-.06.67-.12a1.11,1.11,0,0,0,.42-.24,2.17,2.17,0,0,0,.12-.67c0-.16.08-.47.11-.62s0-.42.13-.51.34,0,.41-.09A.58.58,0,0,0,3,11.59a1.29,1.29,0,0,0-.06-.4,4.5,4.5,0,0,0-.52-.77c-.11-.14-.3-.48-.47-.53s-.39.21-.46.12.19-.41.23-.55,0-.43.06-.56A.64.64,0,0,1,2,8.63a.44.44,0,0,1,.24,0c.08,0,.2.22.29.22s.23-.16.3-.22.24-.24.32-.31A3.68,3.68,0,0,1,3.56,8c.09-.05.35,0,.39-.15s-.05-.16-.09-.19-.51-.12-.67-.18a1.16,1.16,0,0,1-.36-.17c-.07-.08-.19-.32-.15-.42s.2-.08.24-.14,0-.26.09-.31.3,0,.4,0,.23-.07.27-.14,0-.54-.07-.7a2.18,2.18,0,0,0-.27-.52c-.12-.15-.5-.35-.57-.53a1,1,0,0,1,0-.37,1.26,1.26,0,0,0,.49,0A2.92,2.92,0,0,0,4,3.81a8.06,8.06,0,0,0,.74-.7,2.37,2.37,0,0,0,.38-.38,3.2,3.2,0,0,0,.17-.87c0-.2,0-.61,0-.81A1.62,1.62,0,0,1,5.58.42,1.22,1.22,0,0,1,6.07.2a4.76,4.76,0,0,1,.57,0A3,3,0,0,1,7.22.13a.63.63,0,0,1,.29.16,2.53,2.53,0,0,1,.15.84,4.45,4.45,0,0,0,.1.78A.9.9,0,0,0,8,2.28a1.88,1.88,0,0,0,.64,0h.68c.17,0,.52-.07.67,0s.25.39.33.52.18.38.31.42.23-.08.3-.12.46-.34.63-.45a5.46,5.46,0,0,1,.94-.57,3.21,3.21,0,0,1,.57,0c.19,0,.59-.12.77,0a1.44,1.44,0,0,1,.45.58c.06.14,0,.47.12.61a4.29,4.29,0,0,0,.83.77,3.73,3.73,0,0,0,.7.55,2.63,2.63,0,0,0,.62.07,3.82,3.82,0,0,1,1,0,.84.84,0,0,1,.2.23,5.45,5.45,0,0,1,.3.52,6.92,6.92,0,0,0,.33.73,1,1,0,0,0,.36.32,1.25,1.25,0,0,0,.54-.14c.24-.1.69-.38.92-.51a10.82,10.82,0,0,0,1-.57c.16-.12.41-.42.55-.55s.28-.33.41-.33.43.23.55.33a13.07,13.07,0,0,1,.84,1,6.46,6.46,0,0,0,.77.81,2.22,2.22,0,0,0,.52.23c.14,0,.43,0,.57.07s.55.27.75.3a1.77,1.77,0,0,0,.51,0c.14,0,.4-.19.54-.23a1.63,1.63,0,0,1,.47-.1,4,4,0,0,1,.62.28,3.8,3.8,0,0,0,.55.15c.18,0,.55,0,.73,0a1.31,1.31,0,0,1,.49.07,1.27,1.27,0,0,1,.25.48c.07.2.13.62.19.83a4.6,4.6,0,0,0,.26.84,2.57,2.57,0,0,0,.51.55,3.6,3.6,0,0,0,.51.26l.6.25.71.32a6.74,6.74,0,0,0,.65.33c.16.05.51.05.68.09a6.65,6.65,0,0,0,.7.2,2,2,0,0,0,.73-.12,3.65,3.65,0,0,0,.7-.61c.13-.13.36-.42.49-.55a3.15,3.15,0,0,1,.61-.54,1.64,1.64,0,0,1,.51-.07c.12,0,.35,0,.46.06l.71.09a1.94,1.94,0,0,1,.45.07,1.42,1.42,0,0,1,.51.46.55.55,0,0,1,0,.36.56.56,0,0,1-.33.17c-.07,0-.2-.09-.26-.07s-.27.32-.35.44a5.41,5.41,0,0,0-.58.88,2.1,2.1,0,0,0-.1.7,3,3,0,0,0,.26.77c.13.27.49.74.65,1s.65,1,.84,1.34a7.37,7.37,0,0,1,.46.92,4.93,4.93,0,0,1,.13.7c0,.22.08.65.09.87a2,2,0,0,1,0,.58,4.1,4.1,0,0,1-.65.8c-.24.3-.75.88-1,1.21a9.15,9.15,0,0,0-.54,1c-.08.19-.16.59-.26.77s-.39.4-.49.55-.36.79-.55,1a2.38,2.38,0,0,1-.68.45c-.21.08-.66.06-.87.12a3,3,0,0,0-.52.2c-.11.06-.29.25-.41.29a4.75,4.75,0,0,1-.68,0,5.51,5.51,0,0,0-.84.19c-.18.06-.58.13-.68.29a.77.77,0,0,0,0,.52.8.8,0,0,0,.33.32.75.75,0,0,0,.35,0c.1,0,.25-.21.35-.2s.29.19.38.26.35.41.48.54.67.54.89.74a6.34,6.34,0,0,1,.76.75c.07.1.11.34.19.42a3.64,3.64,0,0,0,.81.39,5.66,5.66,0,0,0,.84.42,2.68,2.68,0,0,0,.8,0,1.45,1.45,0,0,0,.55-.2,1.8,1.8,0,0,0,.22-.46c0-.09.08-.3.16-.35s.24,0,.32,0a.82.82,0,0,1,.32.1,1.07,1.07,0,0,1,.2.45,2.66,2.66,0,0,1,0,.65,2.56,2.56,0,0,1-.19.77,2.21,2.21,0,0,1-.51.44,4.52,4.52,0,0,1-.7.39,5.07,5.07,0,0,1-.84.19,2.24,2.24,0,0,1-.87,0c-.16-.07-.34-.42-.46-.55a2.74,2.74,0,0,0-.44-.42c-.09-.05-.31-.16-.41-.12s-.2.46-.28.61-.24.44-.34.58-.39.48-.48.67a2.56,2.56,0,0,0-.17.59c0,.21,0,.64,0,.86a3.39,3.39,0,0,1-.16.79,4.88,4.88,0,0,1-.38.57,4.65,4.65,0,0,0-.41.62,2.07,2.07,0,0,0-.09.57,1.87,1.87,0,0,0,.12.6,1.8,1.8,0,0,0,.52.6,1.66,1.66,0,0,0,.64.1c.17,0,.51-.15.68-.16a2.39,2.39,0,0,1,.84.12,2.58,2.58,0,0,1,.75.7,3.18,3.18,0,0,1,.29.81c.05.23.06.71.1.94a4.63,4.63,0,0,0,.26.92,3.07,3.07,0,0,0,.52.67,5.19,5.19,0,0,0,.6.36,3,3,0,0,1,.45.28.82.82,0,0,1,.15.26.66.66,0,0,1,0,.39c-.06.09-.32.12-.42.16s-.45.12-.54.23a1.05,1.05,0,0,0-.1.52,1.28,1.28,0,0,0,.14.55,1,1,0,0,0,.54.3c.15,0,.39-.25.54-.29a1.44,1.44,0,0,1,.51,0,1.21,1.21,0,0,1,.41.22,1.45,1.45,0,0,1,.28.48A4.68,4.68,0,0,1,41.65,46.39Z"/></g></g></svg>