<svg xmlns="http://www.w3.org/2000/svg" viewBox="0 0 58.44 80.95"><defs><style>.cls-1{fill:#f2c90c;stroke:#f2c90c;stroke-miterlimit:10;stroke-width:0.25px;}</style></defs><title>odessa</title><g id="Слой_2" data-name="Слой 2"><g id="Layer_1" data-name="Layer 1"><path class="cls-1" d="M27.88,71.45l.67-.35.62-.35a1.67,1.67,0,0,0,.36-.19s.11-.14.07-.17-.25.18-.35.19-.32-.14-.44-.17-.2,0-.25,0-.05-.36-.06-.48.06-.53,0-.7a1.75,1.75,0,0,0-.19-.52c-.13-.19-.58-.42-.68-.62a2.22,2.22,0,0,1-.07-.81,6,6,0,0,1,.16-.86c0-.19.19-.56.23-.75a2.62,2.62,0,0,0,.12-.74c0-.1-.09-.34-.19-.36s-.25.28-.36.33-.2.06-.25,0,0-.22-.06-.26a.58.58,0,0,0-.51.1.43.43,0,0,0,0,.23c0,.12.09.34.1.45a4,4,0,0,1,0,.77c0,.2-.2.57-.23.77a10.62,10.62,0,0,1-.09,1.18,6.52,6.52,0,0,1-.46.68,2.37,2.37,0,0,0-.22.5,3.13,3.13,0,0,0,0,.83c0,.19.2.54.22.73s-.13.69-.09.92a1,1,0,0,0,.16.35c.07.1.26.29.38.31s.25-.13.33-.19.36-.31.49-.41S27.73,71.53,27.88,71.45ZM40.63,3.28a1.2,1.2,0,0,0,.72-.08.24.24,0,0,0-.08.1c0,.1.15.27.15.37a1.31,1.31,0,0,1-.09.3c0,.09,0,.31-.1.37s-.42,0-.55,0a2,2,0,0,0-.32,0c-.1,0-.28.15-.38.18a1.23,1.23,0,0,1-.34,0c-.16,0-.49-.24-.62-.15s-.08.46-.08.46l.76,1.32L39,6.62l.2,1.32,1,.48.83,3.26a2.57,2.57,0,0,0,.41.12c.23,0,.7-.27.9-.15s.17.36.2.49a2.08,2.08,0,0,1,0,.73,1.23,1.23,0,0,1-.24.36c-.11.11-.39.27-.51.37s-.32.22-.37.34a1.7,1.7,0,0,0,.05.61c0,.31.16.92.22,1.22a4.15,4.15,0,0,0,.16.85.94.94,0,0,0,.29.33,1.34,1.34,0,0,0,.5.05c.22,0,.66-.14.88-.17s.92-.09,1.23-.1a4.4,4.4,0,0,1,1.06,0,.86.86,0,0,1,.39.25c.06.1,0,.34,0,.45a1,1,0,0,0,.16.41.49.49,0,0,0,.29.09.86.86,0,0,0,.38-.24,1.52,1.52,0,0,0,.15-.35,2.23,2.23,0,0,1,.15-.44,1.38,1.38,0,0,1,.52-.33,1.48,1.48,0,0,1,.85,0,.66.66,0,0,1,.23.4.63.63,0,0,1-.15.32,1.47,1.47,0,0,1-.28.16s-.17.06-.18.11.11.32.15.42a2.73,2.73,0,0,0,.21.49.78.78,0,0,0,.3.25c.11,0,.33-.08.45-.1s.33-.06.41,0,.09.22.11.29a2.69,2.69,0,0,0,0,.28,1.2,1.2,0,0,0,.27.33c.08.06.29.11.36.19a.82.82,0,0,1,.13.45.71.71,0,0,1-.21.38c-.07,0-.27,0-.34.05s0,.24-.08.32a1.11,1.11,0,0,1-.17.36c-.05.05-.22.07-.28.11s-.19.11-.22.17a1,1,0,0,0,.06.49.85.85,0,0,0,.16.33c.1.08.41.06.52.13a1,1,0,0,1,.28.29,1,1,0,0,1,.08.51,1,1,0,0,1-.22.29c-.05.06-.2.14-.23.22a1.45,1.45,0,0,0,0,.54c0,.22.15.64.21.85a3,3,0,0,0,.25.94.72.72,0,0,0,.38.17,1.53,1.53,0,0,0,.49-.15,3.33,3.33,0,0,1,.45-.23.63.63,0,0,1,.32,0,.71.71,0,0,1,.24.3c0,.11,0,.34,0,.45a1,1,0,0,0,.17.35,2.28,2.28,0,0,0,.58.3l.36.12c.12.05.34.28.47.26s.14-.15.19-.21a2.32,2.32,0,0,1,.23-.34,1.42,1.42,0,0,1,.5-.2,1.5,1.5,0,0,1,.64,0,.66.66,0,0,1,.25.26,1.26,1.26,0,0,1,0,.51,1.87,1.87,0,0,1-.1.26l-1.29,1,.2.76,1.45-.3V29a5.38,5.38,0,0,0,1.22.22c.11,0,.3-.23.4-.19s.15.58.18.77c.06.36.12,1.1.15,1.47s.1,1.18.1,1.57a4.35,4.35,0,0,1,0,.69.84.84,0,0,1-.14.37.72.72,0,0,1-.31.05c-.16,0-.49,0-.65,0a1.71,1.71,0,0,0-.46.07.86.86,0,0,0-.27.24c-.06.09,0,.36-.13.42s-.4-.05-.53,0a4.91,4.91,0,0,0-.52.12c-.08,0-.25.1-.34.08s-.21-.26-.3-.32a.71.71,0,0,0-.24-.08,2.17,2.17,0,0,0-.39.07l-.68.73,0-.17a8,8,0,0,1-.17-1c0-.23.08-.7.07-.93a1.79,1.79,0,0,0-.07-.65c0-.07-.17-.18-.25-.17s-.18.2-.23.28a1.51,1.51,0,0,0-.29.49c0,.16.19.45.23.61a7,7,0,0,1,.12.71c0,.25,0,.76.07,1a4.2,4.2,0,0,0,.13,1.16c.08.16.41.36.54.49s.62.66.8.9a11.27,11.27,0,0,1,.67,1,4.25,4.25,0,0,1,.39.84,3.35,3.35,0,0,1,0,.78c0,.21-.16.63-.16.84a2.58,2.58,0,0,0,.12.68c0,.12.2.33.26.45a2.55,2.55,0,0,1,.22.54c0,.14,0,.46-.06.55s-.28,0-.36,0a3.23,3.23,0,0,0-.62.28,7.78,7.78,0,0,1-.67.46,5.93,5.93,0,0,1-1,.13c-.27,0-.82.08-1.09.15a1.8,1.8,0,0,0-.62.22,2.26,2.26,0,0,0-.35.74c-.13.36-.27,1.1-.36,1.47s-.31,1.43-.46,1.89a15.72,15.72,0,0,1-.83,1.87,13.27,13.27,0,0,1-1,1.54c-.26.31-.87.83-1.15,1.12s-.68.85-.94,1.1-.75.52-.94.76a6.57,6.57,0,0,0-.51.93c-.14.26-.38.8-.54,1a13,13,0,0,1-.9,1.15c-.09.11-.26.46-.39.41s0-.23,0-.3.33-.26.36-.39-.12-.43-.1-.58.26-.42.29-.58a2,2,0,0,0,0-.77,2.32,2.32,0,0,0-.45-.62c-.12-.12-.44-.27-.54-.41a1.3,1.3,0,0,1-.17-.44,2.16,2.16,0,0,1,0-.65c0-.12.21-.34.22-.47a1.44,1.44,0,0,0-.17-.59.87.87,0,0,0-.26-.28c-.15-.07-.52,0-.67-.06a1.53,1.53,0,0,1-.44-.42,1.58,1.58,0,0,1-.2-.51c0-.21.12-.62.1-.83a1.06,1.06,0,0,0-.16-.55.57.57,0,0,0-.46-.09c-.06,0-.1.19-.1.26s.13.44.12.6a.77.77,0,0,1-.17.45.48.48,0,0,1-.39,0c-.11-.08-.14-.37-.17-.49s0-.69-.1-.91a1.38,1.38,0,0,0-.17-.36,1.52,1.52,0,0,0-.48-.38,2.67,2.67,0,0,0-1.13,0,1.72,1.72,0,0,0-.62.34,2,2,0,0,0-.35.74,2.8,2.8,0,0,0,0,1.09,3.52,3.52,0,0,0,.68,1,9.45,9.45,0,0,0,1.13.84c.26.17.8.48,1.06.65s.71.51.93.7A6,6,0,0,1,41.59,56a9.06,9.06,0,0,1,.23,1c.09.24.4.66.46.9a4.78,4.78,0,0,1,0,.89,2,2,0,0,1,0,.55,1.68,1.68,0,0,1-.33.41c-.1.1-.32.25-.42.35s-.36.47-.49.61-.64.52-.83.71a5.56,5.56,0,0,1-.48.61c-.09.07-.34.07-.42.15s-.26.57-.39.73c-.28.34-1,.84-1.34,1.15s-.89,1-1.22,1.31c-.51.47-1.62,1.3-2.15,1.74s-1.48,1.27-2,1.69S31.2,69.7,30.81,70s-1,.6-1.34.78-1.19.59-1.57.81a10.16,10.16,0,0,0-.87.58,4.94,4.94,0,0,0-.58.55,3.62,3.62,0,0,0-.46.78,2.39,2.39,0,0,0-.06.45c0,.17-.11.54,0,.68s.34.15.47.16a.58.58,0,0,0,.3,0c.09-.07.09-.33.17-.39a1.09,1.09,0,0,1,.58,0,1.33,1.33,0,0,1,.55.22,1.5,1.5,0,0,1,.25.68c0,.07,0,.22,0,.29s.14.5.16.67,0,.68,0,.9.2.7.23.94a2.92,2.92,0,0,1,0,.78c-.05.22-.34.59-.42.8s-.12.5-.16.67,0,.42-.13.49-.2,0-.26,0a2.38,2.38,0,0,0-.36,0c-.1,0-.3.1-.41.1a.47.47,0,0,1-.26-.07c-.14-.14-.12-.58-.17-.77s-.4-.88-.35-1.19c0-.15.3-.36.35-.51a1.39,1.39,0,0,0,0-.67,2,2,0,0,0-.51-.55,6.45,6.45,0,0,0-1.12-.65c-.33-.15-1-.32-1.39-.42s-.84-.28-1.13-.35a14,14,0,0,0-1.5-.3,12.81,12.81,0,0,0-1.42,0,4.84,4.84,0,0,0-1.12.1,4.72,4.72,0,0,0-.83.58c-.21.16-.61.53-.84.67a5,5,0,0,1-.83.35,5.47,5.47,0,0,1-.67.12c-.12,0-.37,0-.48,0s-.25.4-.35.52-.2.17-.25.23-.28.58-.44.72a1.84,1.84,0,0,1-.59.24,1.66,1.66,0,0,1-.74.07c-.15-.06-.3-.41-.44-.5a1.75,1.75,0,0,0-.57-.17,1.77,1.77,0,0,0-.72,0,.91.91,0,0,0-.35.37c-.08.22.11.73,0,1a1.84,1.84,0,0,1-.5.7,2.26,2.26,0,0,1-.78.26,4.83,4.83,0,0,1-1.33-.09,3.12,3.12,0,0,1-.72-.33c-.16-.11-.39-.44-.57-.52a1,1,0,0,0-.44,0c-.1,0-.27.17-.37.17a2.84,2.84,0,0,1-1-.31,7.36,7.36,0,0,1-1.22-.7,11.06,11.06,0,0,1-1-1,7.41,7.41,0,0,1-.76-.89,5.33,5.33,0,0,1-.35-1,7.62,7.62,0,0,0-.17-1,3.39,3.39,0,0,0-.52-.61c-.09-.09-.3-.24-.36-.35a1.06,1.06,0,0,1,0-.39,1.56,1.56,0,0,1,.13-.6,2.2,2.2,0,0,1,.62-.43A4.13,4.13,0,0,1,1.8,72a2.68,2.68,0,0,1,.55,0c.17,0,.49.1.65.09s.45-.17.61-.15a1.43,1.43,0,0,1,.35.2,1.67,1.67,0,0,0,.35.22,1,1,0,0,0,.58-.1.91.91,0,0,0,.2-.36c.05-.16,0-.5.07-.67s.05-.33.15-.38.29.17.38.13.13-.25.16-.33A3,3,0,0,0,6,69.88c0-.16-.16-.44-.17-.59s.09-.46.07-.61a1.65,1.65,0,0,0-.16-.46c-.05-.09-.24-.23-.28-.33a.93.93,0,0,1,0-.41A1.94,1.94,0,0,1,5.76,67a1.37,1.37,0,0,1,.41-.38.94.94,0,0,1,.42,0s.09.07.13.07a.83.83,0,0,0,.51-.13c.12-.12.12-.5.19-.65a1,1,0,0,1,.22-.39c.12-.08.44,0,.57-.06s.35-.38.48-.49a1.71,1.71,0,0,1,.42-.32c.17-.06.55.07.73,0a1.13,1.13,0,0,0,.44-.23,2.68,2.68,0,0,0,.54-1.19,2.42,2.42,0,0,0-.16-.58,4.15,4.15,0,0,1-.16-.57,3.26,3.26,0,0,1,.07-.81,1.83,1.83,0,0,1,.29-.7,3.39,3.39,0,0,1,.94-.33l1.06-.39c.28-.11.85-.31,1.13-.44s.61-.18.71-.35a1.13,1.13,0,0,0,0-.62,4.14,4.14,0,0,0-.29-.58,3.22,3.22,0,0,1-.26-.57,1.2,1.2,0,0,1,0-.57c.08-.16.41-.35.54-.46s.62-.56.81-.76a8.23,8.23,0,0,0,.83-.94,1.46,1.46,0,0,0,.2-.46.81.81,0,0,0-.1-.41c-.08-.11-.34-.2-.45-.28a4,4,0,0,1-.78-.65,2.72,2.72,0,0,1-.25-.71,12.7,12.7,0,0,1-.16-1.29c0-.43,0-1.29-.1-1.71a8.11,8.11,0,0,0-.29-1c-.05-.16-.21-.45-.25-.61s-.06-.24,0-.31a.64.64,0,0,1,.36-.14c.2,0,.6.13.8.12a2.65,2.65,0,0,0,.75-.17c.25-.12.61-.57.87-.67s.53,0,.7,0a4.06,4.06,0,0,0,.68-.45,6,6,0,0,1,.51-.35c.12-.06.39-.2.52-.16a.73.73,0,0,1,.31.35,2.38,2.38,0,0,1,0,.77c0,.24-.14.7-.16.94a8.61,8.61,0,0,0,0,1.18c0,.17,0,.55.13.67a.5.5,0,0,0,.35.07,1.67,1.67,0,0,0,.61-.49,2.56,2.56,0,0,0,.33-.62c0-.14,0-.43.09-.57a1.59,1.59,0,0,1,.41-.61.75.75,0,0,1,.49-.07c.12,0,.25.29.32.41a6.12,6.12,0,0,1,.26.61c0,.11.06.4.17.45s.16,0,.19-.08a1.4,1.4,0,0,0,.16-.54,3,3,0,0,1,0-.54,1.08,1.08,0,0,1,.32-.31,1.3,1.3,0,0,1,.6-.24,1.14,1.14,0,0,1,.45.33,8.64,8.64,0,0,1,.54.83c.21.31.66.91.89,1.21s.37.62.58.73a.8.8,0,0,0,.45,0,2.18,2.18,0,0,0,.51-.4,3.24,3.24,0,0,0,.56-.53,1.58,1.58,0,0,0,.16-.6c0-.12-.12-.34-.12-.46a1,1,0,0,1,.15-.5.54.54,0,0,1,.33-.15c.15,0,.38.26.49.36s.52.54.7.71.76.52.88.79a.9.9,0,0,1,0,.38c0,.12-.19.32-.17.44a1.19,1.19,0,0,0,.37.49,3.48,3.48,0,0,0,.62.35c.16.07.48.3.64.25s.2-.31.26-.42.18-.46.27-.6.26-.35.39-.38.4.16.54.2a5.82,5.82,0,0,0,.66.09c.18,0,.55,0,.73,0a5.75,5.75,0,0,0,1-.07,3.08,3.08,0,0,0,.54-.23c.12-.06.39-.17.45-.29a.52.52,0,0,0,0-.39c-.06-.09-.3-.12-.41-.14s-.59,0-.75,0a1.65,1.65,0,0,1-.41-.48c-.12-.17-.24-.58-.38-.74a5.22,5.22,0,0,0-.73-.51l-.51-.38c-.14-.1-.45-.27-.58-.39s-.38-.34-.39-.49a.79.79,0,0,1,.23-.42c.13-.13.51-.21.62-.35a2,2,0,0,0,.29-.8,7.49,7.49,0,0,0-.09-1,7,7,0,0,1,0-.78c0-.19.13-.55.16-.74a3,3,0,0,0,.07-.81,1.94,1.94,0,0,0-.35-.58c-.12-.13-.44-.31-.54-.45s-.22-.36-.17-.48.33-.14.44-.19.32-.07.36-.16,0-.29-.07-.38a1.12,1.12,0,0,0-.32-.46c-.11-.05-.37.06-.48,0s-.29-.32-.36-.44a3.91,3.91,0,0,0-.29-.57.72.72,0,0,0-.29-.13,2.52,2.52,0,0,0-.57.09,2.17,2.17,0,0,1-.54.1.91.91,0,0,1-.33-.19,6.92,6.92,0,0,1-.55-.78,4.56,4.56,0,0,0-.67-.83,5.36,5.36,0,0,0-.73-.25c-.18-.08-.53-.29-.7-.39a2.06,2.06,0,0,0-.38-.25c-.08,0-.26,0-.35,0s-.34-.18-.35-.29.28-.32.35-.45a1.42,1.42,0,0,0,.13-.44c0-.13-.14-.38-.12-.51s.31-.46.39-.62a3.2,3.2,0,0,0,.32-.78,1,1,0,0,0-.07-.55c-.08-.09-.34-.14-.46-.16a6,6,0,0,0-.73,0c-.14,0-.45.07-.58,0a.67.67,0,0,1-.2-.32,1,1,0,0,1,0-.57c.07-.11.34-.16.45-.22a2.05,2.05,0,0,0,.55-.25.86.86,0,0,0,.13-.39,5,5,0,0,0-.12-.84,6.38,6.38,0,0,1-.13-.94,2.11,2.11,0,0,1,.19-.68c.08-.15.38-.34.48-.48a1.63,1.63,0,0,0,.26-.49,1.6,1.6,0,0,0-.09-.62,2.79,2.79,0,0,0-.38-.58,2.52,2.52,0,0,0-.55-.54,1.49,1.49,0,0,0-.65-.12,1.35,1.35,0,0,0-.44.22,5.44,5.44,0,0,0-.51.51c-.14.15-.38.5-.57.59a.81.81,0,0,1-.57.07c-.12-.07-.13-.39-.17-.52a4.42,4.42,0,0,1-.25-.73c0-.19.13-.56.12-.75a1.72,1.72,0,0,0-.19-.67c-.06-.08-.26-.17-.33-.23a5.93,5.93,0,0,1-1-.9c-.1-.16-.14-.57-.26-.71a1,1,0,0,0-.48-.25,1.56,1.56,0,0,0-.49.2,2.6,2.6,0,0,1-.46.25.75.75,0,0,1-.41-.07.9.9,0,0,1-.2-.38c0-.12-.1-.39,0-.49s.31-.13.42-.15.37.08.45,0,.08-.42,0-.55a.69.69,0,0,0-.26-.36c-.1,0-.32.09-.44.09a1.14,1.14,0,0,1-.57-.12,1.19,1.19,0,0,1-.2-.57,1,1,0,0,1,0-.51,1.29,1.29,0,0,1,.6-.32c.12,0,.36,0,.48,0a1.08,1.08,0,0,0,.45-.22,1,1,0,0,0,.1-.41,8.87,8.87,0,0,0-.07-1,8.32,8.32,0,0,1-.07-1.2,4.52,4.52,0,0,1,.26-.8,5.58,5.58,0,0,1,.35-.71,7,7,0,0,1,.58-.73c.11-.12.44-.3.48-.46a.4.4,0,0,0-.12-.29c-.12-.09-.43,0-.58,0s-.47.08-.58,0a.58.58,0,0,1-.06-.44c0-.14.3-.33.38-.45a2.41,2.41,0,0,0,.32-.67,1.86,1.86,0,0,0-.1-.89c-.08-.14-.4-.28-.5-.41a3.15,3.15,0,0,1-.28-.64,6.16,6.16,0,0,0-.32-1.08A1.11,1.11,0,0,0,20,6.44a1.67,1.67,0,0,0-.57.12,1.58,1.58,0,0,0-.41.13c-.16.12-.33.51-.48.64a1.07,1.07,0,0,1-.45.25,1.58,1.58,0,0,1-.59-.26c-.27-.16-.73-.56-1-.74s-.45-.27-.58-.38a3.9,3.9,0,0,1-.51-.54A5.18,5.18,0,0,1,15,4.79c-.07-.19-.13-.55-.2-.81l1.36-.07.6-2.09,1.13,0,1-1.54,1.92,2,.58.06L22.69,4l3.24-.81.42.92,1.42.07L28,3.12l1.68.28V4.5l.81.12V2.94L29.36,1.69,30.1,1l.71.57.86-1V.5l.83,0,.58.85,1,0,0-1.16.49.06.28.55c.11.23.31.71.45.93a5.69,5.69,0,0,0,.75.86,3,3,0,0,0,.64.42,3.41,3.41,0,0,0,.94.15,9.5,9.5,0,0,0,1-.16,3.3,3.3,0,0,1,.41-.05,4.48,4.48,0,0,1,.78.14C40,3.1,40.43,3.25,40.63,3.28ZM35.54,65.53c0-.09-.1-.25-.12-.34s0-.14,0-.16-.37,0-.48,0-.29-.31-.42-.34a1.5,1.5,0,0,0-.75.22,1.42,1.42,0,0,0-.41.39c-.07.13,0,.47-.11.59a.52.52,0,0,1-.36.17c-.09,0-.21-.2-.23-.29s.14-.27.09-.34-.23,0-.29,0a1.06,1.06,0,0,0-.22.53,3,3,0,0,0,0,.75c0,.17.16.48.19.64s0,.52,0,.7,0,.33.07.36.13-.09.17-.12.38-.36.51-.48l.45-.38.58-.51.74-.6a3.92,3.92,0,0,0,.5-.45A.79.79,0,0,0,35.54,65.53Zm-3.35,3a1.11,1.11,0,0,0,0-.41c0-.12-.06-.34-.07-.46a2,2,0,0,0-.07-.45.54.54,0,0,0-.14-.15c-.06,0-.22-.06-.27-.11s0-.29-.12-.35a.46.46,0,0,0-.29,0c-.06,0-.14.12-.2.12s-.33-.15-.45-.15a.73.73,0,0,0-.33.09,1.47,1.47,0,0,0-.36.49,1.94,1.94,0,0,0-.11.73,1.63,1.63,0,0,0,.17.44c.05.09.21.25.25.35a1.88,1.88,0,0,1,.12.45c0,.11,0,.33,0,.44s.09.32.18.34.23-.16.3-.22l.31-.3.37-.31.45-.31A1,1,0,0,0,32.19,68.58Z"/></g></g></svg>