<svg xmlns="http://www.w3.org/2000/svg" viewBox="0 0 59.38 48.46"><defs><style>.cls-1{fill:#f2c90c;stroke:#f2c90c;stroke-miterlimit:10;stroke-width:0.25px;}</style></defs><title>poltava</title><g id="Слой_2" data-name="Слой 2"><g id="Layer_1" data-name="Layer 1"><path class="cls-1" d="M3.14,11.74v-.4l-1.77-.42L.13,9V9L.47,6.05l.73-.37.63.51L3.07,4.63l1.17-1,.61.46H6.53l.24,1.3,2.48.12V4.8h.48l.39.52,1.8-.14,2.23-2.12.33-.79.92-.22.77-1.6V.37l.17,0a1.45,1.45,0,0,1,.35,0,2.31,2.31,0,0,1,.61.15c.18.09.47.39.65.48a1.84,1.84,0,0,0,.57.19A.88.88,0,0,0,19,1a1,1,0,0,0,.17-.35,3.81,3.81,0,0,1,.09-.38s.09-.16.14-.16.18.14.24.19.28.26.36.36a5.25,5.25,0,0,0,.46.53,1.42,1.42,0,0,0,.49.22,3.49,3.49,0,0,0,.74-.13,2.23,2.23,0,0,1,.41-.06,1.07,1.07,0,0,1,.34.11c.07,0,.22.13.25.21s-.12.3-.09.39a.66.66,0,0,0,.33.27,2.56,2.56,0,0,0,.47,0c.18,0,.54.13.73.13a.77.77,0,0,0,.32-.06A1,1,0,0,0,24.61,2a1.65,1.65,0,0,1,.15-.27.89.89,0,0,1,.4-.2.87.87,0,0,1,.3.09c.15.07.43.26.58.33a8.16,8.16,0,0,0,.9.36,6.49,6.49,0,0,0,1.18.25,3.06,3.06,0,0,0,1-.13.85.85,0,0,0,.36-.31c0-.11-.09-.35-.06-.46a.64.64,0,0,1,.22-.23.88.88,0,0,1,.33-.1c.08,0,.22.09.3.09a2.37,2.37,0,0,0,.55-.15c.16-.05.46-.2.62-.23a2.13,2.13,0,0,1,.6,0c.14,0,.37.19.51.21s.47,0,.63,0a1.85,1.85,0,0,1,.44.1,1.62,1.62,0,0,1,.33.25c.1.09.22.35.33.42s.15.09.2.07.11-.21.13-.29a1.56,1.56,0,0,0,0-.53c0-.11-.2-.29-.22-.4a.53.53,0,0,1,.07-.37c.15-.12.58,0,.77,0s.75,0,1,0A4.05,4.05,0,0,1,37,.53a1,1,0,0,1,.38.17.72.72,0,0,1,.07.36c0,.12-.12.36-.13.48a5.67,5.67,0,0,0,0,.92,5.09,5.09,0,0,0,.15.83,4.08,4.08,0,0,0,.37.75,8,8,0,0,0,.73.81c.13.13.43.36.54.51a1.41,1.41,0,0,1,.23.38.53.53,0,0,1,0,.23c0,.08-.17.19-.21.27a.91.91,0,0,0-.14.35.56.56,0,0,0,.19.34c.08,0,.26,0,.35,0a2.57,2.57,0,0,1,.42.14,4.52,4.52,0,0,1,.67.28,1.18,1.18,0,0,1,.38.35c0,.1-.05.33,0,.42a.78.78,0,0,0,.34.25c.11,0,.37,0,.46,0s.07.21.1.28.18.24.19.34a.66.66,0,0,1-.13.32,1.53,1.53,0,0,1-.45.34c-.1,0-.39,0-.45.08s.18.4.24.53a5.11,5.11,0,0,0,.42.79,1.42,1.42,0,0,0,.45.34,5,5,0,0,0,.65,0,4.47,4.47,0,0,1,.74.22c.17.06.47.31.65.32a1.78,1.78,0,0,0,.53-.21l.38-1.63.47.17.11.44.74.19.77-.83,1.59.59s.49,1.39.19,1.8c-.08.11-.4.06-.51.13a.68.68,0,0,0-.22.25,3.5,3.5,0,0,0,0,.65,3.35,3.35,0,0,1-.19.89c0,.07-.18.16-.2.23a1.3,1.3,0,0,0,0,.57,4.55,4.55,0,0,0,.3.63,4.57,4.57,0,0,0,.26.61,4.52,4.52,0,0,0,.64.54,4.58,4.58,0,0,0,.83.65.69.69,0,0,0,.38,0c.09,0,.15-.28.25-.29s.42.53.63.52.3-.27.3-.27l.2.62H53.3l.54.32.3,3s.1.28.19.33.41,0,.54,0,.4,0,.48.09,0,.35,0,.45a1.4,1.4,0,0,0,.36.28l2.13.15L59.24,25a3.06,3.06,0,0,1-.05.52c0,.12-.25.31-.27.44a.94.94,0,0,0,.07.48c0,.08.25.15.27.24s-.15.34-.2.46-.14.57-.29.68a.85.85,0,0,1-.52,0c-.15,0-.37-.31-.52-.36a2.6,2.6,0,0,0-.79,0,1.24,1.24,0,0,0-.54.12,1.22,1.22,0,0,0-.23.61,1.57,1.57,0,0,0,.09.54,2.46,2.46,0,0,0,.34.51c.12.14.44.35.54.5s.34.57.28.76-.48.38-.63.51a4.26,4.26,0,0,0-.49.44,2,2,0,0,0-.42.81c0,.15.28.39.26.54a.71.71,0,0,1-.3.39,1.06,1.06,0,0,1-.5,0c-.11,0-.31-.17-.42-.2s-.58,0-.76,0-.39-.19-.53-.22-.56,0-.75,0-.78-.15-1-.2-.69-.25-.89-.14-.53,1-.63,1.33a6.07,6.07,0,0,0-.09.76l1.23,2.35a1.43,1.43,0,0,1-.34.21,1.51,1.51,0,0,1-.67-.14c-.12-.06-.28-.3-.4-.35a1.06,1.06,0,0,0-.52-.05,1.31,1.31,0,0,0-.34.26c-.08.06-.19.29-.28.27s-.14-.31-.23-.38a1.1,1.1,0,0,0-.52-.19,1.76,1.76,0,0,0-.57.22c-.15.08-.41.3-.56.37s-.5.13-.65.22-.25.26-.35.33-.6.32-.79.44l-.54.35c-.19.12-.58.33-.76.46a4.35,4.35,0,0,0-.5.39c-.16.16-.32.67-.53.74-.57.18-1.7-1.05-2.25-.82-.34.15-.33,1.12-.61,1.36-.09.08-.39,0-.47.13-.24.3,0,1.16-.1,1.52,0,.13-.28.34-.33.47a3.13,3.13,0,0,0-.1.74,6.45,6.45,0,0,0,.05,1.1,2.07,2.07,0,0,0,.2.58c.07.1.31.22.37.33a.69.69,0,0,1,.05.25,7.39,7.39,0,0,1-.12.79c0,.2.11.68-.05.79s-.3-.06-.38-.11-.18-.27-.27-.25-.19.45-.22.61a4,4,0,0,0,0,.7A1.92,1.92,0,0,1,38.3,48a2.54,2.54,0,0,1-.65-.88c0-.17.12-.52.12-.7a1.49,1.49,0,0,0-.12-.64.57.57,0,0,0-.3-.17c-.12,0-.34.22-.45.17s-.1-.18-.12-.25.07-.36,0-.46-.16-.17-.23-.16-.18.24-.25.32a2.64,2.64,0,0,1-.58.57.55.55,0,0,1-.35,0,.48.48,0,0,1-.19-.33c0-.07.17-.14.19-.2a.35.35,0,0,0-.06-.26c-.08-.07-.3-.05-.41,0s-.38.14-.51.16a3,3,0,0,1-.77-.06,4.93,4.93,0,0,1-.87-.35,8,8,0,0,1-.86-.55c-.22-.16-.61-.55-.83-.71s-.68-.48-.91-.62-.73-.38-1-.54-.24-.24-.35-.28a.52.52,0,0,0-.29,0c-.07,0-.13.23-.2.26a.79.79,0,0,1-.41,0,3.42,3.42,0,0,1-.49-.31l-.57-.38-1-.61c-.09-.05-.25-.21-.35-.2a.68.68,0,0,0-.41.35,1.21,1.21,0,0,0,.15.67,1.57,1.57,0,0,0,.32.36c.14.12.48.26.63.36a4.22,4.22,0,0,1,.55.48,1.24,1.24,0,0,1,.13.22l-.58,1.22-.48,0-.31-.55H24.25l-.35-.6H23L22.9,44l-.93-.3-1.41-2.35.9.07.17-.61-.13-.54a1,1,0,0,0,.34-.28.93.93,0,0,0,.07-.39c0-.12,0-.38-.09-.46s-.5-.07-.67-.1h0l.37-.24L21,38l-.9,0v0a1.53,1.53,0,0,0-.28-.38,5.14,5.14,0,0,0-.64-.25,5.86,5.86,0,0,1-.7-.45,3.77,3.77,0,0,1-.61-.55,11,11,0,0,1-.6-1.29c-.08-.15-.18-.5-.32-.6s-.6-.06-.78-.12a2.21,2.21,0,0,1-.57-.29c-.18-.16-.41-.6-.58-.77a5.4,5.4,0,0,0-.87-.62c-.06,0-.2-.05-.25-.1s-.12-.25-.07-.32.35,0,.45-.07a1.33,1.33,0,0,0,.38-.42,4.26,4.26,0,0,0,.2-.86c0-.22.29-.71.15-.89s-.3,0-.39,0-.31.29-.41.39a4.8,4.8,0,0,0-.54.58c-.06.1-.06.36-.16.42a.49.49,0,0,1-.45,0c-.08-.09,0-.35,0-.46a1.86,1.86,0,0,0-.13-.61,1.33,1.33,0,0,0-.42-.39,2.39,2.39,0,0,0-.67-.13,6.86,6.86,0,0,1-.8,0,.89.89,0,0,1-.36-.2,1.13,1.13,0,0,1-.17-.57,1.89,1.89,0,0,1,.26-.62c.11-.18.43-.48.54-.67a6.19,6.19,0,0,0,.45-1.23,5.24,5.24,0,0,0,.12-1.07c0-.13,0-.43-.1-.51a.52.52,0,0,0-.42,0c-.09,0-.12.28-.2.33a.46.46,0,0,1-.32,0c-.05,0-.09-.15-.13-.2a1.93,1.93,0,0,0-.18-.25l.06-.82L9.2,23.75l-.94-.27L8,22.94l.17-.31,0-.62L6.88,20.95l-.43.24L4.67,18.73l.82-.68-.12-1.42-.73-.29.11-1.81L4.37,14l-1.28-.06-.38-.48.18-1.65Z"/></g></g></svg>