<svg xmlns="http://www.w3.org/2000/svg" viewBox="0 0 47.4 52.29"><defs><style>.cls-1{fill:#f2c90c;stroke:#f2c90c;stroke-miterlimit:10;stroke-width:0.25px;}</style></defs><title>rovno</title><g id="Слой_2" data-name="Слой 2"><g id="Layer_1" data-name="Layer 1"><path class="cls-1" d="M36.58,39.85l-.06,0-.87,0-.44-1.18-.86.32-.29.73-1.06,0-.58.6-1.21-.75-1,.57s0,.42-.15.49-.35-.07-.46-.07a2.31,2.31,0,0,0-.77.1,1.3,1.3,0,0,0-.44.42,4,4,0,0,0-.12.71,7.79,7.79,0,0,1-.29.94c0,.09-.1.3-.19.35s-.31,0-.41,0a5.13,5.13,0,0,0-1.09.87,5.37,5.37,0,0,0-.73.62c-.11.15-.19.52-.29.67a4.86,4.86,0,0,1-.74.73,5.46,5.46,0,0,1-1,.68,4.63,4.63,0,0,1-.86.15,2.82,2.82,0,0,0-.52,0,2.74,2.74,0,0,0-.58.46c-.24.23-.66.74-.9,1a6.2,6.2,0,0,1-1,.83,6.17,6.17,0,0,1-1.13.32l.08-1.66s.34-.39.44-.53.23-.26.22-.36-.17-.2-.25-.24a.93.93,0,0,0-.34-.09,2.45,2.45,0,0,0-.41.12,2,2,0,0,1-.39.09,3.18,3.18,0,0,1-.84-.21c-.12,0-.33-.21-.45-.25a1.38,1.38,0,0,0-.48-.08,2,2,0,0,0-.4.21c-.09,0-.27.21-.38.2s-.28-.19-.36-.27a6.23,6.23,0,0,0-.45-.56.86.86,0,0,0-.39-.13,1.17,1.17,0,0,0-.48.23,2.37,2.37,0,0,0-.33.42c-.1.15-.28.46-.36.62a3.09,3.09,0,0,1-.19.45,2.79,2.79,0,0,1-.55.38,4.39,4.39,0,0,1-.54.3,1.67,1.67,0,0,1-.7.16c-.16,0-.38-.31-.51-.4l-.22-.14-1.58,0-.45.46c-.08.08-.2.3-.3.32s-.5-.27-.65-.37-.41-.35-.55-.45a2.31,2.31,0,0,0-.4-.21c-.11,0-.35-.12-.46-.07s-.25.37-.28.51a1.88,1.88,0,0,0,0,.63,2.31,2.31,0,0,0,.2.45c.07.13.27.38.34.51a2,2,0,0,1,.17.46.87.87,0,0,1,0,.42,1.23,1.23,0,0,1-.49.31c-.2.08-.64.06-.83.15a6.73,6.73,0,0,0-1.18,1.06l-.16.17L.3,48.19.24,45.45l1-.52,0-.65L.13,44V43l1.06-.27-.29-.91a1,1,0,0,1,.22-.06c.07,0,.21.09.28.09a.49.49,0,0,0,.27-.12.53.53,0,0,0,0-.33A1.18,1.18,0,0,0,1.46,41c-.1-.1-.38-.22-.46-.34A1.38,1.38,0,0,1,.89,40a5.32,5.32,0,0,1,.21-.76,2.92,2.92,0,0,0,.12-.56,1.83,1.83,0,0,0-.16-.56C1,38,.73,37.81.65,37.66a1.12,1.12,0,0,1-.19-.51.77.77,0,0,1,.33-.39,1.58,1.58,0,0,1,.73,0A2.62,2.62,0,0,1,2,37a4.69,4.69,0,0,0,.64.39,1.24,1.24,0,0,0,.54,0,.92.92,0,0,0,.31-.24,1.51,1.51,0,0,0,.18-.47c0-.16,0-.48,0-.63a1,1,0,0,1,.19-.47,1,1,0,0,1,.52-.05c.12,0,.33.2.44.15s.13-.26.16-.35a3.48,3.48,0,0,1,.21-.65,1.52,1.52,0,0,1,.58-.38,3.49,3.49,0,0,1,.78,0l1.07,0a6,6,0,0,0,.84,0A1.49,1.49,0,0,0,9,34a1.1,1.1,0,0,0,.18-.39,4.44,4.44,0,0,1,.06-.46c0-.05.1-.16.15-.17s.42.22.57.3a4.71,4.71,0,0,1,.59.31,1.39,1.39,0,0,1,.32.37c0,.1,0,.33,0,.44s.11.38.22.44.43,0,.57,0a1.33,1.33,0,0,1,.44,0,.88.88,0,0,1,.28.37c0,.11,0,.38.05.49a.78.78,0,0,0,.23.2c.08,0,.26.17.34.13s.11-.29.13-.38.06-.39.07-.52,0-.3,0-.4.19-.5.25-.66.26-.68.32-.91.16-.73.2-1a3.56,3.56,0,0,1,.12-.83A1.39,1.39,0,0,1,14.7,31a3.26,3.26,0,0,1,.73-.12l1-.1c.12,0,.39,0,.49,0a.62.62,0,0,0,.17-.28.82.82,0,0,0,0-.39c-.05-.14-.32-.32-.41-.44a1.67,1.67,0,0,1-.26-.41,2.32,2.32,0,0,1,0-.68,2.47,2.47,0,0,1,.17-.76,2.38,2.38,0,0,1,.48-.4c.27-.21.92-.51,1.1-.79a1.5,1.5,0,0,0,.12-.51,3.67,3.67,0,0,0,0-.64,1.53,1.53,0,0,0-.14-.59,1.3,1.3,0,0,0-.55-.29c-.12,0-.37,0-.49,0a3,3,0,0,1-.64-.19,1.11,1.11,0,0,1-.39-.29,1.39,1.39,0,0,1,0-.54,1.31,1.31,0,0,1,0-.44.47.47,0,0,1,.18-.16,1.15,1.15,0,0,1,.41,0c.09,0,.27.12.36.11a1.24,1.24,0,0,0,.43-.26,3.43,3.43,0,0,0,.34-.38c.07-.08.23-.24.25-.34a1.32,1.32,0,0,0-.13-.54,2.39,2.39,0,0,0-.2-.33,10.94,10.94,0,0,0-.67-.88c-.1-.11-.36-.27-.43-.41a1.48,1.48,0,0,1,0-.41,5.38,5.38,0,0,0,0-.6,2.69,2.69,0,0,0-.26-.62c-.11-.17-.41-.45-.54-.61a6.84,6.84,0,0,1-.51-.72,2.17,2.17,0,0,1-.19-.47,6.91,6.91,0,0,1,0-1,2.76,2.76,0,0,0,0-.54.38.38,0,0,0-.12-.2.63.63,0,0,0-.41,0,1.68,1.68,0,0,0-.38.44c-.05.07-.09.3-.18.31s-.18-.15-.24-.2-.19-.24-.28-.28a.66.66,0,0,0-.31,0c-.1,0-.25.18-.35.2a.54.54,0,0,1-.31,0c-.09-.06-.15-.3-.21-.4s-.21-.32-.28-.43-.28-.32-.31-.46a2.17,2.17,0,0,1,.09-.45,5.26,5.26,0,0,0,0-.75,2.12,2.12,0,0,0-.09-.44,1.17,1.17,0,0,0-.19-.3c-.08-.07-.3-.13-.36-.22a1.36,1.36,0,0,1-.09-.47,1.8,1.8,0,0,1,0-.54,1.19,1.19,0,0,1,.16-.22,1.14,1.14,0,0,0,.2-.32,1.6,1.6,0,0,0-.16-.62c-.09-.21-.35-.59-.46-.79s-.23-.31-.21-.42a.23.23,0,0,1,.14-.13c.1,0,.27.14.37.16a1,1,0,0,0,.37,0,1.32,1.32,0,0,0,.38-.3,1.89,1.89,0,0,0,.25-.39c0-.1.08-.31.11-.41a4.24,4.24,0,0,1,.17-.46c.07-.14.26-.39.33-.53a3.59,3.59,0,0,0,.32-.69,2.59,2.59,0,0,0,0-.75,1.22,1.22,0,0,0-.17-.45.92.92,0,0,0-.23-.11c-.06,0-.2-.06-.23-.12s.05-.35.09-.46.24-.43.28-.59,0-.34,0-.44a1.27,1.27,0,0,1,.32-.41c.11-.09.42-.12.53-.21A1.28,1.28,0,0,0,14,1.59c0-.1.1-.35,0-.42s-.47.13-.63.15a4.11,4.11,0,0,1-.83,0,1.67,1.67,0,0,1-.41-.13,1.58,1.58,0,0,1-.43-.38,1.78,1.78,0,0,1-.17-.58l1.29,0c.52,0,1.56-.09,2.08,0a2.62,2.62,0,0,1,.56.12c.15.06.38.31.53.35s.54-.08.72,0a5.33,5.33,0,0,1,.7.37,3.5,3.5,0,0,0,.74.27c.15,0,.44-.09.59-.08a3.49,3.49,0,0,1,.7.21c.21.08.62.28.83.37a12.77,12.77,0,0,1,1.24.58c.26.17.65.68.94.79a3.47,3.47,0,0,0,.93.05c.27,0,.81-.05,1.08,0a3.42,3.42,0,0,1,.93.16,3.18,3.18,0,0,1,.65.59c.17.18.42.61.59.79a2.85,2.85,0,0,0,.71.61,1.12,1.12,0,0,0,.4,0,2.65,2.65,0,0,0,.5-.15,7.82,7.82,0,0,1,.8-.44,2.3,2.3,0,0,1,1,0,3.79,3.79,0,0,1,.77.62c.21.18.58.58.81.73a4.16,4.16,0,0,0,.55.27c.22.09.69.21.9.3s.61.39.84.46a2.87,2.87,0,0,0,.72.08c.28,0,.83-.16,1.11-.21s1-.14,1.33-.15a4.84,4.84,0,0,1,1.39.1.92.92,0,0,1,.35.27,1.67,1.67,0,0,1,.12.62c0,.29-.2.87-.16,1.15a1.74,1.74,0,0,0,.44.92c.15.11.63-.09.74.06s-.08.4-.09.54,0,.35,0,.44.31.07.41.12.31.25.44.29.66,0,.87,0,.78.41,1.06.41a3.6,3.6,0,0,0,.71-.28,3.57,3.57,0,0,1,.81-.17,4.42,4.42,0,0,1,1,.25c.26.08.74.34,1,.41a4.55,4.55,0,0,1,.78.12c.12.06.34.27.35.41s-.36.52-.48.7-.44.58-.55.8-.18.3-.16.41a.23.23,0,0,0,0,.07l-.26.28-.35.7-.48.1-.34,2.12-.3.29s-.29-.35-.38-.48a8.17,8.17,0,0,0-.46-.73c-.08-.08-.25-.27-.36-.26s-.32.22-.38.33a4,4,0,0,0-.15.8c0,.18-.29.54-.22.71s.29.12.36.19a1,1,0,0,1,.25.35.85.85,0,0,1,0,.49c-.07.11-.32.2-.44.26l-.26.12-.58.06.1,2.63L40,24a1.91,1.91,0,0,0-.33.39c0,.13,0,.43,0,.57a2.62,2.62,0,0,1-.23.39,3.36,3.36,0,0,1-.16.31c-.07.08-.28.18-.32.28a1.31,1.31,0,0,0,0,.51c0,.06.07.19.06.25a.77.77,0,0,1-.32.39c-.1,0-.32,0-.42,0a5,5,0,0,0-.81.32,2.16,2.16,0,0,0-.48.2.71.71,0,0,0-.23.38c0,.18.34.42.42.58a3.53,3.53,0,0,1,.23.74,1.09,1.09,0,0,1,0,.48c0,.08-.28.13-.29.22s.2.3.26.41.3.5.38.68a1.31,1.31,0,0,1,.17.48c0,.13-.24.32-.29.44a1.32,1.32,0,0,0-.1.46c0,.16.2.45.23.61a2.09,2.09,0,0,1,0,.55c0,.14-.16.39-.17.52s.09.61.09.81a3,3,0,0,1-.07.68,3.91,3.91,0,0,1-.48.83,11,11,0,0,1-.9,1l-.41.36.1.48.63.44.65.46-.1.42Z"/></g></g></svg>