<svg xmlns="http://www.w3.org/2000/svg" viewBox="0 0 78.62 50.4"><defs><style>.cls-1{fill:#f2c90c;stroke:#f2c90c;stroke-miterlimit:10;stroke-width:0.25px;}</style></defs><title>simferopol</title><g id="Слой_2" data-name="Слой 2"><g id="Layer_1" data-name="Layer 1"><path class="cls-1" d="M78.48,17.76a5.34,5.34,0,0,1,0,.82c0,.56.08,1.69,0,2.24A3.93,3.93,0,0,1,78.17,22a1.58,1.58,0,0,1-.53.48,1.6,1.6,0,0,1-.75.05c-.15,0-.37-.27-.51-.33a1.06,1.06,0,0,0-.49-.08.7.7,0,0,0-.28.25,1.35,1.35,0,0,0-.1.44c0,.12.06.36,0,.48a1.75,1.75,0,0,1-.27.53c-.17.22-.66.52-.85.72s-.26.27-.28.38,0,.34.12.36.17-.2.25-.23a.49.49,0,0,1,.36,0,.66.66,0,0,1,.08.47c0,.12-.23.3-.26.41a2.9,2.9,0,0,0,0,1,4.11,4.11,0,0,0,.36.88c.12.22.52.59.59.84a1.43,1.43,0,0,1-.05.65,2,2,0,0,1-.45.6,2.69,2.69,0,0,1-.82.41c-.25.06-.76,0-1,0a4.84,4.84,0,0,0-1.11.33,3.17,3.17,0,0,0-.53.4c-.08.08-.19.31-.29.35s-.36-.06-.48-.09c-.39-.09-1.16-.35-1.56-.41a4.53,4.53,0,0,0-1.19,0,4.16,4.16,0,0,0-1,.47c-.18.11-.45.45-.65.52a3.89,3.89,0,0,1-.74,0A5.18,5.18,0,0,0,65,32a3.39,3.39,0,0,1-.36.15,1.74,1.74,0,0,1-.65-.13,2.28,2.28,0,0,1-.62-.48c-.16-.19-.28-.7-.42-.9a4.08,4.08,0,0,0-.69-.64,4.36,4.36,0,0,0-.85-.48,5.06,5.06,0,0,0-1-.15,11.9,11.9,0,0,0-2.3.13,7.34,7.34,0,0,0-1.58.62,4.21,4.21,0,0,0-.87.7,1.24,1.24,0,0,0-.27.52c0,.13.19.36.21.49a1.43,1.43,0,0,1-.15.66c-.06.1-.28.2-.36.28a.93.93,0,0,0-.23.3,1.17,1.17,0,0,0,.11.45,1.43,1.43,0,0,1,.11.24c0,.13,0,.44-.14.51s-.41-.06-.52-.12-.29-.37-.43-.42a1.2,1.2,0,0,0-.67,0,1.1,1.1,0,0,0-.36.35c-.08.14-.09.49-.16.64a1.7,1.7,0,0,1-.37.49,2.53,2.53,0,0,1-.52.17,2.2,2.2,0,0,0-.58.2,2.39,2.39,0,0,0-.4.79,8.71,8.71,0,0,1-.2.85,2.6,2.6,0,0,1-.6.64,2.21,2.21,0,0,1-.93.41,1.86,1.86,0,0,1-.7-.34c-.15-.1-.38-.43-.55-.5a1.51,1.51,0,0,0-.59,0c-.2,0-.57.23-.76.28s-.71.16-.95.2-.53,0-.71.07a22.05,22.05,0,0,0-2.39.51c-.42.13-1.23.51-1.64.68a11,11,0,0,0-1.39.58,4.39,4.39,0,0,0-.58.54,15.86,15.86,0,0,0-1.21,1.43,7.67,7.67,0,0,0-.49.88c-.13.29-.31.91-.45,1.2a8.11,8.11,0,0,1-.79,1.46,2.11,2.11,0,0,1-.52.41c-.28.13-.93.15-1.22.27a5.49,5.49,0,0,0-1,.64,4.75,4.75,0,0,0-.61.62c-.16.21-.37.71-.51.94a4.13,4.13,0,0,1-.61.79,5.73,5.73,0,0,1-1.39.62,7,7,0,0,1-1.08.22c-.41,0-1.23,0-1.63,0a11.27,11.27,0,0,0-1.36.05c-.36.06-1,.43-1.37.45a1.82,1.82,0,0,1-.79-.16c-.19-.12-.39-.54-.56-.69a4.12,4.12,0,0,0-.54-.32,2.41,2.41,0,0,1-.48-.26,1.13,1.13,0,0,1-.16-.37,3.79,3.79,0,0,0-.05-.55,1.49,1.49,0,0,0-.53-.5,3.08,3.08,0,0,0-.93-.11,5.41,5.41,0,0,1-1,.08,1.9,1.9,0,0,1-.46-.34c-.25-.2-.73-.63-1-.86a3.35,3.35,0,0,1-.51-.55,1.52,1.52,0,0,1-.12-.54c0-.08,0-.28.08-.34s.25,0,.33,0a1.37,1.37,0,0,0,.47-.19c.1-.08.19-.35.28-.44a1.59,1.59,0,0,1,.51-.27,2.39,2.39,0,0,1,.55,0,2.42,2.42,0,0,1,.54.08c.08,0,.19.16.27.19s.29,0,.35,0a.5.5,0,0,0,0-.45c-.06-.09-.28-.12-.38-.15s-.3,0-.37-.07A.77.77,0,0,1,20,43a3.12,3.12,0,0,1,.21-.48,3.74,3.74,0,0,0,.12-.62,8.29,8.29,0,0,0-.05-1.12c0-.25-.16-.76-.16-1a3.92,3.92,0,0,1,.13-1.1,3.5,3.5,0,0,1,.53-.78c.14-.16.48-.39.62-.54a3.77,3.77,0,0,0,.35-.46,2.33,2.33,0,0,0,.24-.5,4.52,4.52,0,0,0,0-1.22,8.69,8.69,0,0,0-.43-1.44c-.14-.35-.49-1-.66-1.35s-.61-1-.75-1.32a3.48,3.48,0,0,1-.21-.77A2.27,2.27,0,0,1,20,29.6c0-.11.19-.29.23-.39a2.12,2.12,0,0,0,.08-.42c0-.11,0-.34,0-.46A1,1,0,0,1,20.4,28c0-.07.22-.12.28-.17s.26-.19.26-.28-.1-.15-.15-.17a.81.81,0,0,0-.28,0,4.4,4.4,0,0,1-.49.05,1.82,1.82,0,0,1-.46-.11c-.08,0-.22-.17-.31-.2a1.09,1.09,0,0,0-.44,0c-.1,0-.25.17-.35.2a1.89,1.89,0,0,1-.41,0,1.67,1.67,0,0,1-.37,0c-.06,0-.15-.12-.21-.12a.41.41,0,0,0-.26.21.58.58,0,0,0,.1.36c.06.08.3.14.35.23a.45.45,0,0,1,0,.31.83.83,0,0,1-.4.26,4.24,4.24,0,0,1-.61,0,2.8,2.8,0,0,0-.55.11,2.54,2.54,0,0,0-.51.3c-.09.08-.22.28-.32.35a1.14,1.14,0,0,1-.41.2,1.56,1.56,0,0,1-.55-.15,3.17,3.17,0,0,1-.63-.39,8.74,8.74,0,0,1-.83-1c-.23-.31-.62-1-.88-1.25a8.87,8.87,0,0,0-1.1-.87c-.26-.18-.81-.48-1.08-.63a12.42,12.42,0,0,0-1.63-.86,7.93,7.93,0,0,0-1.82-.25A4.73,4.73,0,0,0,5,24.28a6.53,6.53,0,0,0-.94.69c-.13.09-.37.28-.51.36a1.21,1.21,0,0,1-.5.2c-.17,0-.4-.33-.56-.38a2.83,2.83,0,0,0-.72-.05,2.82,2.82,0,0,1-.62.05,1.25,1.25,0,0,1-.41-.34A3.68,3.68,0,0,1,.32,24a3,3,0,0,1-.2-.86,3,3,0,0,1,.34-1,4.85,4.85,0,0,1,.81-.95,15.12,15.12,0,0,1,1.72-1,9.31,9.31,0,0,0,.9-.51c.19-.15.46-.55.63-.71A1.87,1.87,0,0,1,5,18.62c.14,0,.48-.12.59,0s.05.21,0,.27-.19.19-.21.27a.41.41,0,0,0,.09.29.59.59,0,0,0,.41,0c.12,0,.28-.25.36-.35a2,2,0,0,0,.36-.53c0-.16-.08-.51-.05-.67a2,2,0,0,1,.24-.55,6,6,0,0,1,1-1.08,10.31,10.31,0,0,1,1.36-.77c.35-.18,1.09-.48,1.45-.66a7.54,7.54,0,0,0,1.1-.61,2.66,2.66,0,0,0,.44-.52,2.64,2.64,0,0,0,.25-.66c0-.14,0-.42,0-.56a1.33,1.33,0,0,1,.21-.49.87.87,0,0,1,.33-.18c.06,0,.21,0,.26,0s.06.24.07.32a3.92,3.92,0,0,0,0,.5,1.17,1.17,0,0,0,.25.4,1.26,1.26,0,0,0,.36.2,2.08,2.08,0,0,0,.71.11,2.77,2.77,0,0,0,.66-.3,6.63,6.63,0,0,0,.85-.53,7.24,7.24,0,0,0,.66-.73c.08-.1.2-.34.31-.4a3.57,3.57,0,0,1,.5-.1,2.27,2.27,0,0,0,.46-.25c.11-.08.24-.34.37-.39a1,1,0,0,1,.6,0c.08,0,.13.25.21.28a.74.74,0,0,0,.4,0,1.32,1.32,0,0,0,.36-.23c.1-.1.23-.38.34-.47a2.14,2.14,0,0,1,.69-.32,1.45,1.45,0,0,1,.49,0c.09,0,.25.15.34.19s.35.13.46.08.09-.15.11-.21.08-.42.12-.56a2.16,2.16,0,0,1,.26-.58,1,1,0,0,1,.3-.2c.11,0,.35,0,.46-.08a.9.9,0,0,0,.36-.25.56.56,0,0,0,0-.36.77.77,0,0,0-.32-.27,2.41,2.41,0,0,0-.69-.1,3.57,3.57,0,0,0-.82,0c-.12,0-.31.22-.44.22a.52.52,0,0,1-.34-.15c-.06-.1,0-.35,0-.47s.05-.35.05-.47A5.56,5.56,0,0,0,21.19,6a7.41,7.41,0,0,1-.2-.76,5.8,5.8,0,0,1,.15-.89,3.45,3.45,0,0,0,.1-.58V3.73l.37-.18L20.89.63h.62l.11-.33a1.18,1.18,0,0,0,.19.27,3.61,3.61,0,0,0,.39.19,1.32,1.32,0,0,1,.38.35c.05.12,0,.39,0,.52a1.68,1.68,0,0,0,.19.54,2.25,2.25,0,0,0,.55.39,2.39,2.39,0,0,0,.76.35.88.88,0,0,0,.54-.19,1,1,0,0,0,.09-.46c0-.08-.07-.24,0-.31a.6.6,0,0,1,.38-.19.85.85,0,0,1,.45.17.84.84,0,0,1,.22.45,1.14,1.14,0,0,1-.22.42c-.06.08-.23.21-.26.31a.9.9,0,0,0,.07.64c.07.08.29.06.39.09a1.54,1.54,0,0,1,.42.12c.12.09.23.39.32.51a1.39,1.39,0,0,0,.28.35,1.23,1.23,0,0,0,.5.07c.14,0,.47,0,.57-.13s0-.38.07-.5a1.28,1.28,0,0,1,.19-.47.88.88,0,0,1,.39-.14,3.19,3.19,0,0,1,.48.05l.49,0c.09,0,.29-.07.35,0s-.08.33-.08.45a1.31,1.31,0,0,0,.21.61c.12.12.47.19.62.26a1.68,1.68,0,0,1,.41.23,2.13,2.13,0,0,1,.21.5,2.78,2.78,0,0,1,.13.34,1.22,1.22,0,0,1,0,.54.63.63,0,0,1-.35.28c-.1,0-.26-.18-.36-.16a.52.52,0,0,0-.27.28.71.71,0,0,0,.11.47,1,1,0,0,0,.44.17,2,2,0,0,0,.71,0,1.58,1.58,0,0,0,.54-.38,1.29,1.29,0,0,0,.25-.5,1.24,1.24,0,0,0-.11-.47A2.22,2.22,0,0,0,32,6a3.78,3.78,0,0,0-.37-.33,2.77,2.77,0,0,1-.36-.26.72.72,0,0,1-.12-.28.42.42,0,0,1,.06-.25c.07-.07.3-.07.4-.08a1,1,0,0,1,.46,0,.32.32,0,0,1,.1.16.92.92,0,0,1,0,.23,2.12,2.12,0,0,0-.06.37.93.93,0,0,0,.11.32c.06.09.22.26.33.28A.8.8,0,0,0,32.92,6a1.11,1.11,0,0,0,.28-.42c0-.1-.08-.32,0-.4a.38.38,0,0,1,.56,0c0,.08,0,.26,0,.35a.76.76,0,0,0,.17.31,1.11,1.11,0,0,0,.45.13,4.91,4.91,0,0,0,.53,0,2.33,2.33,0,0,1,.46,0c.08,0,.27.06.29.14s-.14.14-.14.21.21.31.28.41.33.37.35.52a.94.94,0,0,1-.16.39c-.08.14-.31.36-.39.5a1.39,1.39,0,0,0-.19.4c0,.09,0,.31.08.37s.19,0,.23,0,0,.37.07.46a.4.4,0,0,0,.28.05.75.75,0,0,0,.32-.28,2.34,2.34,0,0,0,.11-.71c0-.14,0-.43,0-.58a1.8,1.8,0,0,1,.07-.58.5.5,0,0,1,.25-.21.45.45,0,0,1,.3.12.92.92,0,0,1,.07.4c0,.15,0,.45,0,.6a2.88,2.88,0,0,0,0,.78.62.62,0,0,0,.22.27.82.82,0,0,0,.48,0c.11,0,.23-.26.34-.3s.33,0,.42,0a.86.86,0,0,0,.35-.32,2.29,2.29,0,0,0,0-.72,3.25,3.25,0,0,0,0-.53c0-.12-.17-.34-.2-.47a.65.65,0,0,1,0-.36.71.71,0,0,1,.41-.19.89.89,0,0,1,.38.12,2.07,2.07,0,0,1,.51.56,2,2,0,0,1,.19.72,2.84,2.84,0,0,1-.24.83,2.32,2.32,0,0,1-.42.67c-.13.11-.49.14-.63.23a1.68,1.68,0,0,0-.35.32c-.12.17-.23.57-.34.74a3.2,3.2,0,0,1-.28.36,5.15,5.15,0,0,0-.44.42c-.07.11-.22.36-.17.48s.29.19.4.2a1.52,1.52,0,0,0,.66-.28c.16-.12.35-.47.5-.59s.6-.28.77-.4a5.56,5.56,0,0,0,.66-.64c.14-.16.37-.53.52-.68a2.68,2.68,0,0,1,.77-.5,1,1,0,0,1,.53,0,.38.38,0,0,1,.16.23c0,.15-.24.39-.37.48a2.92,2.92,0,0,1-.46.12A2.63,2.63,0,0,0,41,10a1.89,1.89,0,0,0-.38.45,1.36,1.36,0,0,0-.15.57c0,.1.09.31.17.35s.31-.05.4-.1.27-.29.39-.33a1.21,1.21,0,0,1,.71.07,1,1,0,0,1,.27.38,1.7,1.7,0,0,1,.08.61,4.46,4.46,0,0,1-.21.52,1.65,1.65,0,0,0-.09.37.84.84,0,0,0,.1.42.79.79,0,0,0,.4.14.82.82,0,0,0,.39-.07c.08,0,.13-.25.21-.3a.71.71,0,0,1,.41-.08.72.72,0,0,1,.32.25,1.07,1.07,0,0,1,.09.45c0,.13-.13.36-.13.49a.83.83,0,0,0,.12.47c.07.06.26,0,.35.05s.58,0,.77,0a4.24,4.24,0,0,1,1.09.27,4.15,4.15,0,0,1,.81.73c.16.18.42.59.55.78l.34.51a10.62,10.62,0,0,1,.89,1.29,3.45,3.45,0,0,1,.21,1.08,2.3,2.3,0,0,1-.23.85,1.63,1.63,0,0,1-.53.47c-.12.05-.42,0-.54.05a1.87,1.87,0,0,0-.51.4,2.87,2.87,0,0,0-.36.6,2.25,2.25,0,0,0-.2.76,1.65,1.65,0,0,0,.32.74.83.83,0,0,0,.43.23.64.64,0,0,0,.4-.23c.07-.12,0-.42,0-.56a2.08,2.08,0,0,1,.09-.6.87.87,0,0,1,.31-.34.35.35,0,0,1,.25,0c.1.08.11.37.14.49a5.94,5.94,0,0,0,.15.78c.08.17.28.53.46.6s.58-.12.77-.16a2.53,2.53,0,0,1,.58-.16,2,2,0,0,1,.73.33c.22.16.49.66.73.78a3.16,3.16,0,0,0,.7.12,3.53,3.53,0,0,1,.57.12,7.32,7.32,0,0,1,.71.5,4.08,4.08,0,0,0,.7.4,2,2,0,0,0,.67.05,1,1,0,0,0,.39-.17.53.53,0,0,0,.14-.28c0-.11-.16-.27-.22-.36a3,3,0,0,0-.32-.42A4.73,4.73,0,0,0,54.9,24c-.14-.09-.42-.25-.54-.35-.31-.26-.85-.87-1.13-1.17s-.65-.66-.85-.9c-.49-.6-1.36-1.89-1.79-2.54-.32-.48-.91-1.48-1.23-2S48.23,15.56,47.84,15L47,13.91c-.12-.17-.34-.45-.5-.68l.57-.32.14.25c.24.37.83,1,1.11,1.37s.72.84.94,1.13.62,1,.82,1.27c.32.51.9,1.56,1.23,2.06s.95,1.28,1.29,1.69,1,1.1,1.31,1.46l1.19,1.26c.17.18.52.53.68.72a3.28,3.28,0,0,0,.36.5,1.81,1.81,0,0,0,.63.2,3.29,3.29,0,0,0,1,0,4.64,4.64,0,0,0,.77-.41c.23-.13.66-.46.9-.57a6.26,6.26,0,0,1,.73-.21,5.46,5.46,0,0,0,.67-.17,2.59,2.59,0,0,0,.7-.51,1.72,1.72,0,0,0,.25-.58c0-.15,0-.46,0-.61a1.07,1.07,0,0,1,.08-.35,2.75,2.75,0,0,1,.45-.37,3.39,3.39,0,0,0,.41-.41c.07-.11.14-.36.21-.47a1.43,1.43,0,0,1,.25-.34.79.79,0,0,1,.38-.14.39.39,0,0,1,.24.12.83.83,0,0,1,0,.4c0,.1-.12.3-.1.4s.45.58.63.75a5.71,5.71,0,0,0,.83.63,3.59,3.59,0,0,0,.78.32,1.16,1.16,0,0,0,1.08-.21,2.78,2.78,0,0,0,.62-.42,2.46,2.46,0,0,0,.29-.77,4.7,4.7,0,0,1,0-.57A.64.64,0,0,1,68.1,20c.08,0,.25,0,.34,0a1.33,1.33,0,0,0,.52-.16,1.13,1.13,0,0,0,.2-.42c0-.15,0-.46.08-.61a5.67,5.67,0,0,1,.35-.65c.08-.15.25-.44.32-.6s.12-.43.2-.56a1.33,1.33,0,0,1,.36-.41,2.41,2.41,0,0,1,.46-.05c.2,0,.56-.24.76-.26a3.63,3.63,0,0,1,.84.08,3.54,3.54,0,0,1,.71.22c.15.08.37.36.53.41a1.71,1.71,0,0,0,.73,0c.14,0,.35-.24.49-.27a1.32,1.32,0,0,1,.46,0,5.36,5.36,0,0,1,.69.34,4.36,4.36,0,0,0,.75.37,1.1,1.1,0,0,0,.53,0c.1,0,.18-.3.28-.34a.84.84,0,0,1,.58.14A1.11,1.11,0,0,1,78.48,17.76Z"/></g></g></svg>