<svg xmlns="http://www.w3.org/2000/svg" viewBox="0 0 47.12 60.74"><defs><style>.cls-1{fill:#f2c90c;stroke:#f2c90c;stroke-miterlimit:10;stroke-width:0.25px;}</style></defs><title>sumy</title><g id="Слой_2" data-name="Слой 2"><g id="Layer_1" data-name="Layer 1"><path class="cls-1" d="M47,53.09a3.72,3.72,0,0,1-.08.43,1.55,1.55,0,0,1-.16.43c-.06.08-.23.22-.32.21s-.19-.15-.25-.2-.15-.19-.23-.22a1.44,1.44,0,0,0-.54.07,4.55,4.55,0,0,0-.52.15c-.11,0-.39.09-.44.21s.16.28.14.38-.15.16-.21.2-.14.1-.2.09-.34-.28-.45-.39-.4-.44-.53-.59-.19-.36-.31-.37-.13.16-.19.2a3.54,3.54,0,0,1-.48.24l-.67.27a1.31,1.31,0,0,0-.32.12.47.47,0,0,0-.11.23.66.66,0,0,0,.09.3c0,.07.22.16.26.23a.4.4,0,0,1,0,.26.47.47,0,0,1-.23.14,2.63,2.63,0,0,1-.53,0c-.15,0-.48-.07-.62,0a.47.47,0,0,0-.15.28c0,.1.15.28.15.39a.68.68,0,0,1-.1.28,1.36,1.36,0,0,1-.27.24.75.75,0,0,1-.23.13,1.62,1.62,0,0,1-.46-.08l-.71-.18a1.07,1.07,0,0,0-.33-.08,1,1,0,0,0-.32.24,2.55,2.55,0,0,0-.41.5,1.85,1.85,0,0,0-.13.48c0,.13,0,.39,0,.52s0,.27-.11.33-.19,0-.26,0a2.7,2.7,0,0,1-.6,0,1.6,1.6,0,0,1-.3-.17c-.08,0-.22-.2-.31-.19-.36.05-1,1.09-1,1.09L33,58.74l-.77.83-.74-.19-.11-.44-.47-.17-.38,1.63a1.78,1.78,0,0,1-.53.21c-.18,0-.48-.25-.65-.32a4.47,4.47,0,0,0-.74-.22,5,5,0,0,1-.65,0,1.42,1.42,0,0,1-.45-.34,5.11,5.11,0,0,1-.42-.79c-.07-.13-.31-.4-.24-.53s.34,0,.45-.08a1.53,1.53,0,0,0,.45-.34.66.66,0,0,0,.13-.32c0-.1-.15-.25-.19-.34s0-.24-.1-.28-.35,0-.46,0a.78.78,0,0,1-.34-.25c0-.09,0-.32,0-.42A1.18,1.18,0,0,0,26.4,56a4.52,4.52,0,0,0-.67-.28,2.57,2.57,0,0,0-.42-.14c-.09,0-.27.07-.35,0a.56.56,0,0,1-.19-.34.91.91,0,0,1,.14-.35c0-.07.18-.19.21-.27a.53.53,0,0,0,0-.23,1.41,1.41,0,0,0-.23-.38c-.12-.14-.41-.37-.54-.51a8,8,0,0,1-.73-.81,4.08,4.08,0,0,1-.37-.75,5.09,5.09,0,0,1-.15-.83,5.67,5.67,0,0,1,0-.92c0-.12.13-.35.13-.48a.72.72,0,0,0-.07-.36,1,1,0,0,0-.38-.17,4.05,4.05,0,0,0-.67-.13c-.25,0-.75,0-1,0s-.62-.11-.77,0a.53.53,0,0,0-.07.37c0,.11.19.29.22.4a1.56,1.56,0,0,1,0,.53c0,.08-.06.26-.13.29s-.16,0-.2-.07-.24-.33-.33-.42a1.62,1.62,0,0,0-.33-.25,1.85,1.85,0,0,0-.44-.1c-.16,0-.48,0-.63,0s-.37-.19-.51-.21a2.13,2.13,0,0,0-.6,0c-.16,0-.46.18-.62.23a2.37,2.37,0,0,1-.55.15c-.08,0-.22-.09-.3-.09a.88.88,0,0,0-.33.1.64.64,0,0,0-.22.23c0,.11.1.35.06.46a.85.85,0,0,1-.36.31,3.06,3.06,0,0,1-1,.13A6.49,6.49,0,0,1,12.73,51a8.16,8.16,0,0,1-.9-.36c-.15-.07-.43-.27-.58-.33a.87.87,0,0,0-.3-.09.89.89,0,0,0-.4.2,1.65,1.65,0,0,0-.15.27,1,1,0,0,1-.19.28A.77.77,0,0,1,9.9,51c-.18,0-.54-.12-.73-.13a2.56,2.56,0,0,1-.47,0,.66.66,0,0,1-.33-.27c0-.09.12-.3.09-.39s-.18-.17-.25-.21a1.07,1.07,0,0,0-.34-.11,2.23,2.23,0,0,0-.41.06,3.49,3.49,0,0,1-.74.13,1.42,1.42,0,0,1-.49-.22,5.25,5.25,0,0,1-.46-.53c-.09-.09-.27-.27-.36-.36s-.16-.2-.24-.19S5,48.92,5,49a3.81,3.81,0,0,0-.09.38,1,1,0,0,1-.17.35.88.88,0,0,1-.44.11,1.84,1.84,0,0,1-.57-.19c-.18-.09-.46-.39-.65-.48A2.31,2.31,0,0,0,2.48,49a1.45,1.45,0,0,0-.35,0L2,49l0-.42.56-.95.44-.76-.21-.56.52-.62L3.48,45l1.35,0,0-.47-1.3-.76-.34-1.1L3.77,42l-.13-1.75h.67L4.55,40l-.07-1.81L1,34.51l-.31-.13-.26.19H.13v-.28l0-.54.3-.42.06-.36-.17-.46v-.38l.25-.29.41-.1.38-.22v-.35l0-.46.29-.42L2,29.64l-.08-.56,0-.94-.27-.36-.27-.23L1,26.79.79,26.4l0-.33L1,25.76l.25-.09.27.09.13.25.1.44.1.48.45.44.5.1.33-.22.27-.51,0-.37L3,25.85l-.23-.4L2.59,25l-.05-.65.2-.25.52-.25.47-.29.08-.41-.22-.33-.25-.41L3.1,22l.36-.16.52,0,.22-.12-.07-.44-.29-.76L3.5,20l-.3-.28-.08-.81L3,18.29l-.42-.54L2,17.26v-.86l.3-1.14.4-.69L3,14.1l0-.52,0-.34.2-.34.5-.38.14.17.36.32.34-.11.12-.35-.16-.33.12-.16.37,0,.33.16.46,0L6,12.1l.37.09.46.2L7,11.94l.26-.7-.33-.71-.23-.38L6.16,9.9l-.59-.63-.19-.38.42-.14.6-.11.48-.13.16.32L7.47,9l.37-.13h.44l.48-.18,0-.38-.33-.51-.28,0-.25-.34L7.84,7,7.5,6.63l-.66-.26L6.21,5.9l-.53-.5-.13-.68L5.81,4l.49-.69.08-.8.13-.87L6.85.91,7.12.13l.8,0a2,2,0,0,1,.58,0A1,1,0,0,1,8.79.5c.08.13.16.44.22.58s.08.28.16.3.36-.17.48-.22L10.6.82A11.51,11.51,0,0,1,11.76.34a4.16,4.16,0,0,1,1-.06,5.51,5.51,0,0,1,1.38.36,5.88,5.88,0,0,1,1.18.87,6.76,6.76,0,0,1,.54.73c.13.19.35.58.49.75a7.65,7.65,0,0,0,.86.89c.14.12.47.29.63.39a3.38,3.38,0,0,1,.71.55,2.65,2.65,0,0,1,.25.83,5.36,5.36,0,0,1,0,.88c0,.32-.15.94-.17,1.25a4.69,4.69,0,0,0,0,.94,4.28,4.28,0,0,0,.46,1.12,4.93,4.93,0,0,0,.58.62,10.28,10.28,0,0,1,1,.86,4.36,4.36,0,0,1,.39.9c.05.16,0,.55.16.67s.39.07.52.07.63,0,.84,0a1.5,1.5,0,0,1,.57.06,1.26,1.26,0,0,1,.32.52c.09.25,0,.79.12,1a5.12,5.12,0,0,0,.35.8c.09.17.38.48.42.67a1.16,1.16,0,0,1-.1.67,1.7,1.7,0,0,1-.61.33c-.26.1-.8.2-1.06.29s-.9.36-1.19.49a9.55,9.55,0,0,1-1,.48c-.24.07-.74,0-1,.09a1.67,1.67,0,0,0-.73.36.36.36,0,0,0,0,.26c.06.12.35.2.46.28a8.9,8.9,0,0,1,1.47,1.1c.19.22.37.79.54,1a8.18,8.18,0,0,0,.78.87c.18.18.72.43.78.68s-.15.57-.25.74-.63.67-.74.94a1.45,1.45,0,0,0-.07.68,1.6,1.6,0,0,0,.38.51c.25.24.94.49,1.15.77a1,1,0,0,1,.16.54,1.33,1.33,0,0,1-.36.6c-.14.12-.55.18-.7.3a1.1,1.1,0,0,0-.31.48,1.68,1.68,0,0,0,.19.64,2.24,2.24,0,0,0,.39.64A1.14,1.14,0,0,0,23,30a2.53,2.53,0,0,0,.74-.07c.18,0,.49-.26.67-.29a2,2,0,0,1,.62,0,2.23,2.23,0,0,1,.48.23c.15.1.37.42.54.46a2,2,0,0,0,.65-.13,8.37,8.37,0,0,1,1-.2,1.55,1.55,0,0,1,.49.06,3.37,3.37,0,0,1,.59.46c.2.17.59.53.78.7a2.61,2.61,0,0,0,.54.44,1.74,1.74,0,0,0,.67,0,8,8,0,0,0,1-.36L33,30.84c.36-.12,1.07-.37,1.44-.46a4.82,4.82,0,0,1,1-.19,2.05,2.05,0,0,1,.58.16,2.84,2.84,0,0,1,.81.58,3.23,3.23,0,0,1,.3.87c.09.35.15,1.08.26,1.42a3.05,3.05,0,0,0,.44.92,1.73,1.73,0,0,0,.65.35,4.32,4.32,0,0,0,.68,0,6.81,6.81,0,0,1,1.15.07,2.79,2.79,0,0,1,.78.35c.14.11.43.36.44.54a.65.65,0,0,1-.25.38c-.17.12-.62.09-.8.19a1.18,1.18,0,0,0-.48.46,1.52,1.52,0,0,0,.19.77,5,5,0,0,0,.68.89c.11.12.38.29.46.42a4.06,4.06,0,0,1,.17.73,6.87,6.87,0,0,0,.39,1c.11.19.43.51.55.7A4.58,4.58,0,0,1,43,42,7.66,7.66,0,0,1,43,43.08a4.59,4.59,0,0,1,0,.89,4.18,4.18,0,0,1-.39.78,4.9,4.9,0,0,0-.41.7,3.3,3.3,0,0,0,0,.83,8.44,8.44,0,0,0,.19,1.26A7.62,7.62,0,0,0,43,48.81a6.61,6.61,0,0,0,.52.71,1.44,1.44,0,0,0,.23.25c.07,0,.24.07.32.1a4.56,4.56,0,0,1,.48.3,3,3,0,0,1,.68.52,4,4,0,0,1,.15.71,2.82,2.82,0,0,0,.25.58,4.23,4.23,0,0,0,.48.47c.16.15.46.53.67.61A.7.7,0,0,0,47,53.09Z"/></g></g></svg>