<svg xmlns="http://www.w3.org/2000/svg" viewBox="0 0 28.74 47.86"><defs><style>.cls-1{fill:#f2c90c;stroke:#f2c90c;stroke-miterlimit:10;stroke-width:0.25px;}</style></defs><title>ternopol</title><g id="Слой_2" data-name="Слой 2"><g id="Layer_1" data-name="Layer 1"><path class="cls-1" d="M27.62,3.88l0,.38.89.29.1.57-.89.22-.29,1.12.61.42-.15.63-.19.75-1.21,0s-.09.51-.13.68a2.69,2.69,0,0,1-.15.49c-.08.14-.37.35-.41.5a1.45,1.45,0,0,0,0,.39c0,.18,0,.55,0,.73a3.11,3.11,0,0,0,.2.59c.1.2.37.54.48.73a4.1,4.1,0,0,1,.39.7,3.45,3.45,0,0,1,.05.82c0,.23-.13.67-.12.89a5.35,5.35,0,0,0,.28,1.1c.05.14.21.39.25.53a3.56,3.56,0,0,1,.17.88,1.45,1.45,0,0,1-.13.52c-.06.11-.29.25-.37.35a2.6,2.6,0,0,0-.31.65c0,.11,0,.37,0,.47s-.33.15-.42.22-.36.24-.41.37a1.9,1.9,0,0,0,.05.73c0,.25.18.75.23,1s.11.59.13.79.09.86.09,1.14-.12.85-.12,1.13a6.42,6.42,0,0,0,.1,1.15c.06.25.33.71.37,1a2.59,2.59,0,0,1-.07,1,1.87,1.87,0,0,1-.32.44c-.1.11-.34.28-.44.39a2.09,2.09,0,0,0-.38.52,4.41,4.41,0,0,0,0,1.27c0,.36.2,1.06.22,1.42s0,1.09-.05,1.46a3,3,0,0,1,0,.66,2.8,2.8,0,0,1-.38.51,5.46,5.46,0,0,0-.47.63,3.13,3.13,0,0,0-.23.86,2.17,2.17,0,0,0,.11.87c.06.11.31.21.37.32a1.42,1.42,0,0,1,.13.65c0,.15-.22.39-.25.53A8.14,8.14,0,0,0,25,39.47c0,.31,0,.92,0,1.22a7.51,7.51,0,0,0,0,1.44,4.8,4.8,0,0,0,.5,1,3.21,3.21,0,0,1,.3.41c.05.14,0,.47,0,.61s.24.18.29.26a3.76,3.76,0,0,1,.22.72,5.29,5.29,0,0,0,.24.77,9.57,9.57,0,0,0,.83,1l.53.67c-.26,0-.63.09-.83.12s-.84.09-1.12.09a6.21,6.21,0,0,1-1.29-.16,2.81,2.81,0,0,1-.79-.42,6,6,0,0,1-.36-.55,2.17,2.17,0,0,0-.42-.44.54.54,0,0,0-.29-.07c-.09,0-.19.23-.28.28a1.37,1.37,0,0,1-.67.19,1.07,1.07,0,0,1-.39-.29.89.89,0,0,1-.22-.33c0-.23.27-.66.28-.9a1.4,1.4,0,0,0-.13-.6,1,1,0,0,0-.32-.25,1.05,1.05,0,0,0-.38-.06,1.28,1.28,0,0,0-.33.12c-.15.08-.42.3-.57.39a2.67,2.67,0,0,1-.52.28,1.35,1.35,0,0,1-.55,0,1.54,1.54,0,0,1-.48-.35c-.13-.15-.27-.52-.39-.68a3.81,3.81,0,0,0-.41-.43,1.68,1.68,0,0,0-.42-.32,3,3,0,0,0-.9,0,5.12,5.12,0,0,1-.76.13,2.2,2.2,0,0,1-.67-.26,3.5,3.5,0,0,1-.49-.39l-.19-.19a3.81,3.81,0,0,1-.58-1.08,6.36,6.36,0,0,1,0-.64,2.7,2.7,0,0,0-.2-.92,1.2,1.2,0,0,0-.44-.3c-.16-.06-.51,0-.67-.09a2.27,2.27,0,0,1-.58-.35,2.29,2.29,0,0,1-.35-.46c-.09-.16-.16-.53-.25-.7a1.66,1.66,0,0,0-.29-.41.86.86,0,0,0-.44-.2.47.47,0,0,0-.2.15c-.07.08-.13.28-.19.36s-.23.31-.35.35a.74.74,0,0,1-.35-.07,3.31,3.31,0,0,1-.57-.38c-.16-.13-.43-.45-.61-.57a2,2,0,0,0-.62-.26c-.1,0-.31.11-.39.06a.63.63,0,0,1-.17-.42c0-.08.1-.23.13-.31s.16-.37.13-.49-.22-.32-.33-.33-.25.16-.32.23-.15.28-.23.35a.73.73,0,0,1-.36.15.88.88,0,0,1-.44-.25,1.19,1.19,0,0,1-.19-.48c0-.17.11-.52.09-.7a2.66,2.66,0,0,0-.2-.55,1.49,1.49,0,0,0-.2-.42,3.24,3.24,0,0,0-.77-.32A4.42,4.42,0,0,1,3.25,33a6.17,6.17,0,0,1-.38-.55A4,4,0,0,0,2.38,32c-.1-.07-.33-.17-.42-.25a2,2,0,0,1-.29-.35c-.07-.1-.24-.33-.2-.45s.19-.18.28-.2.35,0,.46,0,.28-.15.38-.17a.82.82,0,0,1,.39,0c.11,0,.2.3.31.36s.22.11.29.07.09-.22.1-.31a1.12,1.12,0,0,0-.07-.46,2.3,2.3,0,0,0-.55-.51c-.15-.11-.49-.27-.64-.38A3.06,3.06,0,0,1,1.84,29a2,2,0,0,1-.26-.61,1.26,1.26,0,0,1,0-.54A1.42,1.42,0,0,1,2,27.4c.2-.14.68-.27.9-.39s.34-.16.39-.26a.35.35,0,0,0,0-.26c-.08-.11-.38-.15-.51-.2S2.21,26,2,25.95l-.51-.28-.45-3.51-.7-1.38.08-1.3,0-.31L.15,17.73l2.76-.91,1.71-1.26,1.06-1.48,1.16-.13.54-1.15s-.2-.42-.25-.57A2.4,2.4,0,0,1,7,11.44a1,1,0,0,1,.29-.51,3.37,3.37,0,0,1,1-.2,6.11,6.11,0,0,1,.9-.22c.12,0,.36.12.48.1a2.33,2.33,0,0,0,.42-.2,2.08,2.08,0,0,1,.52-.19.35.35,0,0,1,.22.06c.09.1,0,.4.07.52s.21.29.32.32.36-.13.36-.13l1-.86.79-2.66-.43-1.1A6.73,6.73,0,0,1,14,5.32c.19-.09.63-.08.83-.15a1.23,1.23,0,0,0,.49-.31.87.87,0,0,0,0-.42A2,2,0,0,0,15.19,4c-.07-.14-.26-.38-.34-.51a2.31,2.31,0,0,1-.2-.45,1.88,1.88,0,0,1,0-.63c0-.14.15-.45.28-.51s.35,0,.46.07a2.31,2.31,0,0,1,.4.21c.15.1.41.35.55.45s.47.4.65.37.23-.24.3-.32l.45-.46,1.58,0,.22.14c.13.09.35.37.51.4a1.67,1.67,0,0,0,.7-.16,4.39,4.39,0,0,0,.54-.3,2.79,2.79,0,0,0,.55-.38A3.09,3.09,0,0,0,22,1.4c.08-.16.26-.47.36-.62a2.37,2.37,0,0,1,.33-.42,1.17,1.17,0,0,1,.48-.23.86.86,0,0,1,.39.13,6.23,6.23,0,0,1,.45.56c.08.08.25.26.36.27s.29-.15.38-.2a2,2,0,0,1,.4-.21,1.38,1.38,0,0,1,.48.08c.12,0,.33.2.45.25a3.18,3.18,0,0,0,.84.21,2,2,0,0,0,.39-.09A2.45,2.45,0,0,1,27.77,1a.93.93,0,0,1,.34.09c.08,0,.24.15.25.24s-.16.27-.22.36-.44.53-.44.53Z"/></g></g></svg>