<svg xmlns="http://www.w3.org/2000/svg" viewBox="0 0 46.7 49.95"><defs><style>.cls-1{fill:#f2c90c;stroke:#f2c90c;stroke-miterlimit:10;stroke-width:0.25px;}</style></defs><title>vinnytsia</title><g id="Слой_2" data-name="Слой 2"><g id="Layer_1" data-name="Layer 1"><path class="cls-1" d="M.86,34.16l-.24-.63a6.07,6.07,0,0,1-.32-.85,6.7,6.7,0,0,1,0-.83c0-.18,0-.73,0-.73L.14,29.9l.74-.48S.47,28.25.39,27.84a17.42,17.42,0,0,1-.25-2.3c0-.58.13-2.31.13-2.31l1.6-1.57s.21-.06.24-.12,0-.38,0-.51.14-.34.14-.46-.16-.34-.16-.46a1.5,1.5,0,0,1,.1-.35l1.42-.63h.28l0-.46,1.08.15,1.11.29,1.24.61.75-1.13,1,.34.39-.81-1-.41,0-1.92.2-1L8,13.66,9,13l-.36-.82L7.43,12,7,11.13l.88-.49.07-1.42-.86-.44L8.3,6.93,9,7l.14-.38-1-.4.16-1.1.82-.4-.23-.94.18-.05a3.35,3.35,0,0,1,.35-.33,3.83,3.83,0,0,1,.75-.29A3.35,3.35,0,0,1,11,2.92a5.07,5.07,0,0,1,.78.21A12,12,0,0,0,13,3.41a10.61,10.61,0,0,0,1.94,0A7.45,7.45,0,0,0,16.4,3a8.53,8.53,0,0,0,.9-.59l1.84.92.42-.08.1-1.41.5.15.37.78,1.12.07L22.46,4l.47-1.47H24.1l.39.87,1.09.12-.22-1.45L26.28,2,27.6.2l1.94,2.16L29,3.44l.7,1.35-1.1,1.46,1.25,1.16-.64,1.06.24.41h4l.86.25.45-.25-.31-.57,1.3-.52.45.47.22-.23L36.32,7l1.51.59.63.86-.57.62,1.73,4.12-1.77,1.28,1.64,2.31,1-.13,0,1.31.28.46h1.08l0,.61-.16,0-.68.11.83,2.19-1,1.06-.86.45v1.79l.79-.06.28,1.1-1.5,1,.52,1.16,1.34-.77.41.16.1,2.11L44.5,32l-.84.8,1.76,1.39,0,.63.32.68.41.23v1L46.56,38l-.64.51.07.57v0l-.32.25-.67,1-.89-.44-.67.57.16.7L41.3,44.27l.81.63,0,.79v.12l-.86,1-.71-.57-.74.67L41,48.13V49.8l-.81-.12v-1.1l-1.68-.28-.23,1.09-1.42-.07-.42-.92-3.24.81-1.31-1.7-.58-.06-1.92-2-1,1.54-1.13,0-.6,2.09-1.36.07,0-.18a4.24,4.24,0,0,0-.36-.84,1.58,1.58,0,0,0-.36-.33,4.78,4.78,0,0,0-.78-.28c-.31-.1-.95-.25-1.25-.36s-.61-.31-.81-.41a3.19,3.19,0,0,0-.79-.33,2.73,2.73,0,0,0-.7.19l-.74.23c-.11,0-.36.07-.44.16s-.07.3-.09.41,0,.54-.1.67a.62.62,0,0,1-.39.16,1.52,1.52,0,0,1-.76-.48,2.13,2.13,0,0,1-.22-.71c0-.17.07-.54,0-.67s-.33-.13-.45-.14-.44.06-.58,0a.93.93,0,0,1-.45-.39c0-.11.1-.35.12-.46s.17-.6.07-.77-.36-.2-.49-.22a1.34,1.34,0,0,0-.62.09c-.13.08-.23.44-.38.48a.69.69,0,0,1-.44-.17c-.15-.13-.26-.56-.41-.7a1.88,1.88,0,0,0-.64-.33,3.61,3.61,0,0,0-.71,0,2.43,2.43,0,0,1-.67,0,1.08,1.08,0,0,1-.39-.35c-.12-.18-.16-.63-.25-.83a2.69,2.69,0,0,0-.38-.58,8.49,8.49,0,0,0-.86-.57c-.23-.17-.68-.51-.89-.7s-.69-.7-.92-.94-.54-.67-.75-.86a3.45,3.45,0,0,0-.71-.42,8.16,8.16,0,0,0-.89-.19,7.41,7.41,0,0,1-1.19-.31,2.28,2.28,0,0,1-.44-.33c-.14-.13-.32-.49-.48-.6a2,2,0,0,0-.7-.22,1.31,1.31,0,0,0-.49,0,2.44,2.44,0,0,0-.41.37c-.14-.16-.37-.44-.45-.56a4.27,4.27,0,0,1-.49-1c-.06-.25.06-.77,0-1a4.53,4.53,0,0,0-.22-.57Z"/></g></g></svg>