<svg xmlns="http://www.w3.org/2000/svg" viewBox="0 0 44.17 57.31"><defs><style>.cls-1{fill:#f2c90c;stroke:#f2c90c;stroke-miterlimit:10;stroke-width:0.25px;}</style></defs><title>zhitomyr</title><g id="Слой_2" data-name="Слой 2"><g id="Layer_1" data-name="Layer 1"><path class="cls-1" d="M9.7,51.76l-1.39.42-.1-1.49-2.32-2,0-.71-.78-.4,1-2.33L5.3,43.86,6,43.64l1,.27,1.06-1L6.92,42.3l.14-2,1,.15.11-.83-.39-.05-.45-.71L7,37.37H6.44l-.07.72-.86,0-.13-.64L4,36.77v-.9L2.76,34.59l-.27,0,0-.63L.82,33.23l1.34-2.49.08-.58L2,29.83l-.51-.08L.9,29.07l0-.07.55-.26.1-.42-.65-.46-.62-.44-.1-.48.41-.36a11,11,0,0,0,.9-1,3.91,3.91,0,0,0,.48-.83A3,3,0,0,0,2,24.1c0-.21-.11-.61-.09-.81s.16-.39.17-.52a2.09,2.09,0,0,0,0-.55c0-.16-.22-.45-.23-.61a1.32,1.32,0,0,1,.1-.46c.05-.12.28-.31.29-.44A1.31,1.31,0,0,0,2,20.22c-.08-.18-.28-.51-.38-.68s-.28-.29-.26-.41.25-.14.29-.22a1.09,1.09,0,0,0,0-.48,3.53,3.53,0,0,0-.23-.74c-.08-.16-.41-.4-.42-.58a.71.71,0,0,1,.23-.38,2.16,2.16,0,0,1,.48-.2,5,5,0,0,1,.81-.32c.1,0,.33.07.42,0a.77.77,0,0,0,.32-.39c0-.06-.05-.18-.06-.25a1.31,1.31,0,0,1,0-.51c0-.1.25-.19.32-.28a3.36,3.36,0,0,0,.16-.31,2.62,2.62,0,0,0,.23-.39c0-.14,0-.43,0-.57a1.91,1.91,0,0,1,.33-.39l1.84-1.61L6,8.92l.58-.06.26-.12c.11-.06.37-.15.44-.26a.85.85,0,0,0,0-.49,1,1,0,0,0-.25-.35c-.08-.07-.32-.09-.36-.19s.17-.53.22-.71a4,4,0,0,1,.15-.8c.06-.11.25-.33.38-.33s.29.18.36.26a8.17,8.17,0,0,1,.46.73c.09.12.38.48.38.48L9,6.79l.33-2.12.48-.1.35-.7.26-.28a2,2,0,0,0,.38.44,1.45,1.45,0,0,0,.33.26.77.77,0,0,0,.35,0A3,3,0,0,0,12,4a9,9,0,0,1,.86-.39c.17-.06.53-.13.7-.2A1.11,1.11,0,0,0,14,3.13a1.23,1.23,0,0,0,0-.6A1.59,1.59,0,0,0,13.76,2c-.08-.09-.33-.16-.42-.23s-.26-.19-.29-.29a.7.7,0,0,1,.1-.45.74.74,0,0,1,.32-.16,1.2,1.2,0,0,1,.45,0,3.78,3.78,0,0,1,.65.39,6.89,6.89,0,0,1,.94.57c.08.08.17.32.26.38a1.65,1.65,0,0,0,.65.12,3.27,3.27,0,0,0,.46-.07A5.91,5.91,0,0,0,18,2a4,4,0,0,0,.68-.54c.15-.14.44-.43.58-.58A2.68,2.68,0,0,1,19.67.4a.7.7,0,0,1,.41-.06c.14.05.31.33.39.45s.26.56.36.74.49.61.6.84.09.5.14.65.08.23.14.26.47-.12.63-.16l.9-.28a10.2,10.2,0,0,1,1.1-.25,7,7,0,0,1,1.06,0c.17,0,.51.12.68.13s.36,0,.48,0,.23.07.26.13-.07.38-.07.51a8.44,8.44,0,0,0,.09,1.23,4.79,4.79,0,0,0,.3,1.21,1.16,1.16,0,0,0,.38.39,1.47,1.47,0,0,0,.44,0,2.12,2.12,0,0,0,.71,0A.87.87,0,0,0,29,5.86,2.71,2.71,0,0,0,29,5.34a3.62,3.62,0,0,1,.12-.71,3.89,3.89,0,0,1,.58-.78,5,5,0,0,1,.87-.78,3.55,3.55,0,0,1,.64-.2l1-.23a6.49,6.49,0,0,0,1.1-.26,4.77,4.77,0,0,0,1.22-1,1.42,1.42,0,0,0,.19-.42c0-.11,0-.34,0-.45a.61.61,0,0,1,.17-.29.7.7,0,0,1,.38,0,.88.88,0,0,1,.38.2c.14.19.13.71.19.94.13.47.47,1.39.63,1.86s.35,1.12.45,1.5.21.79.25,1.06,0,.66.07.87a4.75,4.75,0,0,0,.48.92c.1.15.33.42.44.57s.16.34.27.39l.86,1-.57,2-.9-.51-1.06.6,1,3.92.36-.35,2.7,2.32-1.26.81v1.09h-.65l.1.73,1.5,1.84s0,.4,0,.54a2.18,2.18,0,0,0-.06.57c.05.18.39.43.46.61a.94.94,0,0,1,.07.55c0,.1-.28.18-.38.23s-.4.17-.54.22-.39.05-.44.16.1.27.16.34a1.6,1.6,0,0,0,.47.25,2.71,2.71,0,0,0,.73.16,2.83,2.83,0,0,0,.71-.17c.08,0,.23-.2.3-.16s0,.26.06.35a4,4,0,0,1,.13.8,2.08,2.08,0,0,1-.32.75,4,4,0,0,1-.92.7c-.28.16-.9.35-1.19.49s-.62.38-.62.38v.71L40,30l.16.47-.68.57.22.68.67.51-.58.92-1-.06,1,2.13,2.6,2.11-.09,1.48-.46,0,.71.7-.67,1.38.22.76.65.09.58,1.12-.71.39L43,44,42,45.1l2,2.48-2.4,1.22-1.83,1.63-2.16,1L38,52.81l-.25.9.91.44-.09,1.45L37.08,55l.08,1.07-.22.23-.45-.47-1.3.52.31.57-.45.25-.86-.25h-4l-.24-.41.64-1.06-1.25-1.17,1.1-1.46-.7-1.35.58-1.09-1.94-2.16L27,50l-.91.05.22,1.45-1.09-.12-.39-.87H23.7L23.23,52l-.81-1.15-1.12-.07L20.93,50l-.5-.15-.1,1.41-.42.08-1.84-.91a8.53,8.53,0,0,1-.9.59,7.45,7.45,0,0,1-1.5.38,10.61,10.61,0,0,1-1.94,0,12,12,0,0,1-1.19-.28,5.07,5.07,0,0,0-.78-.21,3.35,3.35,0,0,0-.77.14,3.83,3.83,0,0,0-.75.29,3.35,3.35,0,0,0-.35.33Z"/></g></g></svg>