<?xml-stylesheet type="text/css" href="../../css/custom.css"?>
<svg version="1.1" id="Layer_1" xmlns="http://www.w3.org/2000/svg" xmlns:xlink="http://www.w3.org/1999/xlink" x="0px" y="0px"
	 viewBox="0 0 317.3 231.2" style="enable-background:new 0 0 317.3 231.2;" xml:space="preserve" class="svg-stage svg-bars">
<g>
	<path d="M13.6,27.2h290.1c7.5,0,13.6-6.1,13.6-13.6c0-7.5-6.1-13.6-13.6-13.6H13.6C6.1,0,0,6.1,0,13.6C0,21.1,6.1,27.2,13.6,27.2
		L13.6,27.2z M13.6,27.2"/>
	<path d="M13.6,129.2h290.1c7.5,0,13.6-6.1,13.6-13.6c0-7.5-6.1-13.6-13.6-13.6H13.6C6.1,102,0,108.1,0,115.6
		C0,123.1,6.1,129.2,13.6,129.2L13.6,129.2z M13.6,129.2"/>
	<path d="M13.6,231.2h290.1c7.5,0,13.6-6.1,13.6-13.6c0-7.5-6.1-13.6-13.6-13.6H13.6C6.1,204,0,210.1,0,217.6
		C0,225.1,6.1,231.2,13.6,231.2L13.6,231.2z M13.6,231.2"/>
</g>
</svg>
