<?xml-stylesheet type="text/css" href="../css/styles.css"?>
<svg version="1.1" xmlns="http://www.w3.org/2000/svg" xmlns:xlink="http://www.w3.org/1999/xlink" viewBox="0 0 409.6 273.1" class="svg-vehicle svg-vehicle_bus">
 <path d="M88.7,204.8c-11.3,0-20.5,9.2-20.5,20.5c0,11.3,9.2,20.5,20.5,20.5c11.3,0,20.5-9.2,20.5-20.5	C109.2,214,100,204.8,88.7,204.8L88.7,204.8z M88.7,232.1c-3.8,0-6.8-3.1-6.8-6.8c0-3.8,3.1-6.8,6.8-6.8c3.8,0,6.8,3.1,6.8,6.8 C95.6,229,92.5,232.1,88.7,232.1L88.7,232.1z M88.7,232.1"/>
 <path d="M361.8,0H20.5C9.2,0,0,9.2,0,20.5v191.1c0,11.3,9.2,20.5,20.5,20.5c3.8,0,6.8-3.1,6.8-6.8c0-3.8-3.1-6.8-6.8-6.8 c-3.8,0-6.8-3.1-6.8-6.8v-20.5h6.8c3.8,0,6.8-3.1,6.8-6.8c0-3.8-3.1-6.8-6.8-6.8h-6.8v-157c0-3.8,3.1-6.8,6.8-6.8H314v13.7H34.1 c-3.8,0-6.8,3.1-6.8,6.8c0,3.8,3.1,6.8,6.8,6.8H41v81.9h-6.8c-3.8,0-6.8,3.1-6.8,6.8c0,3.8,3.1,6.8,6.8,6.8H314v27.3 c0,3.8,3.1,6.8,6.8,6.8c3.8,0,6.8-3.1,6.8-6.8v-27.3h68.3v41h-6.8c-3.8,0-6.8,3.1-6.8,6.8c0,3.8,3.1,6.8,6.8,6.8h6.8v20.5 c0,3.8-3.1,6.8-6.8,6.8h-21c-3.3-23.1-23.2-41-47.2-41c-26.4,0-47.8,21.4-47.8,47.8c0,26.4,21.4,47.8,47.8,47.8 c24,0,43.9-17.8,47.2-41h21c11.3,0,20.5-9.2,20.5-20.5V47.8C409.6,21,388.6,0,361.8,0L361.8,0z M109.2,122.9H54.6V41h54.6V122.9z M177.5,122.9h-54.6V41h54.6V122.9z M245.8,122.9h-54.6V41h54.6V122.9z M314,122.9h-54.6V41H314V122.9z M320.9,259.4 c-18.8,0-34.1-15.3-34.1-34.1c0-18.8,15.3-34.1,34.1-34.1c18.8,0,34.1,15.3,34.1,34.1C355,244.1,339.7,259.4,320.9,259.4 L320.9,259.4z M395.9,122.9h-23.1l8.7-17.4c1.7-3.4,0.3-7.5-3.1-9.2c-3.4-1.7-7.5-0.3-9.2,3.1l-11.8,23.5h-29.9V13.7h34.1 c19.5,0,34.1,14.7,34.1,34.1V122.9z M395.9,122.9"/>
 <path d="M259.4,225.3c0-3.8-3.1-6.8-6.8-6.8H136c-3.3-23.1-23.2-41-47.2-41c-26.4,0-47.8,21.4-47.8,47.8 c0,26.4,21.4,47.8,47.8,47.8c24,0,43.9-17.8,47.2-41h116.6C256.4,232.1,259.4,229,259.4,225.3L259.4,225.3z M88.7,259.4 c-18.8,0-34.1-15.3-34.1-34.1c0-18.8,15.3-34.1,34.1-34.1s34.1,15.3,34.1,34.1C122.9,244.1,107.6,259.4,88.7,259.4L88.7,259.4z M88.7,259.4"/>
 <path d="M320.9,204.8c-11.3,0-20.5,9.2-20.5,20.5c0,11.3,9.2,20.5,20.5,20.5c11.3,0,20.5-9.2,20.5-20.5 C341.3,214,332.1,204.8,320.9,204.8L320.9,204.8z M320.9,232.1c-3.8,0-6.8-3.1-6.8-6.8c0-3.8,3.1-6.8,6.8-6.8 c3.8,0,6.8,3.1,6.8,6.8C327.7,229,324.6,232.1,320.9,232.1L320.9,232.1z M320.9,232.1"/>
 <path d="M266.2,191.1c3.8,0,6.8-3.1,6.8-6.8c0-3.8-3.1-6.8-6.8-6.8H143.4c-3.8,0-6.8,3.1-6.8,6.8c0,3.8,3.1,6.8,6.8,6.8H266.2z M266.2,191.1"/>
</svg>