<?xml-stylesheet type="text/css" href="../css/styles.css"?>
<svg version="1.1" xmlns="http://www.w3.org/2000/svg" xmlns:xlink="http://www.w3.org/1999/xlink" viewBox="0 0 409.9 287.6" class="svg-vehicle svg-vehicle_moto">
<path d="M6.8,232.9h184.3c2.1,0,4-0.9,5.3-2.5l88.6-109.2c1.2-1.4,1.7-3.3,1.5-5.1l-6.8-54.6c-0.3-2.8-2.3-5-5-5.8 c-2.7-0.7-5.5,0.3-7.2,2.5L247,85.5c-2.3,3-1.7,7.3,1.4,9.6c3,2.3,7.3,1.7,9.6-1.4l10.3-13.8l4.4,35l-84.7,104.4H14 c3.5-38.2,35.7-68.3,74.8-68.3h76.8l12.2,42.8c0.9,3,3.6,4.9,6.6,4.9c0.6,0,1.3-0.1,1.9-0.3c3.6-1,5.7-4.8,4.7-8.4l-11.2-39.3 c14-1.1,25.1-12.8,25.1-27.1c0-15.1-12.2-27.3-27.3-27.3H61.4c-11.3,0-20.5,9.2-20.5,20.5v13.7c0,6.7,3.2,12.5,8.2,16.3 c-9.1,4.6-17.3,10.6-24.3,17.9H13.7c-3.8,0-6.8,3.1-6.8,6.8c0,3.8,3.1,6.8,6.8,6.8h0.4C5.2,192.1,0,208.5,0,226.1 C0,229.9,3.1,232.9,6.8,232.9L6.8,232.9z M54.6,116.9c0-3.8,3.1-6.8,6.8-6.8h116.1c7.5,0,13.7,6.1,13.7,13.7 c0,7.5-6.1,13.7-13.7,13.7H61.4c-3.8,0-6.8-3.1-6.8-6.8V116.9z M54.6,116.9"/>
<path d="M128.6,163.8c-2.7,2.6-2.7,7-0.1,9.7c7.8,7.9,13.8,17.5,17.4,27.9c1,2.8,3.6,4.6,6.4,4.6 c0.7,0,1.5-0.1,2.3-0.4c3.6-1.3,5.4-5.1,4.2-8.7c-4.3-12.2-11.4-23.6-20.6-32.9C135.7,161.1,131.3,161.1,128.6,163.8L128.6,163.8z M128.6,163.8"/>
<path d="M267.5,39.1c1.3,1.7,3.3,2.7,5.5,2.7H314c6.4,0,10.7-3.6,13.3-5.8c0.1-0.1,0.2-0.2,0.3-0.3 v25.9c-0.2-0.2-0.4-0.4-0.6-0.5c-2.6-2.3-6.7-5.7-13-5.7h-13.8c-2.3,0-4.4,1.1-5.7,3c-1.3,1.9-1.5,4.3-0.6,6.4l34.3,81.9 c1.1,2.5,3.6,4.2,6.3,4.2c22.1,0,42.8,9.7,56.9,26.3L260,216.8c3.5-27.9,22.4-52,49.3-61.5c3.6-1.3,5.4-5.2,4.2-8.7 c-1.3-3.6-5.1-5.4-8.7-4.2c-35.3,12.5-59,46.1-59,83.7c0,2.2,1,4.2,2.8,5.5c1.2,0.9,2.6,1.4,4.1,1.4c0.7,0,1.3-0.1,2-0.3 l150.2-45.1c2.1-0.6,3.7-2.2,4.5-4.2c0.7-2,0.5-4.3-0.7-6.1c-15.7-23.7-41.3-38.3-69.4-39.8l-28.6-68.4h3.5c1.2,0,2.2,0.7,4.2,2.4 c2.2,1.9,5.2,4.4,9.5,4.4c7.8,0,13.7-5.9,13.7-13.7V35c0-7.5-6.1-13.7-13.7-13.7c-4,0-6.9,2.3-9.1,4.2c-1.9,1.6-3.2,2.6-4.5,2.6 h-37.7L257.9,3.6c-2.3-3-6.5-3.6-9.6-1.4c-3,2.3-3.6,6.5-1.4,9.6L267.5,39.1z M267.5,39.1"/>
<path d="M334.4,246.6c-8.3,0-15.7-4.9-18.9-12.6c-1.5-3.5-5.5-5.1-8.9-3.7c-3.5,1.5-5.1,5.5-3.7,8.9c5.3,12.7,17.7,20.9,31.5,20.9 c18.8,0,34.1-15.3,34.1-34.1c0-2.9-0.4-5.8-1.1-8.7c-1-3.6-4.7-5.8-8.3-4.9c-3.7,0.9-5.8,4.7-4.9,8.3c0.4,1.7,0.7,3.5,0.7,5.2 C354.8,237.4,345.7,246.6,334.4,246.6L334.4,246.6z M334.4,246.6"/>
<path d="M139.4,247.5c-3.3-1.9-7.4-0.8-9.3,2.5c-8.5,14.7-24.4,23.9-41.3,23.9s-32.8-9.2-41.3-23.9c-1.9-3.3-6.1-4.4-9.3-2.5 c-3.3,1.9-4.4,6.1-2.5,9.3c11,18.9,31.3,30.7,53.2,30.7c21.8,0,42.2-11.8,53.2-30.7C143.8,253.6,142.7,249.4,139.4,247.5 L139.4,247.5z M139.4,247.5"/>
<path d="M99,243.9c-6.2,3.6-14.3,3.6-20.6-0.1c-3.3-1.9-7.4-0.8-9.3,2.4c-1.9,3.3-0.8,7.4,2.4,9.3c5.2,3.1,11.2,4.7,17.3,4.7 c6,0,11.9-1.6,17-4.5c3.3-1.9,4.4-6.1,2.5-9.3C106.4,243.1,102.3,242,99,243.9L99,243.9z M99,243.9"/>
<path d="M334.3,287.6c4.9,0,9.9-0.6,14.9-1.8c32.9-8.2,52.9-41.6,44.8-74.5c-0.9-3.7-4.6-5.9-8.3-5c-3.7,0.9-5.9,4.6-5,8.3 c6.4,25.6-9.2,51.6-34.8,57.9c-23.5,5.9-47.7-6.8-56.3-29.5c-1.3-3.5-5.3-5.3-8.8-4c-3.5,1.3-5.3,5.3-4,8.8 C286.1,272.2,309.3,287.6,334.3,287.6L334.3,287.6z M334.3,287.6"/>
</svg>