<?xml-stylesheet type="text/css" href="../css/styles.css"?>
<svg version="1.1" xmlns="http://www.w3.org/2000/svg" xmlns:xlink="http://www.w3.org/1999/xlink" viewBox="-49 141 512 512" class="svg-vehicle svg-vehicle_trailer">
<path d="M88.6,435.8c-4.7,0-8.6,3.8-8.6,8.6s3.8,8.6,8.6,8.6h261.8c4.7,0,8.6-3.8,8.6-8.6V309c0-8.5-6.9-15.4-15.4-15.4H107.7 	c-47.3,0-85.7,38.5-85.7,85.7v65.1c0,4.7,3.8,8.6,8.6,8.6H60c4.7,0,8.6-3.8,8.6-8.6s-3.8-8.6-8.6-8.6H39.2v-56.5 c0-37.8,30.8-68.5,68.5-68.5h21.9v125L88.6,435.8L88.6,435.8z M146.9,310.8h194.9v125h-81.5V324.7c0-4.7-3.8-8.6-8.6-8.6 s-8.6,3.8-8.6,8.6v111.1h-96.2V310.8z"/>
                                <path d="M81.9,504.1c-35.6,0-65,26.7-69.2,61.2h-26.1V544h9.7c4.7,0,8.6-3.8,8.6-8.6s-3.8-8.6-8.6-8.6h-9.7V379.3 c0-66.9,54.4-121.2,121.2-121.2h235.8c28.1,0,50.9,22.9,50.9,50.9v12.2c0,4.7,3.8,8.6,8.6,8.6s8.6-3.8,8.6-8.6V309 c0-37.6-30.6-68.1-68.1-68.1H107.7c-76.3,0-138.4,62.1-138.4,138.4v147.5h-9.7c-4.7,0-8.6,3.8-8.6,8.6s3.8,8.6,8.6,8.6h9.7v29.9 c0,4.7,3.8,8.6,8.6,8.6h34.7c4.2,34.4,33.7,61.2,69.2,61.2c38.5,0,69.8-31.3,69.8-69.8C151.6,535.4,120.3,504.1,81.9,504.1z M81.9,626.5c-29,0-52.6-23.6-52.6-52.6c0-29,23.6-52.6,52.6-52.6s52.6,23.6,52.6,52.6C134.4,602.9,110.8,626.5,81.9,626.5z"/>
                                <path d="M81.9,537C61.5,537,45,553.6,45,573.9s16.5,36.9,36.9,36.9s36.9-16.5,36.9-36.9S102.2,537,81.9,537z M81.9,593.6 c-10.9,0-19.7-8.8-19.7-19.7c0-10.9,8.8-19.7,19.7-19.7s19.7,8.8,19.7,19.7C101.5,584.8,92.7,593.6,81.9,593.6z"/>
                                <path d="M454.4,565.3h-42.7V349.9c0-4.7-3.8-8.6-8.6-8.6s-8.6,3.8-8.6,8.6v215.4H167.7c-4.7,0-8.6,3.8-8.6,8.6 c0,4.7,3.8,8.6,8.6,8.6h253v18.3c0,4.7,3.8,8.6,8.6,8.6s8.6-3.8,8.6-8.6v-18.3h16.6c4.7,0,8.6-3.8,8.6-8.6 C463,569.2,459.2,565.3,454.4,565.3z"/>
                                <path d="M109.5,224.8H327c14.4,0,26.1-11.7,26.1-26.1v-22.3c0-14.4-11.7-26.1-26.1-26.1H166.2c-31,0-59.6,16.8-74.7,43.8 c-3.6,6.5-3.5,14.1,0.2,20.5C95.5,221,102.1,224.8,109.5,224.8z M106.5,202.5c12.1-21.6,35-35,59.7-35H327c4.9,0,8.9,4,8.9,8.9v22.3 c0,4.9-4,8.9-8.9,8.9H109.5c-1.7,0-2.6-1.1-3-1.7C106.2,205.3,105.7,204,106.5,202.5z"/>
</svg>